<mxfile host="app.diagrams.net" agent="Mozilla/5.0 (Windows NT 10.0; Win64; x64) AppleWebKit/537.36 (KHTML, like Gecko) Chrome/135.0.0.0 Safari/537.36" version="26.2.13">
  <diagram name="PÃ¡gina-1" id="gjeJ7FR7YGt9WmWR_5rg">
    <mxGraphModel dx="1249" dy="1785" grid="1" gridSize="10" guides="1" tooltips="1" connect="1" arrows="1" fold="1" page="1" pageScale="1" pageWidth="827" pageHeight="1169" math="0" shadow="0">
      <root>
        <mxCell id="0" />
        <mxCell id="1" parent="0" />
        <mxCell id="ozE5ypxph3W-FYaMxUwp-1" value="" style="shape=image;verticalLabelPosition=bottom;labelBackgroundColor=default;verticalAlign=top;aspect=fixed;imageAspect=0;image=data:image/png,iVBORw0KGgoAAAANSUhEUgAAAi8AAAHpCAYAAABKjdxwAAAAAXNSR0IArs4c6QAAAARnQU1BAACxjwv8YQUAAAAJcEhZcwAADsMAAA7DAcdvqGQAAP+lSURBVHhe7J0JXFTl/v8/srmhgMoOAgKCILIpm/tSijfLJaMumCbuqf+ytNLyli23nxVmmi2WuWSp4b4vqGi4oSyyiICCC7ghIIsyzPL9P2fOAAPMmRkQb3nvefci5yzPc57v+jwzc+Z8WxEDIiIiIiIiIiJPCQaqf0VEREREREREngrExYuIiIiIiIjIU4W4eBERERERERF5qqi/eClNxJZtqXio2uR4mBeP377/Fj9tS8TtatVOQcpxftNyxF6sUm3zyPMO4oefj6FArtqhL/LriPtpPRLuKlQ7ngRyXI/7CesT7vKbVTdw/Y6O68nzcOCHjThTrM+4qpGx7Rtsz5CptjUhx7XDq/Hr6Xt4kpLqRwN9CFB14zp0qanJNEmveqCv/+hj878A+fU4/LQ+AU/U/Z9q5Mg78AM2ninW39bNoPz8JsR88QW+aPC3bHumVp/9j9ivgdz6xKU87wB+2HgGLRVmja8pQcb2b/Dd/ivQlvXqUMuROu2oJT9VZ2DbN9vBdyOge7VznjaeinzwOPZrInWLl8o0/DD5RUz+4TQqVNd9EL8IA/tEYuXJdJz5eRJCn/0MZyr5YxpR3MfJ7z7Az2frnyTLisWnS3fhalMXL7JcbPu/5ThY+CStRSjNTURyPjfmB9g8MQzz4uovvhohvYTYz1Yi7o4+9zpLkLh2Mdae19anDFmx/8byQ7f/BosXdX0I8GAzJobNgy41NZkm6VUPqBS5icnIr9TWn542/wug0lwkJudD6/D/p5HiUuxnWBl3R09bNwcF7p/8Du9/fww379/HffW/colWn5XlbsP/LT+IJ5u+1OTWMy6ll2Lx2co4tEiYabim4tZveP/dfZA5OcJItU87ajlSpx215CdJItYuXgu+G4HYUTvnaeOpyAePY78mYvgh42HyD3jt+RnYVWSI0g798P+ieqM93cK6ma8hadxhnPwmGmNeGYMO26dhRfk4vBpkrmreADbwM+u+w5VebyAqsJ1qJ1tr5e7GigMmGDdrBBzLmQFyqtC29Ay2bj2CtHILuLp0gonq3HqwdzX7Vh1G25EDoYjfhiOZFbDo5gyLmpMlN3BmZyx2n7yEB6ZOcO7SBq3YbsWDyzi6YwcOnc5GuZkTXDq1Zjs5pWbjkfFdxG/ZgVM3jeHgZoP2bPnW2twaDs4uMCtNwpY1a5FrEYYAj66w7sBiM/s4dm3fj+MXrqCypi9ZDnatPAGLqMkYYKn5m7eK3KOI3RqHLGlnPDq5Gtle8/CKHxu47DbO79qCnfGZamOW48qeb3HU9B8IKY/D3qS7MLFzgVW7mr5luH1+F7bsjEfmA1M4OXdBG07QRihQkn0OuWWVyNi3B8nVduhh155d8jx2bdmJ+MwHMHVyRpeaxpVXcGzrVhxOr0QnSylyrlSii40Z2qv0YWduhAeXj2LHjkM4nV0OMycXdGpdifyzW7BmbS4swgLg4WCCW+dzUVaZgX17klFt1x12bcuRfXwXtu8/jgusT76d5rHVo4FeFQ+ycXzXduw/fgFXKs3gxPyEaZ8zMC4f3YEdh04ju1xtfyNaw9zaAc4uDuj4ULPfSfPPNrC5gWZ9KUqQfa5GztO4du8ByNwBXdrxupTdTsOpPIK9tSkMNNpYoQzanKq2KD2zFVuPpKHcwpX5k8qZq1mbvbHYxdqUmbnw+1ubw9rBGS4O5sr4kNw4g52xu3HyUt24FFxC0xJPmm2v0GBX/vxGVDAfid2KuCwprLtUIjNfBlurdii9fBZZDzvB1syYnSTHnfRTyFPYw9qU+axG+RvSNF/V7Asy5OxaiRMWUZgywIG3tZMpilLO4mJuPvLzVX/XS2BgbQszIya3pnjWCku2Z9bh+6Jx+GPtexj9zDAMG8b/DfG1beSz6sjz9mHV4bYYOVCB+G1HkFlhgW7OFrW20WRPIdso7Zz9CMZ347FlxyncNHaAm0179u6zxsctUJqkFpddrdGBLcwbxyE35F1YecICUZMHQFP60t9nGuQCds325cxOW4/hulVP9LC1ZeMSik2hHNmhVp4HaRdwu7V9oxjr1t0Vjsr8xGmyArlHY7E1LgvSzo9wcnU2vOa9Ar8O6rEjcA4fVBrnEE1o0ouu+Kul8houXLiN1vZdwIvDcnoaixniYkbzPKMoyca53DJUZuzDnuRq2Pl4oZuj9nwg5D+N0XKepvitl/+S8UBejsKyNrDv0o7XF2uTdioPZN8VDjZ8zuXMU810tjd2F9NZGcxc2DXYvpr5lrefBDfO7ETs7pO4pD636ZPjuZ9Klxz9gZbtzaWiDWPI/Nnv6I6c7ZSeo/d6OdP0Q1XcKdwOSlzoQ9ZR21TbGpDnUcyADjTixyLVDp6qfVPIsfsbdELCXsfNIlcXbwoJG0PTX4+kENvONHjZJZKpzq1HVRzNculE9p6BNPK1GRQZYktdhi6nLO7k0nh6P8SGnAdMoBlTRlFPa3eK3JhHskcJtDDAkQIjZtMbU8PJw8qP3vvzEd+Xa1fq7utP4ZOn0lg/a3KO2EB5siqKm+VGAR+cp/yNMynA2pjsAp6jD/aX0s3fo8jVIZhemfMWzY3qS/bmQbQkSUr0aC9Fdw2hTzI1jppK494mX+vuNCJ6GkWE+pCDZTt6fm05UeV5WjrEkboNepVmTR9HgQ4eNHHTNZJTFR2Y1pU62bqS3z+iaeoYP7LqOp7W5XH9V9L5pUPIsdsgenXWdBoX6EAeEzfRNc5GjeD7sXYKouETJ9CkpafZJZfSEMduNOjVWTR9XCA5eEykTVzjkjia729N3YdH0/RXwsjT2Z46D/iSrtbqI5keJSykAMdAipj9Bk0N9yArv/foz4p82jgzgKyN7SjguQ9o/70DNK2rNTkFDaeJEybR0oSr9HuUKzkEv0Jz3ppLUX3tyTxoCSVJG4+tEWp6ld/8naJcHSj4lTn01two6mtvTkFLkpgXPqKEhQHkGBhBs9+YSuEeVuT33p9srwY4m7sF0AfJUgG/S6cr9WxeJqyvKnU5I2ny887kt+g8Gw9HBe2Jdqbe/0olqRYbx81yJRfvEAobM51ejwwh286DadklZuPyU/RRXxvq2i+KZk4ZSR42gbTwRLlyzG4BHxAbPnP39ynExpkGTJhBU0b1JGv3SNrI/ENbPAnJotGumhTIfORtpY9Mpqnjg8nX05W6PPcTlTBt743uSiGfZKritox+GWVGI38q0eLjDdHfV7X5Qs04am2deIFWvfYPCg8PV/4N87UmY/Pn6KcCqXA8a0VOeTEDyHTYKrqtKea05ALONi6d7MkzcCS9NoOzTRcaujxLqTMhewrZRmnnrt3J1z+cJk8dS37WzhSxgeW7GrnP59aPy9KbAnHIDTmauoZ8QprSV5N8pkEu2JslZKfGCObI2pgtpX1TXTTEWCIdUuUn1gvFve1L1t1HUPS0CAr1cSDLds8T301N7AifIziHKK9XHyG9aIu/elTso6kufrTovEobFXso2rk3/StVIuiXVQemUVdrJwoaPpEmTFpK8Qd05wN9Y1vwPKH4rZf/JtEnMZPJxW8R1YkTTc69/0WpFXU5t/zUR9TXpiv1i5pJU0Z6kE3gQjpRXje/cPaLfz+EbJwH0IQZU2hUT2tyj9zI5mT9crxy8VJD5a9qixf5HfrlhS4UsPAMcxuG5BJ9OciU2jy/ltvSjJ6LFxfLcfSr8hQ5FawYQh1H/kTFyjMbwDmySxcas/6OMvnJb39Pz5qH0+r7cspfMZQsB8dQjspLincxZbrNpiNpn1OY7Whac53TqoRS1y2m5UdZe2VflvT8zzf5RFq8gyY5edOC02VqyiyiH0dY0NiNlXzb9Yso5nARf778Nq16piOFr2Yj1bZ4kRfQd8OtaNiKPL5d+VGa7d6eBeYDurtuDNkN+qp2zOWHZpCb93w6LeESuSNZjl5LhcpG92nrBEfyefcsye+uozF2g+irukY0w82b5p9mymwEPyHYTNhGXGyyxrRujB0N+ipHFUzldGiGG3nPT6D85UPIZuQPdF15vSpKXORL7fqrL17O0+XPw8h29BriVZlK6xYvp6OccxT9SCMsxpJSTUqntqEJ25RXVJ63flEMHS5SdszUtoqe6chsVtxgbJpQ06skdT0tijlMfDdyur3qGeoYvpqKZZfp8zBbGr3mujKpSVLX0eLlR3mfbUhtIuQXL5r9Ts3mgvpiC60GclYdn0sePRfQGc4MZdtoglM/+r+saq02jpvlQpbjfmVXZDA/WTGkI5vw2QjWjyGr4I8pTZkIpJSxajJFrUimipoELMmnFUMtaXBMzbiKaddkF3KbfUxYLkFZ/hS2az3kdH3lM2Q55BvmE9x2GR1mftGO9S28eLmvRX5+uw59ffW0sC9oWrxwmV2F/OZWmuzlQZG/5bM+tcSzVvjFS2vzbhQYFERBtX/96M2dbOS6Fi9dxtB6PqHS7e+fJXM27vtyIXseEbQNb+fn6eebvJ2Kd0wiJ+8FdLpMTW71uBSMQy2Ll+b4jNo1he3UAMEcyfSpHrMaY6yyNl/LC76j4VbDaEUeL2P50dnk3r7+4uXCNaFzhOeQYzXv12vQ4pvCeaUhVXR8rgf1XHCGeSInzgRy6vd/7I24sF8qFy82E6gmtdbIJJwPhP2nPjKB86TC8VvWIM9XHae5Hj1pAW8c2jbBifr9H1uY19rvNq0fY0XBH6fxi09pBq2aHEUrkivq7Je/goZaDqaYOgPQZBc3mn0kTa8cr/k7Dw4DK7z84b/g+Pso+PZ9BkPCXkW8iTPamAh9CMhhCAPWo0Je/+YWUhAUrQxqb7AxtPeEpxn3ygDmnS1gVC2BROh7YUMHePXopGxr0KETLIyr8LBSgsyUHDj0GwRnQ/40i8GD4FuUgXTTUZgUlorZ3W3hOTAKa4r6YHiQFX9tYx8MGWbLv7YYgL5eN3AxrYLb0oAJeo4aD/vzH2Py2GcR6tMbC+MlTDYdd3pJM5GaY4M+wQ78dUyDMSDAFK24+1qS01GcEoNwT3e4u7vDf/o2FF7JQIby6z9jePcfCGtlI3P0C+uBaxfTIMtKRnpxCmLCPZVt3P2nY1vhFWTwjTRgCHuXbmjDvZRlITm9GCkx4fDk2rr7Y/q2QlzJuIi0lGw4hvSFrfJ6reHTrw+slK9rMITrC5MQljob3W09MTBqDYr6DEdQ/ZN4DO3h0k15Raa2nhg13h7nP56Msc+Gwqf3QsQz4/JqUxubDkx6jsJ4+/P4ePJYPBvqg94L45mPyCEzdMULk8KQOrs7bD0HImpNEfoMD2owds3o9DtBfWXwx9XkbB0aiTEGu7H5nAQl+7Yg3v0lRLiTDhsz+T09wQ/BHJ0tjFAtKUd2WjbMg/rBXXmDgBG8Zv6MDbP96u4XYD6VkuOAfoOcWQ8cFhg8yBdFGanKLY1yVQvJkqWnXaW4nJ4L2+AQOCov2gFhQ4JgJvSZuhJdPt4QfXw1Q9gXlH0IUH4KS156C1ciN+CHV5zYlZoZzyqMvKLw1Y8/4sfav1WY07/uq3EhDB280KMTp1sDdOhkAeOqh6iUCNkzXattjH2GYBgfsCx99YXXDRbHgulLWxwKIGgD/XxGbzsJ5sj6aI4xVcJnSDNTkWPTB8EO/DhMgwcgwLR+L7JLQudIBeeQ1IY3m+rIC/rNZ60RGjkGBrs345ykBPu2xMP9pQi4G2r3S0N7F9Sk1loE84F2/6lDKLcrtMevep5vHYrIMQbYvfkcJCX7sCXeHS9FuKvGw5BmIy3bHEH93Pk8ZuSFmT9vwGy/urugpJkpyHHoh0F1BsAg3yJkpJvqleMbSlUPE58ZiL2Ygm1f/AvLdh7GQr9WsHfuqjqqAZaQLcwNcP/u3XoO+/DuHVR0tIBFjWRshVMrpBJi/wnBFj0N7vrizjU25hI/MzK/C5BUMYcxhHEbT0yNzULeufV4J9wOV1dPwLNv7AOfO1nw1jRQVKGq2gAmxgIqUBRg3aThWBDfBkER8/D19uP4bIi2hZuKViZobSRlk0fNhYhdk39taGQEq9HLcOTECZzg/hJSkJv3KyIt+PM4eWr0UFVVDaM2bblGMLIajWVHVG1OJCAlNw+/8o000opbQSoxhJGRFUYvO6JqewIJKbnI+/UVtG1jgofl5bX6k1VWoqqBEQw9pyI2Kw/n1r+DcLurWD3hWbyxT9Ms1Eq5aOVQFKzDpOELEN8mCBHzvsb2459BXW11Y9OGAgXrJmH4gni0CYrAvK+34/hnQ1TfeRrCc2ossvLOYf074bC7uhoTnn0DGofVEJ1+J6SvSNXxOjlhEoB/juvAktB+7PjjNHxfHg9Hdky7jbkh1B8BiGBoaABptVS1g0lfWoC8e+p3FBrD2KgaErWMKKlivm/I3W/C0CiXsCz62bUVTFobQyqprosx7pNa5Qt+gmBvfpT/Mm9FdTX/Wpf8DdHHV4V9QQBZLtZMnIDNnl/ht3f7QHlnVXPjWUWrdjbw9PGFr2/Nnw9cLPTwZSZf/fTF6UnYnlptwxYCNS0UVUznBiYQTl/a41Azj+Mz2mK2AVpyZD0EYqyGVuyNtJFUgrpumH4adNPKWPgcwTlEFVZ16MgLOvMKj0nAPzGuA5vo9+/AH6d98fJ4Rxjo8ku1N/11NNN/1BA6T3v8quU/9mYg4J/j0IEtKvfv+AOnfV/GeHXjMI0YGkhRl9YUKC3IQ/20ZtxgoSdBFdswNG6jV44XcH0OCQ7PckfgJ9fRPawffIyO4vut1XhmVIDyaFVxIW6VSJSv62iH4FBvZG/8Epsu8ROjpOAIvlz9JyxD+sO1Qd5uPsbw7R+A+3s24Ng97ioPkb52Ey64haH31Y8Q1HMOEu3D8dq7MVg50x9lhYX8z7+lKdj9RyZLtWz8mRux7ZI/BvfrwB1RYQgDQ+Z4CuZ60hwkpRui/7RFmBUxAn44gv1J1ZDJdLxTM2F9hlbg4OaTyp8iym/swPZTlcyZTeDdNwjy+J04K7OCra01DBK/RPSbvyFX2aUMaft2IItTaeVF/LotC/4DQ2Hi3RdB8njsPCuDla0trA0S8WX0m/iNb6QdE2/0DZIjfudZyKxsYWttgMQvo/HmbzcQNHIwKnd8i9jcKshLE/Ht94dQUi/ipDj3ryD0nJMI+/DX8G7MSsz0L0NhIdMkm2wN2cTFqakh0pwkpBv2x7RFsxAxwg84sh9J1TKmt7pA040UOUnpMOw/DYtmRYDvJgnVTPeyqnP4V1BPzEm0R/hr7yJm5Uz4lxWCG1bzULO5oL5yVeeqYwSvl1+EzYFFWHohCC+PtmHBpMvGmjCBV1hvyI5vxVGlL1fg9Kfh6DdvH8r5E5i7+6J/wH3s2XAMvLunY+2mC3ALC+WPa0JQlkvCdq2HCXwHhaLiwG98jMkLsXvbSTxQ2rwVOnZsi1tXc9loWVq6dQRxF7ks1Rz5VQiON0vYFzS5lOIuDrw1Hp9U/T9s/nYs7GoynI541pzPnhCC9uyt1TbSlN34I1OZvZC5cRsu+Q9G/fRVF5fNisPm+EztNbXEbMNLCubIhmiKsTpMmPyhFQex+WQxm2vkuLFjO041+JWLseA5wnNIaJcG02KT8oIWjLzw8os2OLBoKS4EvYzRNuw6zZlnmuk/dVQLnCdrUvwaeb2MF20OYNHSCwh6eTQ4cWox9kJYbxmObz3Kj7HiND4N74d5+2qzGhOjPwLu78GGY/wjQh6mr8WmC26s3VW9cnwDK6nTGkPnvQ+PraPhHdgH3r3fxs2o7/B+P+5joyocfDMAwe8e50+txRAes77Gxz1PY1avzuhg1gEdnZ7Hr6b/Dz980F/7u6UmYQDLlz7HV6F/4lWfHgjw7YFh35tiwaq3ERQciVk+xzDRpydCQnqhb4wCc+ePgyXXrFU73Pv9RfTy80OPYT/A/L0YTHNTX1G1Q3dPGxxbOBBTt9giItIR+yf7IjDYD73G74aZry1u5eWpzhWiA55bsgz9/4yCT09/eA9dhTtd2irfq5qNWoLl4VmYE+CBwN5e8JsaB7sXRqKH8q2ZIexbHUSEXwD8vEdgg90SfD3NhWuEJcvDkTUnAB6BveHlNxVxdi9gJN9IB2YYtWQ5wrPmIMAjEL29/DA1zg4vjOyBDiM/xY+vFOHDEBtY9ZqJc20cYWJkApPaT12NERg5Cz7HJjI5QhDSqy9iFHMxfxzTZLvu8LQ5hoUDp2LDDc7t6mjdJwKRjvsx2TcQwX69MH63GXxtbyEvT9fspU5r9ImIhOP+yfANDIZfr/HYbeYL21t5yDMIROQsHxyb6IOeISHo1TcGirnzwQ2reajZfEOZoL40YegWgfFON/BgwD8xqjO/T7uNNWM68kMsG5LIdOaN3uwv4mAA/v3B88yTVBhY4qXPv0Lon6/Cp0cAfHsMw/emC7DqbX/VCZoQsn0vYbs2wOz5T/HtiCRE+3nD32cwYi6bqBKGCfpEToH7wdfgy8XS0F8gdeusPNYc+XmExusr7AsaXEpRuAGffJ+GWwkfYpBdJ3TqxP66uGPmER8t8SyUz+qojl8Azy6q/lR/lr0Xqo42EUF7Bmm1Tat29/D7i73g58fy3Q/meC9mGuqnr7q43GI7vhlx2Ayfqb3mbOQO+qeedhLOkQ3RFGO1dHgOS5b1x59RLBf4e2Poqjvo0rZBL4LnCM8h/o18VTiPNg1DuEWMh9ONBxjwz1FQitO6T9PnmWb6Tx0mguc1KX4N3RAx3gk3HgzAPxsZxxQjP1yGIYnMH7x7s78IHAz4Nz54vm61bWD5Ej7/KhR/vuqDHgG+bE7+HqYLVuHtoGD9cjx/64sWqu7S5dSLdKWo4V1M2pBT5a0sSk48T+nXS1U3FT0J5FR+M4NS0vKpRHlXUA1SKslPo6SUy3TnkWpXzY1ESSVUkJHG5Gl0ByGPvJTyLybT5TucvDIqZf2kXr5NlQ3vedKFrJSupadRXklj6SsLMykpKYMKyht3WlGQSZnXyhrrrLKQMpOSKKOgnL+xq0lUUmFmEiVlFFDNJcuSd9DGP2+qriOnm8sHk9VLm/mbJ9WRllB+WhKlXL5T725veWk+XUxm+tXkFkz2/LRUuny7shljrUPGrpGWeplua1C+tIQdS0phdlIfVTOpZ3OOxvpqKtpsrBnmywUZlJp5k8qEAkZeTjczUigtv4S/CU4vBGQRsKsmHt3JpZzCSir9ZRSZKW/YVSG5T1fTL9Et7gbRBjRd/ho0j1ebL+jPY8Tzk0DInhpsU3OzZlJJAWWkXSHh9KUWl82Ow6b5jPo1m2QnLTmyKchKr1F6Wh5p60b4HKE5RBOPnxc000y/bIL/aETLec2P3wawMRZkpFLmTQ1zmgp5+U3KSEmj/AYG0JXj/3eqSkuO4vWe89H5j7NYonbT0P8qkpNvI+CV0+g362X0RCZif4iD+zcJ+PEFS20fx4n8D1O+9nk4/vEC8vdGQ+BJTyJPCMnR19Fzfmf8cXYJxPQlIgL+IXWq1//dGLRGR0tneAd4wV710KP/ZYycBmF0HyNcTb2EAqk9whd+jYXP2KDFbksS+a/DsK0ZrN180du9i+gn/2EMWneEpbM3ArzsVQ85ExH53+Z/55MXERERERERkf8KxG8IRERERERERJ4qxMWLiIiIiIiIyFOFuHgREREREREReap4KhcvVTeu4w73eBH5dcT9tB4JDR/n/N+GoJzVyNj2DbZnNOUZKg2ouoHrvDJxPe4nrE+4q9wtv3UcK+ZPw5T/9yV+/KGFdaxRHgkyd36DVXuzmVQtS3XGNnyzPUP74+SfIPLrcfhpfQJa1E3/wzrUG/k1HF79K04rn0ylTn3/ahk09ynJ3IlvVu1Fdksp4WE+4td+hvmzpmDq3MVYdfAK/9DLplCdgW3fbMfjhGqLokfufBy//Z/L0ZoQjAX9qdVjs2mBOeJvytO3eHmwGRPD5iGOe9AklSI3MRn5DZ6q+F+HoJwSJK5djLXn1Z+53BQeYPPEMMzjlYnS3EQk53PPYJbgyIcTsTTDBqF9bVB6oYV1rEEexZ0tWDx/Jx45OqFROfnHRJK4FovXnlc+WfmvgLiy+cn5aFE3/Q/rUG9kWYj993Icut0w46r7V0uhoU/FHWxZPB87HznCqQWUoLi1C7P7hmFa7F108Q1DH/v7+GNKKJ756JTy6cJ6I0nE2sVr0exQbWn0yJ3N9tv/xRytCSpBzrlkXHvYTNnV9dhsHneO+PvyBH4qXYErx2KxNS4LUusuqMzMh8zWCu1KL+Ns1kN0sjUDVzpCficdp/IUsLc2Va6gZLfPY9eWnYjPfABTJ2d0aaPp94CVyD+7BWvW5sIiLAAeXbvCwdYBzi4OMGeJSmMfCi54clDVthRntm7FkbRyWLi6oFNNYpPdxvldW7AzPhMPTJ3g3KUNWulqUw8Fii+fRdbDTrA1U0qGO+mnkKewh3W7Mi39KPAg+zh2bd+P4xeuoNLMCS6dhJ5B3Brm1nVyVuQeRezWOGRJO+PRydXI9pqHV/y4TmW4fX4XtuyMR+YDUzg5d0GbVgplgs+paovSM1ux9Ugayi1c2bVMUJl/FlvWrEWuRRgCPLqiq4MtHJyd0O7ueWxd/wtu9XodE8KDEODlBhfVtVHN9LU3FruYvsrMXJT9cCgeZOP4ru3Yf/wCrlSawcmlk+qJytVsTHsRu4uNqcyM9dOJTaz15YHkBtPPQeRaBWFAoBe6NdkGGqjIxdHYrYjLkqLzo5NYne2Fea/4KSd1TX6i4BJ1ThXalp7B1q1HkFZuAVflWHkkN85gZ+xunLykwbfa3EdC7DbE5xnC0d0akvQ92LQ9ATdMnOBu3RatWpvD2sEZLg4d8VDAFhzCOuTUfh57Y3exMZfBzIXTgx46ZD4mZPvGVOF68hncMHCAlaq4neJeJk5fkcLaukODn0Zr8fm2V7Hn26Mw/UcIyuP2IumuCexcWPyzIG9tbs38ywV2vCNp8Auu6wfIPr4L2/cfx4UrlTBzYrKqlNBYBw37lOAGk/NgrhWCBgTCq5t2/9dNKXbNHYWvLWKQ8MdbGNHHH4H9/oHxIfewat52mEa9jIAOTMuCdqtA7lFVLuz8CCdXZ8Nr3ivgQlWbrRuieHAZR3fswKHT2Sivlyc0x3tJ9jnkllUiY98eJD+Q42FhGVrbd1H9xJq1SWO2om7o7upY5z+a4rrWb82VttEYA434D+Vo1aF6KIpx+WwWHnayBe+Wd5B+Kg8Ke0vIrjbFBwR8U+lfOxG7+yQu6ZFfubxtpoxRe3SsEJj/LGW4qlH2hnq0Rgcpi/Gdsdh98pJ2PTCaNkfwbRqhMdcLzFv65kKuByHfZ7F/+egO7Dh0Gtnl2mNCCfdT6ZajhOLe9ifr7sNp8tTxFOzrSa5dnqOfShqXYS9Te1pn5fmlNMSxGw16dRZNHxdIDh4TadM1DU/2k+XTxpkBZG1sRwHPfUD779WVTxfsg3uyrqsLeYeE0Zjpr1NkiC11HryMLnHjqDxPS4c4UrdBr9Ks6eMo0MGDJm66RnJtbRpRV5afP1xGv4wyo5Gc0IL9yOnm71Hk6hBMr8x5i+ZG9SV78yBakiTwiMfaMuNSKo17m3ytu9OI6GkUEepDDpbt+FLyVEnnlw4hx26D6NVZ02lcoAN5TNxE1+RVFDfLlVy8QyhszHR6PTKEbDsPpmWXJJS/cSYFWBuTXcBz9MH+e6pS5YmUsnICBdoZk1WvZ+jVmO9phuraVH6KPuprQ137RdHMKSPJwyaQFp4oJ/nN3ynK1YGCX5lDb82Nor725hS0JImkVE6nPupLNl37UdTMKTTSw4YCF56gcjV5qDSe3g+xIecBE2jGlFHU09qdIjfm8aXV9bZBA0rj6G1fa+o+IpqmRYSSj4MltXt+rfLpwUJ+wj3B1NXFm0LCxtD01yMpxLYzDV52SWnT0vj3KcTGmQZMmEFTRvUka/dI2pjHjijH2JU8gkJoTHQ0jejeiXqOfJ4GD42iWdFDyLnTAPqCOXxtKXupkC1kWnTIqf0j6mvTlfpFzaQpIz3IJnAhnSjSQ4ckfL3GPKK4192o28zDzJM4JJTwlhf5vMOX8K+PNp/nSud3IltXP/pH9FQa42dFXcevozwZNxa+FD6TSLNfyG/S71Gu5BD8Cs15ay5F9bUn86AlxIWFRh2Uq/dZSvHvh5CN8wCaMGMKjeppTe6RG1XX1VcHDajcSpFWTjTjcMPHSEvo0SO+vbDdSlku9GW5cARFT4ugUB8Hsmz3PHGhqs3WjXiUQAsDHCkwYja9MTWcPKz86L0/H7EDwvF+YFpXsnYKouETJ9CkT2JoqosfLTqv6r1iD0U796Z/JR6q8x+BuK7zWy0x0JD/VI7mr1afR3spumsIfVI3ydAos5Fs/mmKDwj4ZnP8i4sFl9704UWp8PwnJLukgR5vCMV4Y5o+R/Dt6qHRJx4Iz1t65kJh339ECQsDyDEwgma/MZXCPazI770/Gz35V50WXbzIr6+kZyyH0DdXeZWWHWbO345zHs6vBIwnv0vrxtjRoK9yVIYop0Mz3Mh7/mnlViOKfqQRFmNpI5dhOYVxgXGhULgP7hwXSxr3a5HyiLxgBQ3pyMZULKe768aQ3aCvKEc1pvJDM8jNez6dLhNqo9xsgI7Fi8Z+JJS6fhHFHC7ig1B+m1Y905HCV2u8gJqc1+i74VY0bEUe3678KM12b690TPnddTTGbhB9VScMW3R40/zTZSy4XMhy3K+kHIW8gFYM6cjGx12riH4cYUFjeWWqTQSVtHGsBT2z6ja/kFMln6L1Y8gq+GNKU+ZBKWWsmkxRK5KpMnU9LYo5TEW8MHR71TPUMXw1FRetpzFWwfQx34CkGatoctQKSq6o6ZMtoFYMJcvBMbU2KN41mVzcZtOxB02xgTpyKvhuOFkNW0F5vJLo6Gx3as8tXrT4GpeoXSzHEX851seKIdSR+WexPJ9WDLWkwTE1bYpp12QXcpt9TGXfLjR2w13lkZJ1L1BHp+l0oIJtyG/Rt8PMafR69UmA07FmW0iEdMjOXD/GioI/TuMnN2kGrZocRSvO1kw+WnRYJXw9TUgS3qIejq/RLi7PVR2nuR6BtDiFt119dCxeHC1p9NpC3kfvb6UJjj707lnOD1X+JeQXlam0flEMHeaVwMJiFT3TMZxWFwvoILmitk95/goaajmYYuqUQJNd3Gj2sQdN0oE68mvLaGD7vrQ0V9WnBoTsVlTwHQ23GkYreCdkoTqb3NvzixdhWzdGdvlzCrMdTWuuc5KzvLFuMS0/eoekWuKdW7zYTNjGvJujio7P9aCeC/hFaNm2CeTU7/8oq1J3XFfU+C2bSAVjQBP/iRytqTyC1sWLnj4g4JsXcpvhX/ouXoTyXK0e5VpinN+uhV2/6XNEY2Vq9olzdEFo3tIzFwr6vuwyfR5mS6PXXFfGuCR1HS1efpTu8OGjkRa950V6OR25tsEIceQ/ZO4QNgRBZkKfSamQZSE5vRgpMeHwdHeHu7s/pm8rxJWMDNUJeiDX0YehPTw9zZQvDcw7w0JZTrwaWcnpKE6JQbgn18Yd/tO3ofBKBjK4r9A1tmnGnVMa+zFCz1HjYX/+Y0we+yxCfXpjYbwECrmOm6pkl5CaY4M+wQ78zUqmwRgQYKr8KE6WlYz04hTEhHsqZXH3n45thVeQwQsDe09PKEdhYI7OFnwp+KZRjey0bJgH9YO78vHkRvCa+TM2zPZDu56jMN7+PD6ePBbPhvqg98J4SBRyPMxOQ7Z5EPrxDWDkNRM/b5it9nhzKTJTcuDQbxCcVd9LWAweBN+iDKRyN/g1ywasz9Qc2PQJhgOvJAQPCIDymxAdvmZo7wn+cgYw72zBl2uXZCIlxwH9BjmrvjqxwOBBvijKSFVu8WNU1otHm44d0d7RFW5c7VKDjujQniCTyZXH6tBsCxMBHcqqs5GWbY6gfu5M4wwjL8z8eQNm+9Z8kaNDh02wvUnQyxjb6QB+21eChyc340DncXi5ZzOeRW/sjf4DrXkfNe+HsB7XcDGt7r6UaiG/aNcTo8bb4/zHkzH22VD49F6IeGZv+UMBHag9J1+amYIch34YVKcEDPItQkYqdzNv8/zfoH17tG1VhYda7lkQstujzFTk2PRBMO+ELFQHIED1dZygrZVH62Po+gImhaVidndbeA6MwpqiPhgeZAWFrnh36QbODbmvLkIjx8Bg92ack5Rg35Z4uL8UAfca99ES17XaleqIAX14Ejm6SejnA0K+6Z3d8v5Vi848pyvG1WC2at4coY6QT/SBn7Z5S49cKOj7hq54YVIYUmd3h63nQEStKUKf4UGw4sNHI1oONZ1WJq1hLJWgulaf3Cc7/Ctl2HKf9Ci3gKrqatVrQxgZWWH0siM4ceKE8i8hJRd5v0Yqj+qHrj4MYFAbrDzcuAyNjGA1ehmOqNqcSEhBbt6viFTqX3ObxvAJiS0Elf9y9w5UV6ufqKEfeQHWTRqOBfFtEBQxD19vP47Phmj9do+nlTFaG0khqVUwQa5QvTY0gpHVaCw7opLlRAJScvPwKy8MDPQTRiuGhgaQVktVW9zXnAXIu/cQBesmYfiCeLQJisC8r7fj+GdD+O8qDQ1hIK1moadCUYqCvHv1bpw1NuYDvdZlJFXMmQ3Zfm5DXxuo0womrY0gZYmvVktyheq1Dj8xMGBnqMP5qzGMGyQTSRUbr6FygAxDTvV1tGql8ghhGttCLqxDrn8DKerUrkBpQR7uqSlRuw6bYHsjP7w8zgFHN2/Fzk1HYP9iBLo3aMqjw+eJ01fdsapqI7RpW6MvhoBfPCxYh0nDFyC+TRAi5n2N7cc/Ax8WunXACatcbNYpAVVsw1ClhGb5v1kf9HG7gsSz9+t0y1F1DO8N+QeWJlYJ2o3LhUbquZDZmA9VhRZba8DQE1Njs5B3bj3eCbfD1dUT8Owb+1CpI95bMV+uwSTgnxjXYR+27N+BP0774uXxjvUSv+a4rqdcHTGgD08iRzeAn2TqTFtVDXW31MsHhHLWY/qX8PzHoTvP6YrxWlqZNHuOUEejT9y5omPe0pULtfm+ITynxiIr7xzWvxMOu6urMeHZN7BPyyK1RRcvJr6DEFrB3rkdu8eGKUfh7m04+YC3Qiu2Emt76ypyK9iG4haOxF3kHcTEG32D5IjfeRYyK1vYWhsg8ctovPlbLne0MUyphsyyCnXjsnd6TepDiQm8+wZBHr8TZ2VWsLVl7xQTv0T0m78ht0m/KmuFjh3b4tbVXPCiHUHcxTqja0Sag6R0Q/SftgizIkbAD0ewP6marUx1XNjYH4NDK3Bw80kUM3+U39iB7acqlUFg4t0XQfJ47Dwrg5WtLawNEvFl9Jv4TaswLFANWUDVU6YQJvAK6w3Z8a04qvzpXwVOfxqOfvN2IzUpHYb9p2HRrAiM8AOO7E9CNZPFwDMMvWXHsfUo5w+sxelPEd5vHvaVKztkGMO3fwDu79mAY8o+HyJ97SZccAtDaBdtrlmF4sJbKNH45sYE/oNDUXFwM07ySsKO7af4X0w01dc4jH3RP+A+9mw4Bn6I6Vi76QLcwkL54y2CFDkCOpQZeSGstwzHtx7lr19xGp+G98O8AzU/1m2uDjVhhB4R49H9xIdYcLAbXnyx5p12Q3T4vCwN+3ZksfQOVF78Fduy/DEwtC1/jGHipdkvdqcmId2wP6YtmoUIXglIqmY6MPDUrIM6R2Jm6o+A+3uwQZl7ODOtxaYLbggL7cKfIEBVcSFuaXYkpg4fTJoWgvNfLMDv2Sp9y+/g+Cfv46dCd/TxaiVoNwPfwSwXHsTmk8XKXHhjx3acUjqhFltzA29A9bl/IajnHCTah+O1d2OwcqY/ygoLIWtKvDMfevlFGxxYtBQXgl7GaBt1vxCK632oC9MmxsBflaNbdUTHtrdwlZ9kcOtIHHSl4oYI+eZh1+b5Vw2C8582avXYhBg3aYk5QsAn3tyIM82Zt2rR4vtV5/CvoJ6Yk2iP8NfeRczKmfAvK0QhCzuhGG3RxQvMnsen345AUrQfvP19MDjmMkxUVzDpE4kp7gfxmq8f/HoMxS9SN3RWHjPDqCXLEZ41BwEegejt5YepcXZ4YWQPZbtGtOsOT5tjWDhwKjbc4BTL0cQ+VJiNWoLl4VmYE+CBwN5e8JsaB7sXRqKH+upRJyboEzkF7gdfg6+fH3oM/QVSt87aFdu6DyIiHbF/si8Cg/3Qa/xumPna4lZenuoEITrguSXL0P/PKPj09If30FW404W/g5sJgyXLw5E1JwAegb3h5TcVcXYvYKRWYdqhu6cNji0ciKkbbqj2CWM68kMsG5KIyb7e6M3+Ig4G4N8fjMPAiEg47p8M38Bg+PUaj91mvrC9lYe8NiPx4bIhSGRyevdmfxEHEfDvD/B8B1WHTEuWL32Or0L/xKs+PRDg2wPDvjfFglVvw1/bsKv2Yo5vX7yfoHnS6fDcEizr/yeifHrC33soVt3pgra8kpruJwaWeOnzrxD656vw6REA3x7D8L3pAqx62191QkvQGn2EdCgzxcgPl2FIIjvm3Zv9ReBgwL/xwXPtVG2bqUMBDN3G46VepSj3fwlj7YW8WIfPG9qj1cEI+AWwPDBiA+yWfI1pLmrLIFPNfjFuYAQiHfcz/wpEsF8vjN9tBl/bW8jLa6NZB3WOxMz0Ej7/KhR/vuqDHgG+6DHse5guWIW3tTsSDr4ZgOB3j6u2G2KIbtPXYO1Lt/FBiAs8egfBz9ULL+3uhk82f4rB7bXYre1zWLKsP/6M8kFPf28MXXUHXZROqM3W/FXVMQmMxCyfY5jIfDkkpBf6xigwd/44WDYp3g3hxhalTjceYMA/R6Gzam8NmuP6eZZtVDQ1Bv6qHG3SB5FT3HHwNV/4+fXA0F+kcOMnGf0R8M3RLs3xrzqE5z8t1OpxOg6EfqZnjLfMHKHRJz78f5jQrHmrBi2+bxCIyFk+ODaRxUtICHr1jYFi7nyMs9QSo8o7X1qaR3coN6eQKktrbphS7ScJ3b+aTpdu8b9nqE8lFWYmUVJGAZVruUmHQ16aTxeTL9OdhjcrNaEPdSoLMykpKYMKmtKoIZL7dDX9EmkUTSMyKs1Po9TLt6myqZeVldK19DTKK1HdeKVOZSFlJiVRRkE5f1OVLuSllH8xmS43VqYAciovyKDUzJtUpnZ5GbNJWupluq1BGHl5AWWkZtJN9Qb1YH3ezKCUtHwq4e+T04GULn4aTR9xP4MQhOn3Wjql5ZWobhBUpxl+Ii+nmxkplJZfwt80+gTQpkPu+gUZqZR5s0yDPBxN1aEQxfR7RHd66bf7qm0taPX5CirIzKRrgjYX8Avm2/lpqXT5dmVj/9WpA+6Um5SRkkb5j6eERsgrCulS8nlKuXyn0S8gtNlNVnqN0tPyqGGoarV1I6RUwnJFUgrLeQ0v3tR4F0RzXNejCTHwV+Zoyf2rlH7pFrtS8xHKWU3yr6p9NMVJ7QZirfOfZurrsQkx3iJzhCafeIx5S4U235eWsGNJKWw+aujojXmyVaXL1+J5xz/wQv5eRJur9omIPC7ybOxYfw1BE5+BXRPfWIkII8ncgzXbf8cPf3TBsoTlGNxedUBERKRpVKZi+6ovsfjLR3gvKxb/1HSPjshj8WRTf9tQzPjqdfSt+YRbRKQlMOyO0a+JC5eWxpDKUFjiiXc3cF+JqHaKiIg0GUXZXVy9bYOo1Z9jnLhweSI82U9eRERERERERERaGPG9q4iIiIiIiMhThbh4EREREREREXmqeDKLl//GEvJ6UYUb1+8onwPwOOXk/26UX9iMr388gmsNHxb7l9L0Uu/CNmmBsvFVN3BdWbtejutxP2F9AvfkTTluHV+B+dOm4M2fD+DQT+uR0JIOIb+OuEZ9SpC58xus2pvNpGp5/qN+rVE+Hciv4fDqX3Fa+XyK+tQbe629mo5GHUgysfObVdib/SS0rgV5Hg78sBFnuId6iDxB6nK7yN+DFl+8/NeWkNeDB5snImxeHHNzNL+c/N8N+RX8vOB9xBt1g4PmJ5b9RTS91LuwTR63bPwDbJ4YhnnK2vWkrDKbnF/Juj2CDycuRYZNKPp5GuNKYjLyW9IhiKvkWr9PxZ0tWDx/Jx45OkGoZu7j8B/1a1kutv3fchwsbMKUIctC7L+X49Dtxm3qxq5ur6bTWAcK3NmyGPN3PoKj05PQuhaklxD72UrE3flPGOR/F/XcLvL3wPBDhup1C/DXl5DXVDafSy5PrIx3DZX5OLtlDdbmWiAswAPdujrUKyevqRS8gkuCOVVoW3oGW7ceQVq5BVxZvzXpT2P5eD3R1TePlnLuqvLylRYWcPCLwKsjTHG1Xnn5NrifEItt8XkwdHSHtSQdezZtR8INEzgxHfIPhROQuyQb53LLUJmxD3uSq2HX3Q7t9Sz3/lil3huU+G9aX8K6qsw/iy1r1iLXIgwBHl3R1cEWDl0tUHFpF9b/cgu9Xp+AkQE+cHNyhLOLA8y5S2gsN6/NzzSV6W8Nc2XJfVWfEqbDrQeRaxWEAYFe6MbpsMbHG5XcV3aqGWWbbDwyvov4LTtw6qYxHNxs0J57q6OuQ8ES9hLcOLMTsbtP4pKusvvakOdh36rDaDtyIBTx23AkswIW3ZxhoRq7Rl2xxfaeb4/C9B8hKI/bi6S7JrBzsUI7tbFbyS5jh5q9rDuwyUlTflCiQe8N/Ehyg8XYwVxYBQ1AoFc3Pk6boncZ84VdW7CT+UKd72uJTXVkOdi18gQsoiZjgKWB3nmy4soxle9bo0tlJvJltrAy1f5eVq98JOgTesSnkqbFHo+m2NCORlmEbCatn9udTW41yl9ty/XTu0gLwv3aqMX4i0vIay6bL3+CZbzrkOVvpJkB1mRsF0DPfbBfrZIwU4tAKXjuHFcXbwoJG0PTX4+kENvONHjZJeUDuATLx6sjWEWVE0247zq0lHPXUV6+q0cQhYyJpugR3alTz5H0/OChFDUrmoY4d6IBX2QqmwjKfWAadbV2oqDhE2nCpKV0+q5+5d4ft9S7uk2a3peQriSUv3EmBVgbk13Ac/TB/nvsPDcKWLSJVk4IJDtjK+r1zKu04kxNFWh2cY3l5su1+JlAmf6air1KgQR0qPRxDSX3GypXHVVcdPf1p/DJU2msnzU5R2ygPNamTodCJexLKf79ELJxHkATZkyhUT2tyT1yo7KtOo/iXie3bjPpsOp5XVxFay+fd+iMeoFbZaXaTmTvGUgjX5uhHHuXocspi/UlqCuukm/XTmTr6kf/iJ5KY/ysqOv4dWpjX0R716vbq1Q4PwjovUjdj+LfpxAbZxowYQZNGdWTrN0jaSN/Mf30Xnmelg5xpG6DXqVZ08dRoIMHTdx0jViUCMemOmpxqm+eLGG+7898fziz7fhgX/J07ULPcUlDSz7RKx8x62v2Cf3is+mxx41Ts43uCVVxZq8FZRGwWfqVBrm9Qf5KuKqf3kValhZdvPy1JeSFyuZXUuqTKuPNbapR9OMIshi7Uflkx9okL7krWAqeO8fFchzx1dDlVLBiCHVkAVYsF25TDx2LF419K0+sgUsKAuXctS5eXKjL2A2k1FrJOnqhoxNN55VGt74dRuaj17OXWuTmgt9mAm1T1uzXs9x7C5R6r7NJc/oqE9YV2/PjCAsau1FpeXYeW7x8kMyy5EYaa/EMrbrNrsL5mmqhobncfDJVCvmZQJn+5IqaPtkCSkiHDzgfFyi5L4QyLizp+Z9v8vop3kGTnLxpAdNnrQ6rNJewv3V1BQ21HEwxdQOhyS5uNLth7X5JAr3Vw5Fe28U5QRUdn+tBgYtT6id8VXyOWX9HOQ757e/pWfNwWn1fS07gFi+OljR6bSE/9vtbaYKjD717Vm3sUnV7SYTzg4Dezx6q8aN8WjHUkgbH1Ph4Me2a7EJus4/V6lC73uV0d90Yshv0Va3dyg/NIDfv+XRaoiU21VGLU73ylPw6rXzGkoZ8c5Ufc9lh5kPtWL9aFi/39cxHMgGfuK1ffDYr9gRsdGaXwOJFW27VYrN6ub1e/tLii8qjIk+KFr3n5S8tIV8tVDa/HXo+qTLeylY6kGkvBW9o7wm+GroBzDtb8JVLq3WUj9cTjX03uhWgOeXc+TZKrbXpiI7tHeHKKw0dO7QHcYW6dMrtgm7Kmv16lntvkVLvKprd12OWvlciVG7eD+0E/OyhQJl+v9qSJDp0qLPkvgaMfTBkmC2vH4sB6Ot1AxfT1O5aEyhhb5GVghyHfhhUNxAM8i1CRip3A7MaJkF4eWwnHPhtH0oensTmA50x7uWefOyqY+gArx6dlOMw6NAJFsYsv1QqtMeksTf6D7Tmx27eD2E9rrGxC5WnNRHMD9UCevetufeL+VFKjgP6DaopYGmBwYN8UZSRqtzSrXcZspLTUZwSg3BPLkbc4T99GwqvZIB33ab5m155SnoZ6bm2CA5x5MfcIQxDgsw0fkVbi45YrkXAJzpl6xefzYk9nTZqiC5Z9IyVuvylp95FWhxlfLcYf2kJeYGy+Q8LnmAZb33QUQrewIBPIrVwZdN1lY9XoRyocAl4zX03RmM5dx19G9ZXGqe2BuiQoZVBrfPpVe69hUq9K3mMvvQqq68DjeXm7z0U9jOhMv2qTQ7tOmS6bvKwFUwnNS+rmPkNYGKsni40l7A/IDNusEiWoIptGDaq3W8Ev5fHweHoZmzduQlH7F9ERPcGg1TCxt5gRUO6YpK4CafWcdnYjdCmbcPrq1BoyQ869W4M4waTm6SK2cCw5lq69W5oZASr0ctwRBUjJxJSkJv3K2pcV39/0zNPcb5vrO77XJeqPgVjXs98JOAT+5n+9YrP5sSegI2USzx2vE6UatVrXbLoGSu1+etx5weR5tKyi5e/soS8iZfmsvm7U5H0pMp4q1+fYci8nkhRGzBKTJpRCl7fNi1QAl6Qx+1bb7n1LPfeIqXeVbRkX0pYAjVkiVKhKcs1RKDc/LzdSBWKDU/NZfr3lSs7ZDShZH49qlBceAsaqs0zt0/B7j8ylRN1VeZGbLvEdNavroozqjWXsL/j1h8B9/dgwzF+rA/T12LTBTeEhXbh26lh1CMC47ufwIcLDqLbiy/WfmqkGx0xKUvDvh1Zygms8uKv2Jblj4GhbZUtedTsJc0RzA8mXpr1fkCV2mDsi/4B97FnwzE+5zxMx9pNF+AWFsof14kJvPsGQR6/E2dlVrC1tYZB4peIfvM3aHU3jeibJ30xiPn+gd/4McsLd2PbyQd8zhKKeX1jWcAn7jnrF1PNiT1BGxl1RNtbV8GLcgtH4i7yC5zm5GOGxtyuRLveq4oLcUtjgIk8Li27eGFJ4a8rIW+quWz+uIGIeFJlvBvEVLvunrA5thADp25Q7eFoTil4Pdu0RAl4IR67b33lNoDlS5/rUe69ZUq987RkXxzt0N3TBscWDsTUDTdU+4TRWG7+g3EYKORnbTSX6X++di2hrw4bULUXc3z74v0EDcm1VTvc+/1F9PLzQ49hP8D8vRhMc1NbXZhoLmE/vsdL+PyrUPz5qg96BPiytt/DdMEqvK1pIIZuGP9SL5SW++OlsfZNSEY6YtLQHq0ORsAvwA/eIzbAbsnXmOaivjJSs9cWW+H8YKpZ78/V1GozsMRLn3+F0D9fhU+PAPj2GIbvTRdg1dv+qhN0YzZqCZaHZ2FOgAcCe3vBb2oc7F4YCa3uphF985QZnv/0W4xIioaftz98BsfgsolK84Ixr28+0uwT41z1jKnmxJ6AjcYNjMQU94N4zdcPfj2G4hepG/j01Zx8LJTbObTpvQoH3wxA8LvHVeeKtCj8rS8tz19WQl5j2fwnW8a7Djm7zkVKZjI3pjml4PVr0xIl4IV4/L71lVvPcu8tUupdRUv2JS+l/IvJdJmvXa8HmsrNa/czoTL9dTShZL4SKV38NJo+4n42o07NzcVJJSyW0uhKUf0bK9URKmEvL79JGSlplK9jIMW/R1D3l36j+6rtpqA9JiuoIDOTrgnpqp69tOcHnXpnOedmRgql5ZfUv+G4CVQWZlJSUgYV6J8cNKJ3nmRZ+U5uDhVWltIvo8z4G3ZVCMe8frEs5BN6x1RTY4+h2UYSun81nS7d0pS9mpqPteX2puhdpKUQCzOKiPyvIs/GjvXXEDSxQYVuyVG83nM+Ov9xFkvq7gpuWSSZ2LNmO37/4Q90WZaA5WIZ67+Icqx93hF/vJCPvdHmqn0iIn9/xMWLiIhIfRSFOLnpFNoMH4s+LfU1ZENkGfjto19wxXsi3nzZB6aq3SL/aWS4vG8drnSbgJGeuh7tJiLy90FcvIiIiIiIiIg8VTyht1UiIiIiIiIiIk8GcfEiIiIiIiIi8lQhLl5EREREREREnirExYuIiIiIiIjIU4W4eBERERERERF5qhAXLyIiIiIiIiJPFeLiRUREREREROSpQly8iIiIiIiIiDxViIsXERERERERkacKcfEiIiIiIiIi8lQhLl5EREREREREnirExYuIiIiIiIjIU4W4eBERERERERF5qmjhxUspEn+LwRdffIEvvvwSXy1biZ/+iMeVcoXqePOQ5x3ADxvPoPjxunlsJBnbsXzVXmRXq3bUoxoZ277B9gwZG/B1xP20Hgl3/+IB/12pzsC2b7aDU9UTofwCNn/9I45ck6t2/M140vLrouoGrt8R8k058g58h+WxqartJiDPw4EfNuLMXx2oWpBfO4zVv57Gvf+q0ORs9gM2nimuZwP59Tj8tD4BjdOQWq56LOS4HvcT1ifcxX9CncLy/DdRp1Nh1O0tPNdUZ2zDN9sz0BQrN6cNHuYjfu1nmD9rCqbOXYxVB6/goeqQ3jQjJ7bs4kV+H8dXvY+fTt7G/aIi3CvMRsJP0xDS60V8lyFRndR0pJdi8dnKONwh1Y6/AsVtbF78DvZInOBkotpXDwkS1y7G2vNVAJUiNzEZ+ZV/5YD/xkgSsXbxWnCqannkuPLzArwfb4RuDoaqfX8znqj8uniAzRPDMC9O4OIPDuDTN3/BHZtuqh1NQHoJsZ+tRNxfGqjakWXF4t/LD+H2f9UEKMWl2M+wMu5OPRtQaS4Sk/PROA2p5arHQobcbf+H5QcL/yOLF2F5/psglOYmIjm/UrWtCTV7a5lrJIlrsXjteTTFyk1to7i1C7P7hmFa7F108Q1DH/v7+GNKKJ756BQqVOfoRTNyouGHDNXrx4dKcGrtalT8cyfWzH8Ow54Nx+gJE9An/wvMXN8KL0YGw4JbLslu4/yuLdgZn4kHpk5w7tIGrfgeNCLL2YWVJywQNXkALFl7yY0z2Bm7GycvPYCpkzO6tOFaK/Dg8lHs2HEIp7PLYebkgk6t+fYaUXBGz0FVm/tIiN2G+DxDOLpbQ5K+B5u2J+CGiRPcrduqxiXD7fPbcCDHCn36B8CrWxcoL8moyD2K2K1xyJJ2xqOTq5HtNQ+v+HWAubUDnF0cYM4WOtW3z2Nv7C7EZ5bBzIWNS7X40SwHG9qDyzi6YwcOnc5GuZkTXLQJoniAy0d3YMeh08guN4OTSyfUnC1j1921ZSe7bv3+hai8cgxbtx5GemUnWEpzcKWyC2w6lOHy2Sw87GQLM2N2kvwO0k/lQWFvDVNmC8WDbBzftR37j19g56uuryhB9rlclFVmYN+eZFTbdYdd+4fIPRqLrXFZkHZ+hJOrs+E17xX4mTC7ZR/Hru37cfzCFVTqkFfBJbCcKrQtPcPGegRp5RZwZdc0YfYvvnwWWZUWsHDwQ8SrI2B69RTyFPawlF1VtmlzPwGx2+KRZ+jIbCtB+p5N2J5wAyZO7rBuq7K0Jp1plEeKG2d2Inb3SVx6YAon5zqf0EyFgPzsUBPioUZ+fWTRZBtZ/llsWbMWuRZhCPBwgMmt88gtq0TGvj1IrrZDd+NiFDm9gCkjXaHsppqNbW8sdrGxlZm5MNsY8Xp+2Am2vEPgTjqvZ+s2V7Br5QlYRE3GAEu2DmqCXetRE5ttS3Fm61YcSSuHhauOuNEznhVX9uDbo6b4R0g54vYm4a6JHVys2rF3cQqUZJ+rp4sedu31j6Gq60g+cwMGDlYwVZ6iwL3M07gitYZ1B4FFNIvd7OO7sH3/cVy4UqnKWQrl5JX9yBh347dgx6mbMHZwg037mveZXC7ahS0745FZ63cy5OxaiRMWUZgSVlpnAwcLWDs4w8XBnMWHUK5iRyQ3cGZnLHafvKRXPq5Djrx9q3C47UgMVMRj25FMVFh0g7NFraE09KtJz201+oqiJBvncstQmbEPe5KrYefjhW6OdfII5c9GNMc2GvXMdmvMt82xGX9E09zQ2twaDs4usOMmD40+ombvAWyOUZtrmJFxNHYr4rKk6PzoJFZne2HeK34w0dgPPwbBNqrDwjBfmzsKX1vEIOGPtzCijz8C+/0D40PuYdW87TCNehkBHZjFNc0RyvbCOVG4jRrUkshyaWnfDvTcmlLVDh5Z7v9RWIfB9M11OVHleVo6xJG6DXqVZk0fR4EOHjRx0zViRwR5tDeauoZ8QpkyotL49ynExpkGTJhBU0b1JGv3SNqYJ6NHCQspwDGQIma/QVPDPcjK7z3685GqA01UxdEs167kERRCY6KjaUT3TtRz5PM0eGgUzYoeQs6dBtAX3AWpks4vHUKO3QbRq7Om07hAB/KYuImusQGXxr1NvtbdaUT0NIoI9SEHy3b0/Npyvm+3APogWUrlpz6ivjZdqV/UTJoy0oNsAhfSCXaKkBxMEFoY4EiBEbPpjanh5GHlR+8JCvKIEhYGkGNgBM1+YyqFe1iR33t/sr2cmpfSEMduNOjVWTR9XCA5eEykTdygBSiJm0/+TJbh0dPplTBPcrbvTAO+vMopn6K7htAnSl0wyn6hUWYj6acSIvnN3ynK1YGCX5lDb82Nor725hS0JImkVQdoWldrcgoaThMnTKKlp+9S3Nu+ZN19BEVPi6BQHweybPc8rS2X083fo8jVIZhemfMWzY3qS/bmQbQkScpfSwNVcbPI1cWbQsLG0PTXIynEtjMNXnaJmAfQ3uiuFPJJJnvNUUa/jDKjkWygyjZdPSgoZAxFR4+g7p160sjnB9PQqFkUPcSZOg34QulbgjrTIE/8+yFk4zyAJsyYQqN6WpN75EbizKeZUgH52aEmxoO+smi2TSLlbpxJAdbGZBfwHH2w/x4dmNaVrJ2CaPjECTRp6WmSnHyTPH0W0BkJu1j5Kfqorw117RdFM6eMJA+bQFp44p6gnut8pbrJdq2HMjZdyDskjMZMf50iQ2yp8+BldIldUDBu9IznqgPTqGsnW3L1+wdFTx1DflZdafy6PCZLVSNdNCmGHsXR627daObhSn5bkkBvefnQO0pFakB+k36PciWH4FdozltzKaqvPZkHLaEkaRXFzXKlrt19yT98Mk0d60fWzhG0QelcQrmozvfV45XzFbeAD4ilIeFcVRpP74fYkPOACTRjyijqae1OkRs5fegDN1YX6mTvSYEjX6MZkSFk22UoLc9SGkqg34Z6ThD0FaWtrJ0oaPhEmjBpKcUfUJNHyA800VTbaNGz5nzbHJtx4aVpbuD6cqOAD5K1+IiavdXmGmZketvXmrqPiKZpEaHk42BJ7Z5fS+WC/bDhCbVR6kEHlVsp0sqJZhyuUu2oQUKPHvG2EJwjtORE4Tb1+Y8sXqjyd3rRvAfNP/2I7q4bQ3aDvqIclZ+VH5pBbt7z6bSQHzFqFy/V+bRiqCUNjslRBVcx7ZrsQm6zj9Dlz8PIdvQaus5JKEmldYuX09E7wpO10uguXWjshrvKzZJ1L1BHp+l0oIJtyG/Rt8PMafT6cpLfXUdj7AbRV3UDphlu3jQ/IY++G25Fw1bk8RNN+VGa7d6+weLlNq0fY0XBH6fxipdm0KrJUbTiQq6AHMdIdvlzCrMdTWt4QSh13WJafvSO5slMdpk+D7Ol0WuuK/uXpK6jxcuP0h3pXVo3xo4GfVXTfzkdmuFG3vNPK7caIc+n5UNsaOQP1/nrVCXSIt921F/H4kWSup4WxRymImUjOd1e9Qx1DF9NxVXcZG9DE7bxISAv+I6GWw2jFXm8FOVHZ5N7e85RmXzrF1HM4SL+uvLbtOqZjhS+ulh5nia4hOxiOY5+LeK25FSwYgh1HPkT06D2xYtLl7HEm7qE1r3QkZymHyDe1N/SMPPRtP6BFp01lCd/BQ21HEwxNT5RvIsmu7jR7GMNg5hHWH55k+NBL1nYMAVtQ0X04wgLGruRS+T8RGIzYVttslJfvBStH0NWwR9TGu+8lLFqMkWtOEO7dC5eHjbZrvVQxqYljeONzPS3goZ0ZD5XJBT/x1RtdMczNyE6Wo6mtYW8Le5vnUCOPu/SWUkDXcibGEMsVhPe6kGOr+1Stq86Ppc8AhdTilJ3GmA5av2iGDrMG4ipaBU90zGcVhfzCwLL53+mm8pDxbRjkhN5LzgtnItOP9C+eJEUCOSqB5S/YihZDo6p9b/iXZPJxW02CbhyA/ixdhmznpSpltn5+2fNmZ3vaem3oc8J5wDl4sVmAqnCTk0eLX6gkabZRlDPf6Zpzrfy5tisUPPckFxRt3gR9BFNixcJFXw3nKyGrSA+zZTT0dnu1J5biAj2w/KnUBvlmdqRX1tGA9v3paW5Ktk0IJSHigRzonCbhtmj5nOtJ4ukEg9lbdGunQJZyekoTolBuKc73N3d4T99GwqvZCBD21d8NUgzkZLjgH6DnMF/2GeBwYN8UZSRDtcXJiEsdTa623piYNQaFPUZjiArHeIZ2sPT00L5sk3Hjmjv6Aq3NmzDoCM6tCfIZHLIspKRXpyCmHBP5Xjd/adjW+EVZFxMRmqODfoEO/A3DpkGY0CAaf2PW6XZSMs2R1A/dxhx20ZemPnzBsz2zhaQIxWGri9gUlgqZne3hefAKKwp6oPhQVaab04ydMULk8KQOrs7bD0HImpNEfoMD4KVIgvJ6cVIiQmHJzdmd39M31aIKxkZqoYNqE5DSrYjQvra8tdp7YN+fQSuqYZJz1EYb38eH08ei2dDfdB7YTwkCqYz7iDTrUs3Tpmc2VKRY9MHwQ58j6bBAxCg/PzWBD1HjYf9+Y8xeeyzCPXpjYXxEijk2u/aMrT3hKcZ98oA5p0tYFQtYddVHhJE2UZp6jbo2LE9HF3d2CvO1B3QnmSQSXTorJ48Kchx6IdBzqqPnC0GY5BvETJSNd9kJyy/rFnxoFMWuQ7b1MMQ9i7dlO3rU43stGyYB/WDO++88Jr5MzbM9lX5rDaaZ9d6KGNTaWQYmHeGhVE1JBXpgnGjRI945jD27o+B1rwtzPuFoce1i0hT6ltNF7ImxhCTOejlseh04DfsK3mIk5sPoPO4l9FTqTsNmPTEqPH2OP/xZIx9NhQ+vRcinjkxryJj+AwZBlvlEC0woK8XblxME85FupIny5uac5UUmSk5cOg3CHWuPAi+RRlI1fuuWEM4ePVAJ65jgw7oZGGMqoelOvpV9zntvmJo7wJV2NUhOA8I3WTeNNsI6jnLRnO+VSq1iTZLZT6naW7wUxuUVh9pCLNlag5s+gSDTzOmCB4QwH9NJtiPljZ6YNC+Pdq2qsLDh8I3IQnloUeCOVG4TUOx+ZZPmMozZ5Bh5otANyMYGhnBavQyHDlxAie4v4QU5Ob9ikg+5+jAGMZcElObqSRVzNENjWHoORWxWXk4t/4dhNtdxeoJz+KNfbpWRIZsPKqXHK1aNf6ul51gZDUay46oxnsiASm5efj1n53R2kgKSXXNWAhyRcOAZ/0bSFEtVW1y340W5OFelbAcTBBMjc1C3rn1eCfcDldXT8Czb+yDZkkM4Tk1Fll557D+nXDYXV2NCc++gX2VhjAyssLoZUdUYz6BhJRc5P0aqWrXgFZt0cbkIcprfxUmQ2VlFZOIoVQI9wkd9y+jqhrVytcKFKybhOEL4tEmKALzvt6O458NUfteshUMVN7VyqQ1jKQS1KlKDqWqFAVYN2k4FsS3QVDEPHy9/Tg+G6LHfRGs4/oTKBufynJsQa78lw0U1fxAeQyZTlQvOVoxW9dHl87q5IGxcYMFkwRVbMOQ7deEoPyMZsWDTll02aY+rWoFq4+hoQGkdc4LRWkB8u7xN94L6pmjuXathwEM6huZXVNL3CjRI54ZxNmudvhs/EZt0FbVRZ0umhhDDCO/lzHO4Sg2b92JTUfs8WJE9wZ+WoeiYB0mDV+A+DZBiJj3NbYf/wzqKlLIa2RUsCFWw8CEyw0CuUhX8mxlIpirjI2NUC1hOlRuMSRVzK8NORfXGwMDdaUzmG519VurZ12+0or5geplHbr8oDFNsY2wnrsI5Fu+WZNs9oqFwNyg2mTo8pH6tIJJayNIJdW1Oic2Hu61cD/CbfTCrA/6uF1B4tn79dtUHcN7Q/6BpYlVgnlIOCfqn7s0Z60WQ4Hyy1vx7gd7YD11Jp5tZwLvvkGQx+/EWZkVbG2tYZD4JaLf/A25+rwpM/ZF/4D72LPhGP9Tx4fpWLvpAtzCeuPcv4LQc04i7MNfw7sxKzHTvwyFhU3+wVYjTLz7Ikgej51nZbCytYW1QSK+jH4Tv133weDQChzcfFL5E275jR3YfqqSi9s6jL0Q1luG41uP8uOtOI1Pw/th3mFXATlCUX3uXwjqOQeJ9uF47d0YrJzpj7LCQs0/Pas+h38F9cScRHuEv/YuYlbOhH9ZIQpl3ugbJEf8zrOQWdnClr3LTPwyGm/+lqtq2IDWQRg5uBI7vo1FbpUcpYnf4vtDJbwsrTqiY9tbuJrL3TuuwK0jcbioDDgpcpLSYdh/GhbNisAIP+DI/iRUy9g7f04mNUz8ByO04iA2nyxmPchxY8d2nOLujpfmICndEP2nLcKsiBHwwxHsT6pm75D1cYaGtELHjm1x62oulCO9dQRx/ED1w0R/nRn79kfA/T3YcOyeMmgfpq/FpgtuCAvtwp/QAEH52TvCx4oHQbTZxpAtCthiT1HPUzVgAi8WV7LjW3GUd16c/jQc/eYdgJEuPcu027WquBC3Sprx60PB+A/lj+uJLG0fdmRx16/ExV+3Ict/IELb8sdqaYI/1GLUAxHju+PEhwtwsNuLeLHmYwcNSHOSkG7YH9MWzUIEbyAkVTP7KINHipTdfyCTm8iqMrFx2yX4D+4nnIt0OYuJv0CuMoZv/wDc37MBx3iFIn3tJlxwC0NoFzY1VBWj8FYJ30eT0NGvOs3JAc3xgybYRlDPl05pzrfK5NxEm13vrnlu2FfOdaZEu480xIRdLxQVBzfjJG9k7Nh+SvnLLOF+jATbcOiMUyMfTJoWgvNfLMDv2aoZSn4Hxz95Hz8VuqOPVyvBPGTgK5QT9Z9XnsDiRYJDc13QqVNndO7UBa7D/43CUb9g+/t9lKsns1FLsDw8C3MCPBDY2wt+U+Ng98JI9GiweNeIgSVe+vwrhP75Knx6BMC3xzB8b7oAq94OQmDkLPgcmwifniEI6dUXMYq5mD/OUtXwMTAbhSXLw5E1JwAegb3h5TcVcXYvYGQPCzy3ZBn6/xnFrukP76GrcKdLza+TajDFyA+XYUjiZPh692Z/ETgY8G98MNpFQA5/mARGYpbPMUz06YmQkF7oG6PA3PnjoFESk0BEzvLBsYk+6BkSgl59Y6CYOx/jLM0waslyhGfNQYBHIHp7+WFqnB1eGNlD1bAhHTDy0x/xStGHCLGxQq+Z59DG0QRGJibsGn0QOcUdB1/zhZ9fDwz9RQq3zpzbtEafiEg47meyBQbDr9d47Dbzhe2tPOQ1zDsdnsOSZf3xZxQbp783hq66gy7cT1la90FEpCP2T/ZFYLAfeo3fDTNfW9zKy1M1bAom6BM5Be4HX4Ovnx96DP0FUrfOTXBw/XVmYPkSPv8qFH++6oMeAb7oMex7mC5Yhbf9BZxYSH7GY8WDINps0w7dPW1wbOFATN1wQ3W+ZkxHfohlQxIx2dcbvdlfxMEA/PuDcRioS8/MZ4TtWoW9c3zR9/0E/tymIBj//qoT9MPQvhUORvghwM8bIzbYYcnX0+DSaC5ragxxGMJt/EvoVVoO/5fGwl6L87XuE4FIx/1Mt4EI9uuF8bvN4Gt7C3nK4GmFdvd+x4u9/ODHZPzB/D3ETHPTkot0OUsHgVxlAMuXPsdXoX/iVZ8eCPDtgWHfm2LBqrfBuXLV3jnw7fu+qo+moL3fejQnBzTLD/S3jaCeewUL5FuuUVNtZq55bni+g3IIHNp9pDEdnluCZf3/RBSbO/y9h2LVnS7KXwxq60eoDRenB98MQPC7x5V9a8YQ3aavwdqXbuODEBd49A6Cn6sXXtrdDZ9s/hSD22vJQ22FcmIT5hXlnS9/AZWFmZSUlEEF5fwNO01CXk43M1IoLb+Ev9mpBmkJ5aclUcrlO8pf3LQolYWUmZREGQXl/I1lNchK6Vp6GuWVCN+0xI23ICOVMm+WqW4wUyEkB9sqyU+jpJTLdEcPQaQl+ZSWlEKXG51cSYWZSZSUUUDa1VxGyTs20p83VaOT36Tlg63opc11t21J7l+l9Eu3WI/1kZWya6deptuVuu0oK71G6Wl5VF9VMiplsqZevk16dKEbyX26mn6JbjUcqN7oqzPOfDcpIyWN8ksE7vxrgGb5eR4rHgQQtI28lPIvJjN/0eeuTDmVF2RQauZNKlMft049C9tVevFTiv4oWbXVDATjpglUFFBm5rX6MmlEf39QUvw7RXR/iX67r9rWBssd+WmpdPl2pVpOqfm1SRKVML2nXSmiRvduC+UiXQjmKmbjmxmUkpZP9VxZepE+jf5ItdEcBPptRDNzQFP9oCm24RDQc+N8+xg2E5obatDoI9pguryWTml5JfX709qPQJsmIK8opEvJ5zXOvdrmCKGcqM+80or7n2odI/I/iwQn3w7AK6f7YdbLPYHMWPwQ545vEn7EC9yDdUREWgw5snesx7WgiXjG7r/JtyTI3LMG23//AX90WYaE5YPRXnWkaUhw9PWemN/5D5xd4lfv3qb/NPLsHVh/LQivPWOn2vO00lK2EeLvY7P/JcTFiwhPdQFO/voLdqUWwdDGD6MmRqGvnRiGIiL6IUPGbx/hlyvemPjmy/AxVe1uMgoUntyEU22GY2yfpnztKSJMS9lGCNFmfwXi4kVERERERETkqUJcJIqIiIiIiIg8VYiLFxEREREREZGnCnHxIiIiIiIiIvJU8V+0eJHjetxPWJ+g+RHtNcjzDuCHjWdQrBA+vzpjG77ZntHoccRaqc7Atm+2I0OwURVuXL+jfCCPPuN8apBfR9xP65Gg4XHizdKjOlU3cP0O1299nclvHceK+dMw5c2fceBQC+tSozwSZO78Bqv2ZqNatefppxoZ277BdmGHfXy0+IZONLWVZGLnN6uwN/vxrFCZ8gdivvgCXzT8+/Jb7LvClxDQTkvqTo68Az9g45li1fZ/FknGdixftRdCKq2N4cexZVOojXn9kV87jNW/nuYf9qYnzWnzlyHPw4EfNuIM9yA5fSi/gM1f/4gj1/Tx5f8Eesx5zfCv/6LFCynLkifnay8JIL0Ui89WxuEOCZ8vSVyLxWvPs+VGE5AkYu3itTgv0OjB5okImxfH+tRvnE8NVIrcxGTk1zyWUY1m6bGWB9g8MQzz4rjW6jqT4MiHE7E0wwah/TxhfKWFdalBHsWdLVg8fyceOTpBd5n4pwUJEtcuxlohh20JtPiGThq1VeDOlsWYv/MRHJ0ezwqKRw9QfP8+7t+/i7PrP8JXu7JQpNwuRkVt3QBttKTupLgU+xlWxt1Rbf8HUdzG5sXvYI/ECUIqrY3hx7Gl3qjHvP7IsmLx7+WHcLsJCxEqycG55GvQUpbn74P0EmI/W4m4O/oMVo4rPy/A+/FG6OYg/BTh/yx6zHnN8C/DDxmq1y2EDLfP78KWnfHIfGAKJ+cuaKN8Yp8CDy4fxY4dh3A6uxxmTi7o1JrtLc1FYvYjGN+Nx5Ydp3DT2AFuNu1VqyqhvhjVt3F+byx2xWeizMwFLp1M0NrcGg7OLrAzZ5GoeIDs47uwff9xXLhSWXs9Wc4urDxhgajJA+BgoXZ+RS6Oxm5FXJYUnR+dxOpsL8x7xY9NVmzc2cexa/t+HL9wBZVmTuxaNZUWKpB7NBZb47Ig7fwIJ1dnw2veK/BrmAgq83F2yxqszbVAWIAHenR3rbuugIxKveRUoW3pGWzdegRp5RZwdemkmjy16KUBiuLLOJv1EJ1szcBV/pDfScepPAXsLWW4mpiDqralOLN1K46klcPClelINXbFg2wc37Ud+49fwJVKMzixa2uqL8E9EdHc2gHOLg5QiiOox6bJKc0/iy1r1iLXIgwBHl3R1cGW6cwJ7e6ex9b1v+BWr9cxYWQAfNyc4Firy2p2jb2I3cWuUWYGF5W+tMlSffs89sbuQnxmGcxcOPkbyCO5wfRzELlWQRgQ6IVuXdqgFfMJLhhzqtqi9MxWbD2ShnILV6UPNqYK15PP4IaBA6xUhccU9zJx+ooU1tYd6tVXefK24sxzFLFb45Al7YxHJ1cj22seXuEcVsbiadcW7GTx9MDUCc5KORksji4f3YEdh04ju1y9bw26VpQg+1wuyiozsG9PMqrtfODVzZHp0g64nojsR8a4G78FO07dhLGDG2za17x30mS3+naQ3GD+cTAXVkEDEOjVDV1452EJT1gvQrR2DMCQYcMwbNgAGCasxAW/r7H5s1fx7LCB8O5YgDM7Y7H75KX6emAI6o7zEU1tBHWnjgw5u1bihEUUpgywfMy+avyyDe4nxGJbfB4MHd1hLUnHnk3bkXDDBE7u1qonqHLxuA0HcqzQp38As5NaDtEYw8GwUo8LDflXicD4FQ8u4+iOHTh0Ohvl9XJoHZX1Yt4BJrfOI7esEhn79iC52g49bGQac7r8yh58e9QU/wgpR9zeJNw1sYOLVTvVHCKQv1ubwdrBGS725sI5von+JWO5ZNeWnSyXPICpk3OzfFRjLMtysGvlCVhETcYA7rlblVdwjPV1OL0SnSylyGG66GLTAWWXzyKr0gIWDn6IeHUETK+eQp7CHpayq1rmkgZo8TNN8ilKsnEutwyVGfuwJ/kB5OWFKGtjjy7teGeS3U5jOYzQjc152vO0hrwrEIe1cD+Vbjkq6fzSIeTYbRC9Oms6jQt0II+Jm+ianOhRwkIKcAykiNlv0NRwD7Lye4/+fMSXOXft2p18/cNp8tSx5GftTBEb8kimpS8qP0Uf9bWhrv2iaOaUkeRhE0gLTxTVlRKX36Tfo1zJIfgVmvPWXIrqa0/mQUsoScpVjI+mriGfUKas5qmI7PzSOHrb15q6j4imaRGh5ONgSe2UZcHldPP3KHJ1CKZX5rxFc6P6kr15EC3hOqJSinvbl6y7j6DoaREU6uNAlu34kt4NkeVvpJkB1mRsF0DPfbCz7rpaZFTqxcWbQsLG0PTXIynEtjMNXnZJu140UCcvv132yygyG/kTlXCl1F1dyDskjMZMf50iQ2yp8+BldImdJ7/5O0W5OlDwK3PorblR1NfenIKWJGl+imVtSXZ2VFCPTZUzna5snEkB1sZkF/AcfbD/nkpniZSycgIF2hmTVa9n6NUVZ+hQrS7L6dRHfcmmaz+KmjmFRnrYUODCE/RAiyzlpz6ivjZdqV/UTJoy0oNsAhfSiSJ1eeLp/RAbch4wgWZMGUU9rd0pciPnm5zvuJKLdwiFjZlOr0eGkG3nwbSMU14jHlHc627UbeZhpgUOrjy/F/m8c6bRUziftK1K494mX+vuNCJ6GkWE+pCDZTt6nnPYyvO0dIgjdRv0Ks2aPo4CHTxo4qZrzPsfUcLCAHIMjKDZb0ylcA8r8nvvT7ZXs67Lqw7QtK7W5BQ0nCZOmERL4w+odMmV+Xelrt19yT98Mk0d60fWzhG0IY8TVKivOjuUxr9PITbONGDCDJoyqidZu0fSRq6tFr3oxyOK/acl9VqUyOtL0N5adCfYRkh3DXlEe6O7UsgnmS3QF++XXT2CKGRMNEWP6E6deo6k5wcPpahZ0TTEuRMN+IJdR1sOEYph9TjXmH+16OJRAi0McKTAiNn0xtRw8rDyo/e45F8PGeU3iPkD07qStVMQDZ84gSZ9vlMwp1cdmEZdO9mSq98/KHrqGPKz6krj13F6E87fXBuX3h/SRamWHN8E/6o8v5SGOHajQa/OounjAsnBYyJt4hOc3n0IxvKjvRTdNYQ+4RJDSRzN92f2GR5N018JI09ne+o84Eu6KqvzI77rMvpllBmN/KlEIMdyc0lDhP1MSD6l7q2dKGj4RJow6ROKmexCfovOq/JPBe2Jdqbe/0rUmafr+ZeWOFSnRRcv8rvraIzdIPoqR3WZ8kM0w82b5p9+SJc/DyPb0WvoOieVJJXWLV5OR+8w4ZliXSyfp59v8rNv8Y5J5OS9gBJuCvUloaL1Y8gq+GNKU2pIShmrJlPUirN1CmL9r18UQ4eL+D7lt1fRMx3DaXWx+gRRs3i5QAXfDSerYSsoT3l6OR2d7U7tlZOuhFLXL6KYw0X8I5Xlt2nVMx0pnHUkL/iOhlsNoxV8Iyo/Opvc22tevHAU/TiCLMZuZGmjbtEkrC+JSi/j6Nci7oCcClYMoY5sIivS0kYTWidEF0sax1+AybOChnQcST8xHUlS19OimMPEq09Ot1c9Qx3DVxM71Jhap5MI6vFBM+QspiL6cYQFjd3ITflqC02mwY1jLeiZVbfZ2Wr7i9bTGKtg+ph3CpJmrKLJUSvo3AUhWYpo/RgrCv44jQ80aQatmhxFK84eqpUnf8VQshwcQzXDLt41mVzcZtOxKu66LmQ57lfWC0NeQCuGdGSJQqOGSJLwFvVwfI12cb5RdZzmegTS4hR+nOo8UVuxMX433IqGrchjZzHKj9Js9/ZsAn5Ad9eNIbtBX9XKWX5oBrl5z6fTDy/T52G2NHrNdaWOJKnraPHyo3TnrmZdJ1dwixcbmrBNFQS1vsEtXpi+nv+Z+DAvph2TnMh7wWlBuyVXqNpeyKUVQy1pcEyOKnkV0y6WIN1mH+P7F9CLfqgvXuTC9n4orDvBNpUCulN2oE7NpJPeAn3xftll7Aa6y22WrKMXOjrR9AMVbENOt74dRuaj12vJO4+Ec2GtLaUC+fcC5QqM/0ja5xRmO5rW8MmfUtctpuVH7/C6rEf9mOcWLzYTtrFRMLTkdG4CdbQcTWsL+WP3t04gR5936axEOH/XLV6Ez9Hbv+R3ad0YOxr0VY2PltOhGW7kPZ/5dxN8VDCWaxcv1ZS/fAjZjPyBrivPqaLERb7Urr/uxYvmHNsAmYCfSYXlUy5ebCZQbcgfn0sePRfQGW46KttGE5z60f9lVerM07XxrjXv8ts1tOg9L7KsZKQXpyAm3BPu7u5w95+ObYVXkJFRBdcXJiEsdTa623piYNQaFPUZjiAr/vLGPkMwzJZ/bTGgL7xuXERqilBfJchOy4Z5UD+4Kx8AawSvmT9jw2zfuo/gTXpi1Hh7nP94MsY+Gwqf3gsRL1FArvH+OhkyU3Ng0ycYDsohmCJ4QAD4T/hN0HPUeNif/xiTxz6LUJ/eWBgvgYJ1JM1MRY5NHwTzjWAaPAABqq8F9EVYX/x3g4b2nvA0414ZwLyzBYyqJajM1N6mSRjaw5O/AAzMO8NCVWbepOcojLc/j48nj8WzoT7ovTAeEoWcaUobUkE9NkdOtWr3elGdnYZs8yD0450CRl4z8fOG2ejjJyBLdTbSss0R1M+df5y3kRdm/rwBs31rvIjJk5IDh36DUFOA1mLwIPgWZSBVeVOZIew9PcEP2xydLYxQLdFcgdUk6GWM7XQAv+0rwcOTm3Gg8zi83LOJTy9+XFtJM5GaY4M+wQ78x+mmwRgQYIpW7Mys5HQUp8Qg3JPZhtnHf/o2FF7JQEaVK16YFIbU2d1h6zkQUWuK0Gd4EMxzNevaj9tk43Tp1ka5vz7G8BkyDHyYW2BAXy/cuJgmaDdlXxyyS0jJcUC/Qc6q+LbA4EG+KMpIVW4J6aXpaLF3QbqA7rS0ue+iUXeqlKcBlodapC/eLy24l206omN7R7i6cfYwQMcO7UFcdV7BeCzVkgtrqBbIv97IFhh/uukoTApLxezutvAcGIU1RX0wPMiK16VWmCwu3aD0Jh053di7PwZa8z2a9wtDj2sXkVYpnL/r0HGOPv4ly0JyejFSYsLhyenT3R/TtxXiSkYGf1xPH9Udy9VIS8mGY0hfVRy1hk+/Plp8qg69cqyh5ni3UmiXz9DeBTUh3zo0EmMMdmPzOQlK9m1BvPtLiHBXOQRDZ7zrzLt16CF2EzA0gpHVaCw7cgInTnB/CUjJzcOvkRYw9JyK2Kw8nFv/DsLtrmL1hGfxxj7VhMsMVDMsRVUVqg1MYGykpS9DA0ir68rwK0oLkHev7iYvRcE6TBq+APFtghAx72tsP/4ZhjT+ilVFK5i0NoJUUl07BpIr+NeKAqybNBwL4tsgKGIevt5+HJ+pOmpl0hpGUgmq6xpBUV+3utGiLyUGBnULMiUE0tWmAcq8w33CptwCqqqra19z5jeofwF2qgIF6yZh+IJ4tAmKwLyvt+P4Z0M0fL/eEC16bI6cqld6Y2gIA2k1c30VilIU5N3BFUFZDGFoIEWdGylQWpAHNTeCsTG/IKk1q6SKBbwh289vGjRWnupFA4z88PI4BxzdvBU7Nx2B/YsR6N6gKccTtVUrE7Q2kkJS57CQqxzWkMWa1ehlOKK0DftLSEFu3q+ItDCE59RYZOWdw/p3wmF3dTUmPPsG9ldr0vU91Y3ZrThzakTB/EH1ClVV1TAwYYrUaLeavjiMWS6on+wlVcwmhiojaNSL6kUTEbS3ibDuhH1Es+5qUp4mWqovQxZvdbRCq4bvqQTjsZNwDKshlH8Fx9/GE1Njs5B3bj3eCbfD1dUT8Owb+6DP261WKmfSldOJm4xrA4fNIUZt0NZQOH/XoiXH8+jjX4YwMrLC6GVHVPo8gYSUXOT9Gqk6rk8f+sRyK7RtY4KH5eW1OpZVVqJK2RdvZKrtmOmgWu0ieuVYIT/TIV8rJh//iq3AAvDPcR2wb8t+7PjjNHxfHg9H9XygM951590aWnTxYuLdF0HyeOw8K4OVrS2sDRLxZfSb+C33Ic79Kwg95yTCPvw1vBuzEjP9y1BY+FDZTpqyG39kcsOvQubGbbjkPxiD+gj1ZQCvsN6QHd+Ko8rfuVXg9Kfh6DfvAPjeWH85SUg37I9pi2YhYoQfcGQ/kqrZOw5ZwzDkMIb/4FBUHNyMk9xP0eQ3sGP7KShvepbmICndEP2nLcKsiBHwwxHsT6pm/chgwsYYWnEQm08WMyXLcWPHdpzScqe0IfNebrJRP0NYX43eN9fS1DatOnZE21tXkVvBNhS3cCTuYp3jaESKnKR0GPafhkWzIsCrLwnV3Ds2TeqrxURQj82RkwskA0MWYAphnapj4hWG3rLj2Hr0ntLpK05/ivB+b2LjGQFZjLwQ1luG41uP8j+XrDiNT8P7Yd6BGi8yhm//ANzfswHHlCc8RPraTbjgFobQLk0NGyP0iBiP7ic+xIKD3fDiizWfItTnidrKxB+DQytwcPNJ8ObZge2nKpk/msC7bxDk8TtxVmYFW1trGCR+ieg3f0Puw3P4V1BPzEm0R/hr7yJm5Uz4lxXiXldNup6HfeX8pTQjRcruP8CHeSY2brvE/KWfgN3U+jLqhf4B97FnwzHeTg/TsXbTBbiFhfLHBalCceEtlGj+MEwDWuxtFyigOy1tOp7XqDtVytOAUQv2pR3heDQQzoW1mAjk38NwFRh/76sfIajnHCTah+O1d2OwcqY/ygoL2RkNEY55XTldlrYPO7I4Y1fi4q/bkOU/EKFGwvm7Fi05Xm9MvNE3SI74nWchs7KFrbUBEr+Mxpu/5apO0Ad9Yrk1gkYORuWObxGbWwV5aSK+/f4QSpTqaoWOHdvi1tVcZhEufRxB3EXt2aMR1ZrjvVDWFPmM4PXyi7A5sAhLLwTh5dE29RYZOuO9CXm3RRcvMBuFJcvDkTUnAB6BveHlNxVxdi9gZI92CIycBZ9jE+HTMwQhvfoiRjEX88dZKpu1ancPv7/YC35+PTDsB3O8FzMNbp2E+jKC6cgPsWxIIib7eqM3+4s4GIB/f/Ac2il7YybuE4FIx/3seCCC/Xph/G4z+NreQl6eZofs8NwSLOv/J6J8esLfeyhW3enC35Hfug8iIh2xf7IvAoP90Gv8bpj52uJWXh7XCEuW9cefUT7o6e+NoavuoAt/G79G2nX3hM2xhRg4daNqD0NQX+rvnBrQxDYmfSIxxf0gXvP1g1+PofhF6obOWq3eGn0iIuG4fzJ8A4Ph12s8dpv5wvZWHgTUV4ugHpsjJ7Nmd08bHFs4EFM33FDt04LpSHy4bAgSma28e7O/iIMI+PeH+H8ThGQxxcgPl2FIIjvm3Zv9ReBgwL/xwXM1XmQAy5c+x1ehf+JVnx4I8GW++b0pFqx6G/7ahi2Aodt4vNSrFOX+L2GsvWYDPFlbdcBzS5ah/59RLAb94T10Fe50aat8v2Y2agmWh2dhToAHAnt7wW9qHOxeGIke7QIROcsHxyYyHw8JQa++MVDMnY9xLpp0/QGe78BfSTOt0O7e73ixFyfbMPxg/h5iprkJ2E2tLwNLvPT5Vwj981X49AiAL2v7vekCrHrbX3WCAFUH8WZAMN49ru/qRZu9hXSnpY2Q7viUp4GW7EsHWuJRMIbV0Jx/R8NFYPxBwZGY5XMME1mfISG90DdGgbnzx6Hx8IVjXldON7RvhYMRfgjw88aIDXZY8vU0uLTTkr9r0Jbj9cYMo5YsR3jWHAR4BKK3lx+mxtnhhZE9VMf1Qb9Y7jDyU/z4ShE+DLGBVa+ZONfGESZGJjBpZYI+kVPgfvA1+Pr5ocfQXyB1a2KRSBMhP2uafIZuERjvdAMPBvwTozqrdtagK96bknf5W19amMpCykxKoowC7vc6akhLKD8tiVIu36m9U567mcgt4ANKKimgjLQrVNTwvlOhvthWeUEGpWbepDLVjT31kJWya6XS5duVDdoJIaPSa+mUlleiuimpBrY/P41SL9+mSg0dyUqvUXpaHpVoGkM95Kyfi5TMZG+EoIxaaFIbCd2/mk6XbvG/d9EHWWk+paVeptuahNaKkB4ZTZVTzmx4MZku32lwp5YW5OXMj1Iz6aaaU2iVRV5OBRmplHmzrPF4lTA/u5lBKWn5VMLfY9ZMiun3iO700m/3VdtCPGFbsbi4lp5GeRoctrIwk5KSMqigvH4/0hLWf1IKs0NN1PJo0rVmam6sTqISFrNpV4qYlPXR2Rez082MFErLL1HeTPjk0GJvQd0JtxHSnTAt2ZcOBONRSwzXIpR/hcYvpRKWR5NSLpPW4WuLeV05vaKAMjOvNRiP5vxdtW8KOdXeHK89x+tPJRVmJlFSRgE1CCG90RXLZck7aOOfN1V2kdPN5YPJ6qXN/E3NHJL7dDX9EjUhfTRC2M8eX74adOcOLXGo4i+vKi05+jp6zu+MP84uUbtpR0TkvwdJ5h6s2f47fvijC5YlLMfg9qoD/zNIcPT1npjf+Q+cXeLH3yAtIvIXUZm6Hau+XIwvH72HrNh/8jc3PyVITr6NgFdOo9+sl9ETmYj9IQ7u3yTgxxcsm/Ypy38Bf7m8xp4v46P3RtW/qUdE5L8IQypDYYkn3t3w6f/gwoXDGJ4vf4T3Rjn+zyVYkb8bCpTdvYrbNlFY/fm4p2rhwtG6/2c49Hs0HEtycaWsK1777Ti+/x9cuHD85Z+8iIiIiIiIiIg0BfGNkIiIiIiIiMhThbh4EREREREREXmqeLKLl+oMbPtmO55k1f1amlFK/e8BVxL/OyyPVT0xVC8evyR/bal71bYQVTeu44motYVL7Osrj2YUuHdqPVbuvtzM9i2IJAPbl6/C3uxq1Y761MmpR5n5vzP/ydzQXOTXcHj1rzitfN6EOi2v+8fz35ZEt2zy63H4aX0CWih0RUSaxZNdvEgSsXbxWjzJqvs8zSul/rfgwQF8+uYvuGPTTbVDHx6/JH9tqXvVtkYebMbEsHl4Impt4RL7eskjiAKFB7/Gv35NZcvCvxIFbm9ejHf2SODkpLnsbJ2cepSZ/zvzH8sNj4EsC7H/Xo5DtxvO0i2v+8fz35ZEt2zEVYJPzm/w8DoRkf8shh8yVK9biArkHo3F1rgsSDs/wsnV2fCa9wp6VQiU+7duhwfZ5/Qqfa7ggkZDaW9pvVLqXWHdwUBzefJ6KFDMlRB/2Am2ZsoR4U5600qIK8eT/QjGd+OxZccp3DR2gJtNe9WKkCs5vwtbdsYj84EpnJz5kvP1S4hXw9pCjkcuL2DKSFf+YVBaSoE3uSR/QzSWuvdjcmkaayXyz27BmrW5sAgLgEdXa3Qw0HSeAiX17GcD24eZepTlryuB3vGhZrvy+hYoV88hKA+nkjPYGbsbJy8J2V8dBe4cX411Rf0wb7y30j/rIaRfLeXjeRTKiUC3LvizOZ/ddiAHVn36I8CrW92YBeTsYG4NB61l5hmPOfbsR8a4G78FO07dhLGDG2zaM+9WFOPy2Sw87GQLPnTuIP1UHhT21jBlh4VjT3Nu4FxYYxsFt8DNQVXbUpzZuhVH0sph4cpyAe8Y9am+jfN7Y7ErPhNlZi7MR/iTFA+ycXzXduw/fgFXKmvk1NMuiivY8+1RmP4jBOVxe5F01wR2LlZox2Rsra57pkuN+apBrNt1twOnvlq0+K/u/MVd9jKO7tiBQ6ezUa4eFxrjuUGcPpDjYWEZWtt3QTtl16xNGst/ZI+uDjba/aq1OawdnOHiYN6MWBMRaSG4Xxu1HKUU97YvWXcfQdHTIijUx4Es2/GVlgUr5qqqh+pV+jxOU2nvdLpSr5R6mXB58no8fglx5Xldu5OvfzhNnjqW/KydKWIDV7pbuOR8/RLiS+nE0TfJ00dVhbNFS/I3QKjUvdBYq/Np48wAsja2o4DnPqD9ZUIyNbDf0njSqyy/WpVaYX1rKVcvKA+nkvcpxMaZBkyYQVNG9SRr90jamNdII2pIKWWxP3V6aTPTRgME9StcPr4O7uFseuiCIeizgnKqVdRmWxrLzLfE2Lv7kn/4ZJo61o+snSNoA6dH9RL9HGW/0CizkcRCR0vsCecGwTacj7i6kHdIGI2Z/jpFhthS58HL6FJDU5afoo/62lDXflE0c8pI8rAJpIUnykl+83eKcnWg4Ffm0Ftzo6ivvTkFLUli1tbTLlVclexOZOvqR/+Inkpj/Kyo6/h1lFdbkZ7pXn5TOF81iPV6hd+1+K9e+etRAi0McKTAiNn0xtRw8rDyo/f+5CyoZ5x+EkNTXfxo0XnVE8Aq9lC0c2/6VypXAVy7XxWpHizKQrcZsSYi0jK06OJFXvAdDbcaRiv4eupUfnQ2ubfXb/GiV+lzFjSaS3urlVLXVp68Ho9fQpw/73n6ma/zT8U7JpGT9wJKuClUcl7SqIS45GTN4qWFS/LXe0Alk0Gg1P0DwfL4LNMW/UgjLMYSr1ah88rq2085Meguy6+cmNQWL5r1LVSuvki4dL88n1YMtaTBMTX2L6Zdk13IbfYx5ZZmhBYvWmxSKVA+nncFFXrqQtBnE4TlVPatrcz8ctr79eOP3fL5n4l372LaMcmJvBewOBJavNwXjj3B3PBAS7xyPuJiSeN4x2B9rKAhHdl1GgRi0foxZBX8MfHiSylj1WSKWpFMlanraVHMYeJTiZxur3qGOoavZpLo66Ns8eJoSaPXFvL+d38rTXD0oXfPltXpXlu+ahDrdQjHY7me+Ut2+XMKsx1Na64rLUip6xbT8qN3SNqEOD0+14N6LjijfNpx2bYJ5NTv/yhLfWGm0a9W0NlDqsWLpDmxJiLSMqh/iPnYSDNTkWPTB8F8PXWYBg9AQP166gLoX/pcZ2lvXeXJ9USvEuIMY58hGMbXJ4fFgL7wunERqSlCJef575HVS4jX0cIl+evdTcfOEyh1L1wev/533trPU7OfEt1l+RuiWd9C5eofCZful2YiJccB/QbVFD+0wOBBvijKaMoN0TVo0e99F83l43lXUEMPXQj67EVhOdXQXGZ+OlqlPe7YjeEzZJiq/L4FBvT1wo2LacojGtESe4K5QVe8GtrDk3cMGJh3hkWDCtPc1xrZadkwD+oHXnwjeM38GRtm+6Fdz1EYb38eH08ei2dDfdB7YTzzKbnqplg9fdTYG/0HWvNxZ94PYT2u4WKaWmzozFcCsS5kVz3zl6HrC5gUlorZ3W3hOTAKa4r6YHiQFRR6x2lrhEaOgcHuzTgnKcG+LfFwfykC7ipf4dDsV7PhW3NOi8aaiEjTaJSuHodWJq1hJJWgrnK8HKrK8fz37NwnPcotNCj3z47rWfpcd2lvXeXJa+BnALaAU/7LVaFteglxBkuGNeIquFLsBiYwNhIqOa96nqN6CXE1BEuBN6skv2pbSSvhUveC5fFVY61Bx3k19qtBZ1n+hmjSt2C5ei3ysAnXuMEEJ6li+jFsdCeLXgjrV6h8vOo8NXTrQshn/6lFTjUEysxTC4xdwa6neoWqqmoYmDA98sHMhTMP28+HjnDsCecGXfHKYqW+Y9RdV4WhoQGk1XUVdBWlBci79xAF6yZh+IJ4tAmKwLyvt+P4Z0Pq3dejl48S50u1gjJRjdCmbZ0v6cxXGmNdm//qmb8MPTE1Ngt559bjnXA7XF09Ac++sQ+VTYhTk4B/YlyHfdiyfwf+OO2Ll8c3eAKygF/V3VTcsrEmItIUNM2hzcbEfzBCKw5i88liFohy3NixHadUt6TrW+5fV+lzzaiVUte7PHkLlBBnSFN24w++zj8yN27DJaaDQX2ESs43/sShjhYuyV+vfLiJYKl74fL4bKxsUjBkMwWv1ubI9JgIlqvXUrrf2Bf9A+5jz4Zj4FWSjrWbLsAtLJRtVKG48BZK9C00rE2/Hc9rLh/fuM6/bgR99rqwnGpoLjP/Lu70ftyxS5Gy+w/w7p2JjdsusfH044IZHdvewlU+mHHrSByUoaMl9gRzg97xKoQJvMJ6Q3Z8K44q5azA6U/D0W/ebqQmpcOw/zQsmhUBPpUkoVrGcgl3mr7I0rBvRxY4l6m8+Cu2ZfljYGhb/hijeflKOB711Uf1uX8hqOccJNqH47V3Y7Bypj/KCgsha0qcGnnh5RdtcGDRUlwIehmjbepPB5r9ah4O1PiJ1lhjLlNciFv6B5uISJNo0cULOjyHJcv6488oH/T098bQVXfQRfVTCn3L/esqfa4Z9VLqZXqW726BEuKMVu3u4fcXe8HPrweG/WCO92Kmwa2TcMl5YVq4JH+DSwmWutdSHh/tusPT5hgWDpyKDWX/aIZMj4mWcvWC8hhY4qXPv0Lon6/Cp0cAfHsMw/emC7DqbX+WTQ/izYBgvHtcc0It3xENh06d0En1Z/3scmH9thMqH6/qrEkIl5wXlFMdjWXmF2PCxMcdeyu0u/c7XuzFxeww/GD+HmKmuXHBjMgp7jj4mq/S74f+IoWbMpi1lM4XzA1NK7evCdORH2LZkESWM7zRm/1FHAzAvz8Yh4ERkXDcPxm+gcHw6zUeu818YXsrD1pTSUMM7dHqYAT8AvzgPWID7JZ8jWkudR8FNS9faYlHPfVhEhiJWT7HMJG1Dwnphb4xCsydPw6W2uK5EYZwixgPpxsPMOCfo9BZtbcWjX71AZ5rpzquLdbYG4WDbwYg+N3j/LkiIi3ME6ltJH9wHVk3FLDv4Qzzeh/5VqM4Lwd327qwSbEmAjQgf4Brl65BYukGN+t2+i0oFKxNRh4k1j3Q3Yr73PYhbl26jNtkDXdPO+VPODVSXYy8nLto6+IJbUPSRE1F7C1xM9D6ZhWsu3dDZ/4XmjwPb+HS5dsga3d42pnquTBSoKIgC1dK2sPJ0wnm6jmH6eV61g0o7HvAuZ5itbSphxwPrmfhhsIePZzNWepSQ2CsigfXkJEngXWP7uDV2hyZHgc25muXcE1iCTc3a+XPVOvQIo+iAgVZV1DS3gmeTuaPWclYWL+y0mvIyiuFib0H87tGNzc0ESGf1SKnGoqKQmRdfQAzl+6w71BzVnPHXlMJegviZrTGzSprdO/WWfnT2Bqqi/OQc7ctXNgbh/qhIxx7wrlBz3gVhMlZmIWrD8zg0t0eNeLLmf9euiaBpZsbrOs7TxOoROGl65A5dEfXWr2q0Zx8pUSbXfXRhwyl17KQV2oCew8Wn+ombME41exXarRorImI6IdYmPExqFm8/HF2CfzEiBX5r6Jm8fIHzi7xEyckERGRvxXi4uUxUBSexKZTbTB8bB+NX4GJiDy9KFB4chNOtRmOsX2a/nWqiIiIyJNEXLyIiIiIiIiIPFWIb6hEREREREREnirExYuIiIiIiIjIU4W4eBERERERERF5qhAXLyIiIiIiIiJPFeLiRUREREREROSpQly8iIiIiIiIiDxViIsXERERERERkacKcfEiIiIiIiIi8lQhLl5EREREREREnirExYuIiIiIiIjIU4W4eBERERERERF5qhAXLyIiIiIiIiJPFeLiRUREREREROSp4sksXh7mI37tZ5g/awqmzl2MVQev4KHqkN5UZ2DbN9uRIVNt/68iv464n9Yj4a5CtUOIKty4fge6zmpxWsROdWOXX4/DT+sToFPcp55yXNj8NX48cg1y1Z6/J9XI2PYNtj+GgQVtqqdvV924jjtN8gc5rsf9hPUJd1XbLYM87wB+2HgGxcqxyJF34Dssj01VHtOI3rH7OJQi8bcYfPHFF/jiyy/x1bKV+OmPeFwpr7mmAiVnN2LZLydwW30YyrH9gvhCtlOej8M//oxjBX8PT5RfO4zVv57GvSeptr8KeR4O/LARZ5gT1fqTVNhPqjO24ZvtGWiZaVCOW8dXYP60KXjzl9Sm9fmEfbk5crb44kVxaxdm9w3DtNi76OIbhj729/HHlFA889EpVKjO0QtJItYuXovzVart/1WoFLmJycivJNUOzTzYPBFh8+LYMuA/TAvYSX3sVJqLxOR86BD3qUd+5WcseD8eRt0cYKja9/dEgsS1i7H2MQwsy92G/1t+ENw8WQ99fPvBZkwMm4e4Jl2eUJqbiOT8StV2yyC9FIvPVsbhDjfcBwfw6Zu/4I5NN/6gJvSM3cdCfh/HV72Pn07exv2iItwrzEbCT9MQ0utFfJchYScQ7hxdgXemvoK5vxfUvbmRXcGO//sSe/LZdCHLwh+f/h92XPl7LF5kWbH49/JD9Rdb/y1ILyH2s5WIY05U608KYT+RJK7F4rXnWyavS47gw4lLkWETin5eVk2b/GW52PZ/y3GwURC3DM2R0/BDhup1C1CKXXNH4WuLGCT88RZG9PFHYL9/YHzIPayatx2mUS8joEMrKB5k4/iu7dh//AKuVJrByaUTWivbVyD3aCy2xmVB2vkRTq7Ohte8V+BnwhZFgm2EUCgTWPYjY9yN34Idp27C2MENNu1rTCbD7fO7sGVnPDIfmMLJuQvatGKtSrJxLrcMlRn7sCe5GnZu7XHz+A7sOHQa2eX1ryu5cQY7Y3fj5KUHMHVyRhfWgYKbfHOq0Lb0DLZuPYK0cgu4sjZMBIYCD7KPY9f2/Th+4QoqzZzg0km7FGBXM7d2gLOLAzo+FOi7Mh9nt6zB2lwLhAV4oJt1BybebZzftQU74zPxwNQJzl3aoJWiBNnnclFWmYF9e5JRbWOFh5lXUNW2FGe2bsWRtHJYuLqgk3Kw2sbagnZqOPauDrB2cIaLgznTmYCNtOqYE/08dm3ZifjMOrtoRVGMy2ez8LCTLcyM2bb8DtJP5UFhb412ZdqvpRne93Kq2qL0zFZsPZKGcgtXpj8TdqnLOJtVCQsLB/hFvIoRpldxKk8Be+t2KFO2aYP7CbHYFp8HQ0d3WEvSsWfTdiTcMIGTuzXaKkXR03e726G99AbO7IzF7pOX6vxAOUbtVOQeRezWOGRJO+PRydXI9pqHVzgDC1xbG/K8fVh1uC1GDlQgftsRZFZYoJuzBdNhnW+bmzB/u3wUO3Ycwunscpg5MT9sXYn8s1uwZm0uLMIC4NHVGh0MJLhxZidid5/EpdrrK1CSfQ65ZZXI2LcHydV28PPqBgdnF9iZK50S2cd3Yfv+47hwpVLVt2pwglQzOfcidheTs8wMLszmBjm7sPKEBaImD0CnohsocnoBU0a6ovUDIR9Rl4/rksXk3ljsYjFZZuai9AeOpuc2NagEp9auRsU/d2LN/Ocw7NlwjJ4wAX3yv8DM9a3wYmQfyBN+wS+XylF4JAN2EePQqyMzmDwf+1ftg9GYGXjWLg+7V+yH8dhZCHfSbymtKwY15UbWiE3SOahqcx8JsdsQn2cIR+bTkvQ92LQ9ATdMnOBu3RaKK3vw7VFT/COkHHF7k3DXxA4uVu1g0DB/2XWHXXtFk/yx6noyztwwgIOVKR8HinvIPH0FUmvmW4KiC+RCpTzZeGR8F/FbduDUTWM4uNmgZorRmIdkOdi18gQsoiYjrHSPyp+egZuNmp9U5OJo7FbEZUnR+dFJrM72wrxX/JS61ahXfWBjzT69Fet/uYVer0/AyABPdDG+03iOUJ1ezca+N3YXG3sZzFxYvBjmYd+qw2g7ciAU8dtwJLMCFt2cYaEyeLN8WIuceuVwakkqt1KklRPNOFyl2lGDhB49kilfyW/+TlGuDhT8yhx6a24U9bU3p6AlSSSlUop725esu4+g6GkRFOrjQJbtnqe15draaKOK4ma5UtfuvuQfPpmmjvUja+cI2pDHjaOSzi8dQo7dBtGrs6bTuEAH8pi4ia7JWasD06irtRMFDZ9IEyZ9Sj+8E0COgRE0+42pFO5hRX7v/UmPWA+l8e9TiI0zDZgwg6aM6knW7pG0kfVdFTeLXF28KSRsDE1/PZJCbDvT4GWXSEZyuvl7FLk6BNMrc96iuVF9yd48iJYkaZeCdUiz3ALog2SpYN+S/I00M8CajO0C6LkP9jPxztPSIY7UbdCrNGv6OAp08KCJm66RvOoATetqTU5Bw2nihEm0NP4AzXJ1Ie+QMBoz/XWKDLGlzoOX0SWZtrG2rJ1kDcbOyegW8AElS7XYSFDHnOhLaYhjNxr06iyaPi6QHDwm0iaukTYe7aXoriH0SSbvo1T2C40yG0k/lWi/ljC877l4h1DYmOn0emQI2XYeTMsuydiloqlryCdUd6lRZDbyJyqp8VePIAoZE03RI7pTp54j6fnBQylqVjQNce5EA77IZC309d2ldPpuPL0fYkPOAybQjCmjqKe1O0VuzNMxdmbhuLfJ17o7jYieRhGhPuRg2Y6e5wys5dra4HTo0smePANH0mszOB12oaHLs0im5tuPEhZSgGMgRcx+g6aGe5CV33v0Z0U+bZwZQNbGdhTw3Ae0v6yU4t8PIRvnATRhxhQa1dOa3CM3Up6sig5M60rWTkE0fOIEmrQ0nunSjQI+SOackn6PciWH4FdozltzKaqvPZkHLSHtYVdOpz7qSzZd+1HUzCk00sOGAheeoHtqtpOcfJM8fRbQGYkWH1GTj8pP0Ud9bahrvyiaOWUkedgE0sIT5c3MbWrIcmlp3w703JpS1Q4eWe7/UViHwfTN9Wq69FkIWb28in6JcCD7FzfQdc5eVUdptpsXvZ3ACbCfpnZ1p7nx7LWeaIsLodzIGrF805U8gkJoTHQ0jejeiXqOfJ4GD42iWdFDyLnTAPqCKVfpx51sydXvHxQ9dQz5WXWl8euY3zbMX6dLmuyPj+JeJ7duM+lwJb8tSXiLvHzeUdpRM1pyoUqe7r7+FD55Ko31sybniA3MH7XkIbVcU5sLKtX8pDSO3va1pu4jomlaRCj5OFhSu+fXMo/Uold9kKbQygmBZGdsRb2eeZVWJJzRPEewU8tPfUR9bbpSv6iZNGWkB9kELqQTRWyMLp3I3jOQRr42QzlXdBm6nLLY5Zvlw1rk1DeHt+jiRX5tGQ1s35eW5gorVJK6nhbFHKYi5VjkdHvVM9QxfDUVFXxHw62G0Yo8fpDlR2eTe3t+UhRqU6w8UwhuMnAhy+d/ppvKdsW0Y5ITeS84TfK762iM3SD6Kkc1zvJDNMPNm+aflvCBYzOBtnFalF2mz8NsafSa60pDSFLX0eLlR+mONJ9WDLWkwTE5qomgmHZNdiG32cf4RG05jn4t4vbLqWDFEOrIJqditoBLXb+IYg4XKR2E5Ldp1TMdKXy1dimUAaJybOG+iYp+HEEWYzey6UVOd9eNIbtBX1GdeDPIzXs+nS7jgt+GJiiFY3B9u1jSOL5DkhesoCEd2aRdLDxWeYvbSX3s3JD4xcuFQi02EtKD/C6tG2NHg76qsUs5HZrhRt7zTyu3BNGxeBHSuTAq3xv3K/HNCmjFkI408qdiHYsXF+oydgPd5Q6UrKMXOjrR9AMVbENOt74dRuaj1+vvu6xN/oqhZDk4ptYPindNJhe32XSs4XsLddhYvxtuRcNW5LEeGOVsknNvr1y8aLu2NpQ67DKG1t/hemR+8f2zZM784n6tb1fR5c/DyHb0GrrOBxqtW7ycjnLnF/1IIyzG0kbmHPL8FTTUcjDF1AlEk13caPaxB8rFi82Ebcrkx+tftXhhfa1fFEOHeadkrryKnukYTlrDrmg9jbEKpo/T+PQrzVhFk6NW0JldwosXjT6iFrtF68eQVfDHxHcppYxVkylqRTJVNjNmahFYvFDl7/SieQ9mm4f84uWfsVRR8DtFONjTuPXX2RuZx1+8aI5B4dzIGrF804XGblB6OHPxF6ij03TiXfwWfTvMnEavL1f6saPlaFpbyNvs/tYJ5OjzLp1tkL+a5Y+SBHqrhyO9tovro4qOz/WgwMUpWiZaLXlblT+f//kmf6x4B01y8qYFCTeF85DWxYuECr4bTlbDVhCfXsvp6Gx3as9N6tr0qi+VG2msxTO06rZUeI6QFNH6MVYU/HEarxNpBq2aHEUrzh5S2m7M+jtKWeW3v6dnzVkc3edCrKk+zPxFUE79c3iL3vNi0L492raqwsOHwt/xmvQchfH25/Hx5LF4NtQHvRfGQ6KQ41FmKnJs+iDYgR+SafAABJjyHxUJtdF9c48xfIYMg62ySwsM6OuFGxfTIMtKRnpxCmLCPeHu7g53/+nYVngFGRn8d+SG9i7o1oZ74YoXJoUhdXZ32HoORNSaIvQZHgQreSZSchzQb5Cz6n4FCwwe5IuiDP7mPUN7T3iaca8MYN7ZAkbVEjZeE/QcNR725z/G5LHPItSnNxbGS6CQN+1WLM19Kw+pkCErOR3FKTEI92SyMfn8p29D4ZUMKMUztIeLUjgVbNuT7xAG5p1hYVQNicRIcKzSJ2Knxsh12kiDHqqzkJxejJSYcHhybdz9MX1bIa5kZCjbNBfdOteEIew9PcE3M0dnCyNUS7h7ELTBt7HgXrbpiI7tHeHqxtnKAB07tAfJZPr7LqTITMmBQ79BcFZ9HG4xeBB8izKQqu2mO2kmUnNs0CfYgV2VYRqMAQH8R+y6rq0NQwcv9OjE9WiADp0sYFz1EJW1wzCE6wuTEJY6G91tPTEwag2K+gxHkBXvYzVIM1OQ49APg+oEwiDfImSkcjfmMt25dIOaZ/OY9MSo8fY4//FkjH02FD69FyKeGU9b2FVnpyHbPAj93I2U20ZeM/HzhtnwFfxagdO7Nh+pRnZaNsyD+oHv0gheM3/Ghtl+aNeCMVMPSSUeytqiXbs6HRravYSYL/rj3HtvYuNNnQ6sE40yS7TnRtaI5RulhzMX74j2jq7gXbwjOrQnyGT8fTfG3v0x0Jofu3m/MPS4dhFpDfJXs/zRJAgvj+2EA7/tQ8nDk9h8oDPGvdyTWUQIHXnb2AdDhtnysWIxAH29buBiakoz8xCL2dQc2PQJBp9eTRE8IADK9MriUqtem4SWOaIkG2nZ5gjq587rxMgLM3/egNmc8xs6wKtHJ6WsBh06wcKYzfUsiJue97XIKdM/h/Pe0VKY9UEftytIPHsf9UKj6hjeG/IPLE2sQsG6SRi+IB5tgiIw7+vtOP7ZEOV3Y61MWsNIKkF1TUOSQ6F8rRBsow8KeU2HClRVVcPAxJgZwQhGVqOx7MgJnDjB/SUgJTcPv0byQYVWBirFGMJzaiyy8s5h/TvhsLu6GhOefQP7Ko1hrJzk66SUVDGHNuRumGAYGKgcrAYCKQqwbtJwLIhvg6CIefh6+3F8NkTvb7br0NS36lUNhkZGsBq9DEeUsrG/hBTk5v0KXrxWXBdqMFnrd8hULzzWJ2WnRuiykUY9GMLIyAqjlx1RtTmBhJRc5P0aqTpHAOXai/sUUrnF/LUa1epK1UPnmjBopFhSXaqufVV1db2+DJncdbRCK2UDNfT2XZZXjfkFU62XSqpYUjFk+1XbmmhlgtZGUrYQrDUw5LyBdV9bG0yH9SeI+ho09JyK2Kw8nFv/DsLtrmL1hGfxxr4GkxAbeP1FgQRVbMNQJVCr+o6tRFGwDpOGL0B8myBEzPsa249/Bp1hZ2gIA2k1S7EqFKUoyLun/WZCHT5iaGgAaXVtj6zLAuTde9iyMaNG5ZkzyDDzRaCbutYNYPdSDL4YcA7vzdvK33j8OGiUWUduZC3quzjzcdVLdYizc22QVKHaqA3aKrtQy1/N8kcj+L08Dg5HN2Przk04Yv8iIro3iFN1dOZtthCuEVVRxeLZACYs7pqVh5hsJq2NIJVU18Yssc7517r02jSE5whmHwMp6lxVgdKCPNxTOj/LLfWDmNm7OXlfm5z65/DG0f44GPlg0rQQnP9iAX7Pfsjvk9/B8U/ex0+F7ujj1Qo5Sekw7D8Ni2ZFYIQfcGR/EqrZO0oD38EIrTiIzSeLmRBy3NixHaeUd19LBdvI6uwogBQpu/9AJqf4qkxs3HYJ/oP7wcS7L4Lk8dh5VgYrW1tYGyTiy+g38Vtug7Vi9Tn8K6gn5iTaI/y1dxGzcib8ywpRKPVF/4D72LPhGP9zvofpWLvpAtzCQvl2mpDmICndEP2nLcKsiBHwwxHsT6pm7zQe+z2WEkM2URIpmDOZwLtvEOTxO3FWZgVbW2sYJH6J6Dd/Q0PxBNEyVhP/lrdT3djrMNbXRuqYeKNvkBzxO89CZmULW/bOLfHL/8/emQBEWa3//yubO4vKDgKyyiKbIuK+lMLN3DLyimmuadq/LL2l6TX71e3XLc0sb2WZYpYaKi65JSgq7rLIIiIILoALyq4MzMzzf9+ZYX/POwOi5f29n3vJ2c45z3m2c2bmzPvMwNu/ZGlewKCNMYzbF+BaVjl3R4mCIzG4VLfOtCptuHeb7QuuQT1UAY7EXKpbJHVAZ9/lkp3vwADc37cZR9VOitSNW3HRJQT9uomEvZE/hvYrx6FtJ1Q/CVbcjMauUxUq2+g+dnOpwrl/BsF7wXnYhr6G91Z9jbn+pcjP53IIt+jrc5s9JSeAoe9ABNzfh81H76kS3cPUjdh60QUh/bqpuxGg+moCUvUHYvbSeQhXOyUSqjifFHFKI88Q9JYfw45Y9Tjlpz9G6ICFOKhJac3HCJ4hvSE/tgOxKluU4/THoRiwcC+SRWKm8kE+Coq0fVrXGCXKruzAe8v2wXLWXDzfQfNwDXrWmPjFvzEo4Qfsuin866KWjavBsAW5UQB5yn5EZ/AyVODSzzuR4T8Y/dqrn6uhpf5o0DMcE92OY8XiQ+jx0ku1n0wKoi1vVydh72/pqo1tZfoW7LzMxc+QPi3LQ5yf+A/th/JD23BCHXyI3nVK/ctLUb1W4kF+AXQ3mcgaoeeJkN5yHNsRqx6n/DQ+Dh2AhUznb0neF5lnM3J4625euF1TjzkbsPHl21gW7AT33kHwc/bEy3t74H+2fYyhHduiT/hk2B+YDt/AvvDrNRF7uXcH1gU5yGn/AlauHoiTET7w9vfC8HV30E310wqRNlpzZht0uPcrXurlB7+eI/Cd6ftYNdsFMBmNlWtCkbEgAO6BveHpNwsxNmMQ1rPRttIoEJPn+eDoVE6m4GD06r8KyjcXYYKlOV7+9Av0O/kqfHoGwJfr+9tOi7HuXX9NQwHa9kH4ZHscmM69G+rrh14T98LE1xoFOTmaFzweHdw8YHV0CQbP2sxNbyXWhGZgQYA7Ant7wm9WDGzGhKHx9JiIydq59e1UX/ZadLVRA0wweuUahGYsQIB7IHp7+mFWjA3GhPXUPM/AqA8mz3TFodd84efXE8N/qoZL11YODQ1GfSZjpushvObL++Rw/FTtgmYNpbNe9GD+8qf4ot9JvOrTEwG+PTHi205YvO5d+Iv6QWe8sHI1Bp6MgI+3P7yGr8Odbu3V745bZBNdMELg5HnwOTqVGzMYwb36Y5XyTSyaYM47BzysjmLJ4FnYUvkSPv2iH06+6oOeAb7oOeJbdFq8Du+KTKhtn3BMtj+A6b6B6OvXCxP3msDXugA5Yk7ZKQwrVg/Dec7/vXpzf+GHEPCvZXih8UagGXQKW4HVw85zcnihN/cXfigA/1o2AYOZMVOJ3xf4ov8H8ZoexJDh8JtO6NKlK7p26Qbnkf9C/uifsOuDPoLvgPWsJ+KLLybCUnO/Ic0ZVwC9FuRGAfRt2+BQuB8C/LwwarMNVn45G06NNxkt9Ud9F0x8uReKy/zx8nhb8UVQW95u0wH3fn0Jvfz8OH/8Dqbvr8Jsly4ty0McnV9YidUDTyLCxxv+XsOx7k439S8MxfRa+TsW+PbHB/G6bzjZa0QnhK1YjWHnOZ/06s39heNQwL+wjOn8Lcv7zHk2J4drzr60OoryfLqceIGSrtxR/TqnPvLiXEpJvkK3K1SndRogL75OqSk5VKQ5SFSDWBthag7tJVBRXhqlZBdSk2NcFfmUnpBAaXll6gNXDKqLuLETkujKnUYzUZTRrbQkSsktEj9ZXYucinNTKPnKbdJ5Gjqj4Pq+RImcvmuoyE+nhIQ0yitryWDisraenXiayl6LjjZqSAXlpydQQloeNWfqsvvXKPVygerg8JNFRvevpdLlgscYSWe9KKjsVholpeRSkW5OqkZeTNdTUyinsYF5WmQTHaguotyUhCY5Q8H51KXEK3RHc9BYUXaL0pJSKFfXCXFzyU1Jpiu3+ePsuqMoy6O05HS6VSqggxbB2YLLRcnpt6h+l6yYqb70Mc34MFFz7+nRKuM2OzcKUJ5H6enXG+hKkBb444Nfw8nt5V/ovua+OIxcWHMgO6GI8tJSKLuw8QrTsjykGu96KqXkFGkOrdZDUK/VdOnjGfQh/2ulZsJcI7hx8tKSKf1WaVMZBGhZ3heZpw66a8P/R7OP+S9Dhtg3vLGo6284u9JP5ECWhISExF8NBTKjI3E9aCqes3kynwIK82eN+5SQpWPfhl349bvf0G11PNYM7ah5ogXIYvGG9yJ0/e0sVvr9iSuMIhPRkdcRNPU5/DeajMV/8eZFifwTW3Gq3UiM79O1tb8fk5CQkJB41pCn4ZcPf0K211S8/YoPOmkebhHKfJzYegrtRo5Hnyf0NbMEm//izYuEhISEhITEfyPSdlFCQkJCQkLimULavEhISEhISEg8U0ibFwkJCQkJCYlnir/u5kVxAzE/RCJe7FLmDVDgRswPiIznLxXeQipv4sYdXcdjoyg4hrWLZmPm2z8hWeu1aBqiuBGDHyLjofO0daQqbSe+2pXW8suOl13Eti+/x5HrmgtbKXJw8LstOMNfZIij8uYNqFTXbLs1jyelnz8fBQqOrcWi2TPx9k/JzbRTne+3rlqqkLbzK+xKa7HXNEGRcxDfbTmjugAef02RmzfuPLbMxed/wap//xv//vfn+PyL1fj6h98Ql13WyroQoZXyRovQNd7+TBk5BONWlo7dX63D75lVmgeeLcoubsOX3x9BTUp8pmmUz5uFoA/KkL77K6z7PZPLIk+Gv+7mhfhy44nIVV12TxcIxVnnkZirvc6KMCXYNjUEC2NELwKuAzIcWTEVn6VZod8ATzQqz6IVedZO/O+aQ8hv5TwjO78RyzdeEL/EORMFsn9cjA/iDNDDTnOlqOrLiPrka8Tw1xgv2YapIQuhUl2z7dY8iC/Fn5irvhrjfxOyI1gx9TOkWfXDAE+LZgamHFk7/xdrDuW38oItw/mNy7HxwuPGRB3Vl6PwydcxqkvTl2ybipCFMS30yRoUuH9sHT744QRu3y9E4b18ZMb/gNnBvfDSf9K4GTxpWitvtBCd4u1PlpGjadwqcWf7ciza/Qj2Dkaax54hFNn4cfEHiDPogZqU+ExTP583FwEfVN7ZjuWLduORvQOelHX1V3Bobj8+Sn4SV1HZvhhnduzAkZQymDk7oYtGemVJJo7t2YUDxy4iu8IEDk5daq8AWXX7An6P2oO49FKYOPFt2sLU0g6OTnYwfsg5/tVKtLsfj6idccjRt4erpQyp+7ZiV/xNGDm4wrJ9G7Q1tYSdoxNsTPkB5bh9YQ+2745DekknODh2Q7s2vIjqvtoXn8GOHUeQUmYGZ06O6tyz2L5hI7LMQhDg3h2WnfUgu3kGu6P24sTlEnRycEQ3vgNRlCjOPI0dkT+hoNcbmBIWAI9u7aHg5rZn+25ubo36qbqNC79HYU9cOkpNnODEKUqRsx/r/miPsMFKxO08gvRyM/RwNNM4gBIlmcewZ9cBHLuYjQoTB66NSBWJ8izERu1ATEY1uj46gfWZnlg4yY/rS1g3TVHiwZWzyKgwg5mdH8JfHYVO104hR2kLy3bZ2PP1cZhFhKN7dhQ2bMyCWUgA3Lt3h501bzcb4MZ5XK1sh/vxUdgZlwN9e85OslTs27oL8TeN4OBqqbmqIrdM6qrrtqawtHOEk50xHnKb1auV7VF8Zgd2HElBmZmzSocqKrJxlPPBP1Ir0MW8GlezK9DNqjPKMs8hq7QCafv3IbHKBj1tOkIuaB9O11diER19GKczy2DiwPlkjaplN3FmdxT2nriMkk4OcOzWTn0F2kZU3kjEmZt6sLNQFzaE8h7ST2ej2tISnesnPC5uMk/vQORPBej1xhSEBXigW3sF00ZNY0WBnP3r8Ef7MAxWxmHnkXSUm/WAo1lt4CHz2B7sOnAMFzk9NJiLAOVZsYjaEYOM6q54dGI9Mj0XYpIf15ec89c927Gb81exeatgjCm/ugdfHzdDRHh3ZEdtwMYsM4QEuKOHZWfR/MCGUHRqI9aX/x27NyzCCyOeR+jYKZjSJxf/nhuJNi9NRh+6irMZD9HF2gR8JRjFnVScylHClvOLrHNZKK1Iw/59iaiycYNN+zJBuZuTN4T9SQhhH1M+uCIsr2UngU1t0zzZYhmVRcisp4/KjnrIy69q0p/2XFTF+e7viNrD+W6pCZz4NrVxa6pqz8f7jkNZsAgahEDPHprxxdePBlTeQOKZm9Czs1AX9OPkuZd+GtnVltz8mu4mlCVXEBsdjcOnM1HWQFZ2LqzIPsrN+w+kVnSBefVVzie7wapzKa6czUCFmRns/MLx6qhOuHYqB0pbc8ivieSjJrSG7XmE5K/A9YsXcbutLbp1UE9GfjuF64dU/VQL5Vr5VU0+n44B+ox4UckgYNt6Pqhaevn8uOMQsiyCMCjQEz34PPEkbMv/VLrV4K846OxEXsEhNG7OGzQ52Jq6Dl1Nl+VEilu/UoSzHfWdtIDeeTOC+tuaUtDKBNVVAstOfUj9rbrTgIi5NDPMnawCl9Dxwpoy4dWq8uvO3d0pKHgczZgxity6eFPYi0NpeMQ8mjHMkboM+jely+uVwacKuvDZMLLvMYRenTeHJgTakfvUrXRdwYvI9eXkRcEh42jOG5Mp2LorDV2dStlb5lKApSHZBLxAyw6UUnHcBxRs5UiDprxOM0d7k6XrZNqSo+1ag9WU9PUUCrQxJItez9GraxOo5MJnNMy+Bw15dR7NmRBIdu5TaSsvSNkp+rC/FXUfEEFzZ4aRu1UgLTleppLPqYsteQSG0Wuv8/J1o+FrMkhOCrr1awQ52/WlSQveoTcj+pOtaRCtTGBcVbE4ht71tSS3UTNodng/8rEzpw58yXER3TTlEf0+ozsF/0+65gqIpfTTaBMK+6GorrR7SjZtmRtAloY2FPDCMjpwr8Zu5Zw9nKm7exAFj5tBM0a5URfvMHpx6HCKmDeDhjl2oUH/Tlf12hxd8/pxCVhGidW8vZ3JySuYQsbNoTcmB5N116G0mne2ohha5M/NfeQMmjMphDwcbanroM/pGucjB2d3J0uHIBo5dQpN++w0VTDs8yh+CQXYB1L4/LdoVqg7Wfi9Tyf5y74Wx9EHwVbkOGgKvT5zNHlbutLkLTmCV6F8FPMGufSYS39oLqQri3+HPH3+QWcaX4izOom+nhJINoYW1Ou5V2ltQgnTRoKxUsbrwom62HpQYNhr9Dqvi27DaU0GJ5XiFv0a4Ux2fSfRgnfepIj+tmQatJLYbvMu+Vq60agZsym8nw/ZmXegFzeWcSF1gT4bZk89hrxK8+ZMoEA7d5q69brwFU1Fxnz0+wzqHvw/lJK9heYGWJKhTQC9sOyAaH4QR05Zn/Wnzi9soGLNIyrkWfS/IZ1p6Fc3asdM1xip9KfRZBL2AxVVHqTZ3S3JIWgkTZ0yjT6Lv8aUW9e8wfInIVg+xpRXfbchNVd5rcmTjyNjI318snaOQH+XteSiMjr1YX+y6j6AIubOpDB3KwpccpwKa+NWJN5F1o8mPIqhN1x60Ny64KJ3PH3oH02Ci+NRPC0JsKfA8Pn01qxQcrfwo/dVwczOhUUxi8ifi4ORM+bQpBAPcrTtSoM+v8YbR5336oxDo03C6IcikXwkQKvYnil/Oe2f5UR+Sy9o4qec9s1wpN7/TKZClu7rzYstg7Bty+r5IDM/PgHbtv7mxcmcJvxcqLqryFtLw4w5wz7gxk+OpKWr/qBCVRwr6Pa658g4dD09oEKKHGdBfT9KUSu6Oo3WTY+gtWcPNwhKp27jafNd/gVFtGmMMTnMOciZhOup4BsaYTqWIlUJXL15UdzdRONshtAXVzWaKTtMr7t40aLTMnVf5hNILaKC8tYOI2POMLwc348yo/FbOIUpcmntcHMauuqqZlF6QHumO5HL/KOqe+JU0JbxZvTcutukUNylTeNsaMgXNf2U0eHXXchr0WkqjBxHFn0/ohT1pClt3XSKWJtI5aq5jqPIO7yiOD19+zyZcnq6TzJKjlxKq/4oVC8Yitu07jljCl3PKbcJ3Lz+M5IsRqylHNWLyyh2vit15DYvJSK6aYoOmxfewwu/p1Fm44lXncoHVHbjNy9O1G38ZlKbbRONMXagOQdVVqOCb0aQ6djIZuu64ebFicwn/MxZjkORR2uHGXOyFVLummFkFfYd3VDNvZLOL/WlDgPrNi9WU3ZyGuHbsOxzkq58GkLWYzfQDd4+smTatHwNxd6ppty1w8l86CqqUd+DPdPJyWU+HdVcur4BfND1tKfX9vCjVdKxN90pcHmS8IJcsYXGmz1H624rRPw3XzhWanQ9LpLUbnObvn3elPON+yrZI5euoj/Ugcc9tY6eMw4lYbfJo/+MtKARa3PUPlYWS/NdO3KblxK6u2kc2Qz5onbeZYdfJxevRSToNiJj1k+Mhd+PIrPxW7iIEcsP2mBsXrhef33JlHpysSa+ebGiKTtV3iAqt255gx3vTZEzfIzbOD/G5uWxZGykD3Z/IrmoMJLGWfSlj9SJjXPRdTQ9Yi2dPayJW5lIvIusH02RUfw7Pcn+tT2qWK489ia5By6nJIHgkl/5lEKsx9IGtaIpedNyWhN7h6pZcRafSWuGWVHYdzfU86s8T0t9O9BArZsXoXwkJHzr2F50neP14b1Y/UapdCdNcRhA/5uezda9LpsXhm0Ty2t8UMbOjyWtb9vWP/OibwsPDxPVTT3TrjDTlPE28h6NibYX8NH08Xi+nw96L4mDTKmAvCoTKZmmCBrgqr6Ev4En5v64GfN9G370p2/rAQ9VpfN2MDbuCHtnF+4WN4ZxZ3QkOeT1Dk3JMxKR+iAJq0I94OrqClf/OdiZn420NPV5GFVfKhH1YNrVrFGZfY7qdCRdtcOAIY6aku9mGDrEF4Vpyap7OiPPQGLqAyStCoUHL4erP+bszEc2109mSiZMgwbAVT1peM79EZvnq8sY6Nt5omcX3jR66NzFDIaVD1GhNIL36ImwvfARpo9/Hv18emNJnAxKhdBhymqkJ1+FVZ++sFNZuBP6DgpQfQSnTTetiz5sPTw47XG0M4ZxR3s4u6isBuPOHUF8ZdbH0rW6f7UpTdHVzABVsjKkJGXCPrg/rFVzbwufAX3qnT3i2jj1UPkO2z4ZcB4zDSHJ8+Fm7YHBERtQ2GckgiwUSE+6CrsBQ2or0ZoNHQLfwjQkCx2YNArCK+O74OAv+1H08AS2HeyKCa94ay1VwbRR8iXhWFFdmlwfdp49oXabzuhiZojKh5xNjbwxeqItLnw0HeOf7wef3ksQxzm7sNukI/mqFfr0tVN/RN2pLwYF8F95yZGRmIoHSasQ6sHryRX+c3YiPzsNgm7TnDE1MPOD5vnmI0PFQznad9BSTZHLV049VN6gVW6teYPpT2maF9RHn+FjtY7aIh5bxvr64BDuj52LqjJTkGkahAHqxMa56Fz8uHk+atO5tnhnrB9NMULQK+PR5eAv2F/0ECe2HUTXCa/AWyC49J3HYFpIMua7WcNjcAQ2FPbByCALKFlxdukikjLtEdzfWh0HbX0woI8u59CE8pHQqavWsb1YLm/bbzLG6e3FtnMyFO3fjjjXlxHueOWx1jWWbesqI3Drjlh+bGXbPl6kCKIHvRpH1UCkRN6maRi5OA7tgsKx8MtdOPbJMM332frQ16tGVbXqDocSxXk5uNf4bJm+foOk36aN5otJIfQNYGAxFquPHMfx4/xfPJKycvDzZNUyyomopzFeDaQq+V+HIQwbKVZWyQWnPv8NYHPgZDawwNjVRzRyHEd8UhZyfp7ETUcP1XWThrI4Dzk1k+bka2gnTjplHjZNG4nFce0QFL4QX+46hk+G1Xxv25g2MGprgGpZFadNNaRQqm9r000D1DrmNrmqf4FKVFU170CXPjdeHW04u2lu1vJ4utZr4mxA+3ZGeFhW92sTeUUFKuuJ3YbTrxqWfSZD32MWojJycC7yHwi1uYb1U57HW/srYGioTki10soquWSuzz2uud8AA/i9MgF2sduwY/dWHLF9CeFujeQVgmWjSWaisaKn1yi6VW6zCdNGLkZcuyCEL/wSu459ArbbGKGtQTVkVbVeA4VSfVvfwAAWY1fjiEZPx+OTkJXzM4TcplljqhDLDy2k4gzOpJnAN9BF7cX8p8yqJzgvrqqqvc37ZI07aJVba95g+5MQLB8Tl1cLjy1jnT5UCPUnlou4PK1XXcUtYxqUxcjLuVfvULa2eBdaPzQ3GmHg9wom2MVi247d2HrEFi+FuzWSVYO+B2ZFZSDnXCT+EWqDa+un4Pm39qOCGWfmaGf0EGVltRkEFRWVaj2qjVMnU2UV6qfEpvlIWPhWsb1YLjcKwN8ndMb+7QcQ/dtp+L4yEfZ6uuVapgxabctZVzQ/tq5tn8DmRYhqXE1Ihf7A2Vg6Lxyj/IAjBxJQxb3zlnPvHkN6y3FsRyzu8TMuP42PQwdg4cGH6qYtwMirP4IUcdh9Vg4La2tY6p3H5zPexi9ZYu/jOMPo84HJadPQFwMD7mPf5qNqmR6mYuPWi3AJ6ad6ZeWDfBQU6fA7BiMv9A9SIG73WcgtrGFtqYfzn8/A27/cgGdIb8iP7UCsetI4/XEoBizcjzJ1y6ZUX0VCqj4Gzl6KeeGj4IcjOJBQBTn/6UUTjOA/tB/KD23DCf6nb4qbiN51SnXSv3m6aQNj4/YouJbFScj5asERxFyq23DVwm3E9Dkv5FXXbLTouvm0RVDYUFREf4OorEoois/jm28Po0hINqZ9LuPcP4PgveA8bENfw3urvsZc/1Lk51fDd2AA7u/bjKNqYZG6cSsuuoSgXzfhUDLoGY6JbsexYvEh9Hjppdp3JGIwbXTDTThW9jO9hnObBKTqD8TspfMQrg48JFRxcSfnO2iEkT+G9ivHoW0nVD9lVtyMxq5TFVziMoJX/yAo4nbjrNwC1taW0Dv/OWa8/QuE3EbXMfW5TMa/sSGx/MA10TneNCjLrmDHe8uwz3IW5j7fAW2MjdG+4Bqy1E6MIzGX6hJwPZqlq1rq5Q2mP2VpXlufKoaPPdRZXt1pqYwMRHKRkWcIesuPYUfsPdUCVn76Y4QOWIjadN6a8W7QE+ET3XB8xWIc6vESXmIEV9W5fyLIewHO24bitfdW4eu5/ijNz4ecFWc3AxA2tALR30Qhq1KB4vPf4NvDReoFvI0xjNsX4JraOCg4EgOhlChO69hePJcbwPOVl2B1cCk+uxiEV8ZaQU9H3bNkYNm2Lv0YNjs/MtHBtk9p89IWfcInw/7AdO6dUF/49ZqIvSa+sC7IQY68E8JWrMaw89xzXr25v3AcCvgXlr2g5eNeMUxGY+WaUGQsCIB7YG94+s1CjM0YhPVs9M60AR3g5mGFo0sGY9aWSrz86Rfod/JV+PQMgG/PEfi202Kse9efe10lfl/gi/4fxKubiWKC0SvXIDRjAQLcA9Hb0w+zYmwwJqwnOoWtwOph5zHd1wu9ub/wQwH417IX0VnTsglt+yB8sj0OTPdFYF8/9Jq4Fya+1ijIydG8oCGdX1iJ1QNPIsLHG/5ew7HuTjf1L3uapRsj9Jk8E66HXoOvnx96Dv8J1S4CRS47uMHD6iiWDJ6FzTd5p20GeuYium4ZncM+xveTCrEi2AoWvebiXDt7GBkYwUj1lqI+LPv0QuDkefA5OhU+3sEI7tUfq5RvYtEES5i//Cm+6HcSr/r0RIBvT4z4thMWr3sX/izX0nfBxJd7objMHy+Pt9Ut4Jg2MhWOlReZXsO5TTgm2x/g/CwQff16YeJeE/haFyAnR2iz2hkvrFyNgScjuHn7w2v4Otzp1l71Tsxk9EqsCc3AggB3BPb2hN+sGNiMCYOQ2+g6Zgc3D1gdXYLBs7aL5IdKHHo7AH3fO6ZpJYzs8Jtw6tIFXbt2QTfnkfhX/mj8tOsD9GnLeXGfyZjpegiv+frBr+dw/FTtAqE6es3TVQ318sbmUma8N8WI4WPmOsurOy2VkYFYLuoUhhWrh+E895xXb+4v/BAC/rUMtem8VeNdHy4TX0av4jL4vzwetgwdGQVOxjyfo5jK5cLg4F7ov0qJNxdNgDkzzswQ9vH3mFS4AsFWFug19xza2RvBwMiIdyZMnumKQ6/5ws+vJ4b/VA2XZhunlWyvJZfru3BvnBxuomTQ3zG6K/eAjrpnysCwbV360Wt+fmSig23VR1+eDvLiXEpJvkK3K9QH4hqgKKO8tGRKv1WqOUzUClTkU3pCAqXllakPXmlDUUy5lxLpyh3N6UtOpltpSZSSW9TgkGX1pY9pxof8r5p0pYLy0xMoIS2PyhoIoqCyvDRKTr9FpTpNWk7FuSmUfOU2CamwKdzrr6dSSk5RU502Rzey+3Qt9TIV8CcrGSg4215KvEI1qms2DF23hNLEaNpy8pZmzgq6tWYoWby8TXX4SxiGfaqLKDclgZKu3KFHmofUcHa7lUZJKblUpIOwD34NJ7eXf6H7mvs6w7JRc2NFzvl1SjJduV2h3dY83Ouvp6ZQTlHT3ivy0ykhIY3yGjpyU3QaU8H58yVK5PTLI5ofHhsZ3b+WSpfFnJinubriaZw3mPEuANPHdJRXVx5HRkHEc5GiLI/SktPpFiuxtVa8P/iVwt1epl+0Blc1FXHyJiRxOaqhogXirJQSo7fQyVsa2RW3aM1QC3p5W10Gkd2/RqmXCzgtPgatZftmr3O66J4tg1bbclI0Jz8y0WJbqap0s1EgMzoS14Om4jmb5u64JZ4GshPvImDSaQyY9wq8kY6o72Lg+lU8vh9j/rQ+alQjS8e+Dbvw63e/odvqeKwZ2lHzhISExOMhQ/q+Ddj163f4rdtqxK8ZitaLLhlOvBuASacHYN4r3kB6FL6LccVX8d9jjLmU8588utlWskSz0Yfb2NekjctfmLYDP8HhX2fAvigL2aXd8dovx/Dt09648OgTSvOL4PHeZnwsbVwkJFoRfVBpPoo83sPmj1tz48LTFgM/OYxfZ9ijKCsbpd1fwy/HvpU2Lk8N3WwrffIiISEhISEh8UwhbSUlJCQkJCQknimkzYuEhISEhITEM8V/0eZFgRsxPyAy/q7mfj2q0rDzq11oVmX/lrRpFRTIOfgdtpx5oLnfFMHy8q1OQ31W3rwBbRX1FTkH8d2WM6prhAih7fnWQ8QXJBohQ9qur/CfA9mPcTVbCQkdqM2prRCflTdxQ1tCegrU5kXFDcT8EIl4gaRclbYTX+1Ka1Z8NatNa61VDfrh16H/YE1UM68q/xT5L9q8EIqzziMxV+B65bLz2Lh8I5pV2b8lbVqFalyO+gRfx9zR3G+KPGsn/nfNIeQ/0ditp8+SbZgashDaKupXX47CJ1/HgFVVXdvzrYeIL0g0QFnwCz54bz/kDvaNruosIdHK1ObUx43PEmybGoKF2hLSk6Z+XiS+anIicvkrgTZCdn4jlm+80OBKtNpoVpvWWqvq91NyEB+//RPuWPVQP/cXRH8Fh+b246Ot7LVISf2mZf75R1nlyoXLibc1tYSdoxNsVHW5y5EVG4UdMRmo7voIJ9ZnwnPhJPCV/dml99ltWLKzS63rgtD85Li652scN4vAzEHmmtc1RJGzH+v+aI+wwUrE7TyC9HIz9HA0Q42a+XLzTUqeM3SmKvWf+QiGd+OwPfoUbhnawcWqo2pXq9anBaquRGPDxiyYhQTAvbslOnPJI/PYHuw6cAwXsytq+5Jf3YOvj5shYvogCB3Mb/y8YFl+BkybKUtwJTYa0YdPI7Os7vEGvlCRjaOcP/6RWoEu5tW4ysnczaozyrkEyixhz/UrNMemKPHgyllkPOwCaxP+GtgK3Ek9hRylLczl13D+aiXaF5/Bjh1HkFJmBmdVCXl1u5LMY9iz6wCOXcxGhTbf4cvM747C3hOXm8ROA2pisN19xEftRFyOPuxdLSFL3Yetu+Jx08gBrpbqC8+pdLrjKG5YeKOntTUctehUGKES+RyC+lOqFq2rle1wPz4KO+NyoG/vCktZKvZt3YX4m0Zw4GRVXUyRqR9hP9aJKi6Gf4/CHi6GS02c6mwtpNvmlPBXISQX2zcsOzHeNzZLxiJknstCaUUa9u9LRJWVOcrTsuvu27jBpqNSOIcK2lhtn8xHhrgbtx3Rp27B0M4FVh1rZJXh5pndiNp7Apdr+6qxKSOOGDm1r0X9XC2c51W5SSB+qnPPYvuGjcgyC0GAe3dYdtZrVi5h6VgwxzD9oAK5Z7fXy4vdYWdtx8WQHdTLTxZio3YgJqMaXR+dwPpMTyyc5AcjsbzCaqN5uiHstapZumD041NyE4UOYzAzzFkVj6z8q/P6p9JjJh4Z3kXc9micumUIOxcr1LiW4JrV2L9V/lwvbvhfG7UafFVQVtlrkZL6wmX+WeW+iVFOvK6qNFExxbzrS5Zuo2jG7HDq52NH5h1eJL6yP7v0PrsNU3ZmqXVdYM2vrpIzC1W11y625BEYRq+9zpeq70bD12SoLljGKjfPKsHO9+Xc3Y18/UNp+qzx5GfpSOGbc7i+NPpc+jttmRtAloY2FPDCMjpQfIt+jXAmu76TaME7b1JEf1syDVpJfDX8xtVIG1P/eWZZfgHYNntE8UsCyD4wnOa/NYtC3S3I7/2T3KP1fKEohhb5W5LbyBk0Z1IIeTjaUtdB6grTzBL2CvYcm8KuvK3SrZMXBYeMozlv8HbqSkNXX+Zep6Bbv0aQs11fmrTgHXozoj/ZmgbRSuEB2GXmNU83QBWD3ck9KJjGzZhBo9y6kHfYizR0eATNmzGMHLsMon9zBmi+ToVglMhn6k+t8+7uQRQ8bgbNGOVGXbzD6MWhwyli3gwa5tiFBv2b93u2flh+rJWyU/RhfyvqPiCC5s4MI3erQFpynAvu1ijhzyEsl0hVdiGaLSNfBdqSHIJG0tQp0+izuL0N758uYuYYdtxw9nHzJf/Q6TRrvB9ZOobTZi5/8Dk17oNgsnIcRFNen0mjvS3JdfIWyhGLI2ZOrRefzDyoyU1N4ieVsrfMpQBLQ7IJeIGWHShtVi5h6ZgZDyw/kOU2zIv3uNdpqntTcQy968vlnFEzaHZ4P/KxM6cOL24UiQtOLlYbtdSNYK9VzdKFSD+yE2+Th4+6KjVTN81Z/zR5yc3Xn0Knz6LxfpbkGL6Z8x9OCsaapa5yXt+fG5awb/3Ni2DZa4VISf1CwTL/a2I2MMp9P2SUE39YGxCKvP/QSIsRtDZHbbSy2Pnk2lFjFEbp/UJmG7bsJ1OES62zXKU+7HLmJbptXrqNo8g7/EjcHL59nky5OdxXsMrNH2GWYFf1Zf4i/XhLLfWD6Gnk4LWYs0u9BFP4PY0yG098RX2+beTSVfSHWoGkuL2OnjMOJb4avs6blyqRsvwCsGz2QH6FPg2xprEbbqh8R5a8iZaviaU7ihrZL1LummFkFfYd3VC1raTzS32pw8CazQujhL3IHJsivnlxMp9A6nBQUN7aYWQc9gNnFc5XIpfSqj8K1b6iuE3rnjOmUMEBFMQsMy90NWNVDHaj8Zvvqu4WbRpDxg5z6GA5d0dRQN+MMKWxkWUt0Cn/ukawSuRXsPSn1nm38ZtJJV3RJhpj7EBz1MJRwTcjyHRsJHebpZ97TD/WRmHkOLLo+xGpRa2mtHXTKWLtRcpqlRL+coZcFc3avDRfRj65W9GUnZolTpXs6+4zc8zJFJG44WLixR9JnQ4eUPQ0B/JafJoUuWtpuPlQWlUnBE13cqH5R0uYccTOw3W5hZ0HZSLxU0jfjzKj8XxCUjQvlwjrOJEqWPHAXNO4O/XzIv861eZFRnn/GUkWI9aSetplFDvflTryGxFmXuHmxmqjemVDmHotaZ4uRNfJepsXVq64d6UZ659Gjy/+eEv9/INomubgRYvjMxlr1tEm/twYxmeXj4Fg2esqdkn9okzBMv+vG15ilPuu1FpOvDo9GVet+qCvnfqxTn0HIaCT+qMzVun9R8w2cqbsGVbCpdZ1UapYOXNd0LfzRM8u/Eh66NzFDIaVD1EhY5WbTxXVmaHPMIywVt82G9QfnjcvIYUvyiWEkTdGT7TFhY+mY/zz/eDTewniZEoomnNYTFtZ/kawbCbXd8aYaSFInu8Ga4/BiNhQiD4jg1DnCtVIScqEfXB/qKfXFj4D+tR7nlHCvjXmqEHf1gPqcNCDaVczGFTJONmN4D16ImwvfITp459HP5/eWBIng1JwAC1l5oVQxaC63HM7Y2N0tHeGSzvujp4xOnckyOWKx9BpHcwS+R3E9KfWuUq6dsYw7mgPZ7VwMO7cEaQqNMrSD2mNfWGqkJmSCdOgAVCLagDPuT9i83wvZLZKCX/9FspVn5bL6NSD15+GeveZOSbDSsTGhvAZNkITL2YY1N8TNy+lcDk1CVftBmBInRAY4luItGT+0K1wHInl4Rq05UHh+FE9paZZuYSlYz90YMUD/zKd/YCHi9fkq7Dq0xfqaXdC30EBUE2bmVdE2gjA1Gsz86ou9uFh5Qpybub6Z+iDYSOs1c+bDUJ/z5u4lJTIWLM0B4Ub+3c9mOO0HD3Bstfskvr6wmX+5exy36xy4jW0MWoLg2oZ6ir7K6Cu7M8uvc9uIyJ7N0apdXUzccTKmeuCnl6jA5b8QTF2yXNRnXGOWNNCWVmJKj0jGDI8Q5m3CdNGLkZcuyCEL/wSu459gppq+LqjrSx/fdg24/vxmBWFjJxziPxHKGyurceU599CnSu0Qft2RnhYVlY7P3lFBSrrnakTKmHfvDmqg517I6D6ly/cWdWwRr4mKGvgq/vmYdO0kVgc1w5B4Qvx5a5j+EREieJl5oXgYqq+c7Rp0+h8zOPotB6MEvkPtehPv6FwvHgNEdGPtthnoa+vh+q6JMOJmoece5WtVsJfWC51KWWmbzSiZTK24V2sHvXuM3NMN1EbKxW12QCVlVXQM+IG4gZruHGQoZK7o69xQqE4EsuptWjLg0Lxo7mlpjm5hKXjhyLxwKO7H/D6N2prgGruDXvdtJWq2+y8wm4jBFuvzdOFTvbhpGDqRr+56x+3UavpX1mJyio9GBlyaw1jzVLT2L/reAKbFyFESurreQqW+X/vVgCj3PdDZjnxGoz8h6Jf+SFsO/GAVxduRu/CKdUpcHbpfT1fVhu27JdPCZda5yXRVsZfvJx5C2GWPO8tqrPqpL34LZ0/Yl6J9C07cZnT34DaSqEcXMDrc9HKV9SvvpqAVP2BmL10HsLVCkRClZx7N9/E69k0qyw/22byynP4Z5A3Fpy3Rehr72HV13PhX5qPOlcwQlDYUFREf4OorEoois/jm28Po4iZeNQ0b45tYGzcHgXXslDO3VMWHEGMthr51VeRkKqPgbOXYl74KPjhCA4kVHH9C9m+FcvM1/I4Oq2DVSJ/b/Jj+ghTP2KxX4kH+QUQDjkjeHIxID+2A7HqJIPTH4diwMI/4Nwquq1iyPWoGb7R+jIyc8zlUyI2rkbS3t+gTgfp2LLzMvyHDuBSy0AE3N+HzUfVtn6YuhFbL7ogpF83vpEg7DxcR8vyILdp1uffBHB9NSuXsHS8F8mseOBfxqJeXqzDiNNXP5Qf2oYT/DUhFDcRvesU+Gmz84oBs40QTL02Sxci/TSAnSsenmGvf4JUJ2Hvb+mqX1BVpm/Bzsv+GDo4mLFm9VM1EeMpbV7ESup3Ei7zP+llRrnvDsxy4rV0fgErVw/EyQgfePt7Yfi6O+im+glDW3bp/fasNmzZe/VllFrnzPP7Al/0/yBe1V4QLeXMWwSz5HmQqM7adLiHX1/qpSrxPuI7U7y/ajZc6r/T6OAGD6ujWDJ4FrZbT8Rk+wOY7huIvn69MHGvCXytC5CT05xNl0kzyvKL2EwvEJPn+eDoVM5mwcHo1X8VlG8uQgNXCPsY308qxIpgK1j0motz7exhZGAEo8bv9uvRtk94M+ZohD6TZ8L10Gvw9fNDz+E/odqlq3hgte2D8Mn2ODDdF4F9/dBr4l6Y+FqjICdH84L6tGaZ+RoeT6e1MErkTxjcHP0JwNRPHtuPK3/HAt/++CBe+A1Dp7AVWD3sPCeTF3pzf+GHAvCvZWPh1Cq6NWLIZdss32h1GVk5pldfERu3QYd7v+KlXn7w4/LHd6bvY9VsFy61vIxPv+iHk6/6oGeAL3qO+BadFq/Du2JCMPNwPVqUBzvAzcMKR5cMxqzNpc3IJSwdT8BgVjyIuWy9vLj5Zt0up/MLK7F64ElEcOuCv9dwrLvTTfWLHbG8wmojCFOvzcmrHLrYRyRX5Pmy1j8GbTrg3q8voRcfCyO+g+n7qzDbzYqxZvlrGomgOvnyFGGW1GeV+WeV+2aWE69DXnydUlNyqHFlf7HS+6w2PMKyC5dar770Mc34kD9Nr4XmljPXBVbJcwGd8YfiXAKWUUJRHqWlZFNhwwPdtSg4nV1K5ObIHxKVF3P9JNOV2xWPKbPuZfnFbFZdxD2XkERXmtS6JypNjKYtJ29pfEpBt9YMJYuXtwkehGtAc+cou0/XUi+TrlXsuQGomPOb5Cu3SWBKArRSmfl6tFSnjREskf/YPiKiH8HYr6ZLH8+gD/lfezDhdJiXRsnpt6hhNf9W0i0rJzXLN56AjIwc09TGNQdpE6iIkyElu5AapwNF2S1KS0qh3GYIIZZTa2luHlRw/nUpkZO95tS67rmEpWOxeGDRIC82gPPf66mUklPUcD0TjQtGGwZsvTZHF2L91MHWjfD614SaA80JRdw6n0LZjRca1polglSY8YmgQGZ0JK4HTf3LV5+Wxb4B70Vd8dvZlfBr8Tv5vy6yE+8iYNJpDJj3CryRjqjvYuD6VTy+/zOqTEs8ORSZiI68jqCpz0Eq+N5SZIh9wxuLuv6Gsyv9Gp2pk5B4DGSxeMN7Ebr+dhYrW2mhkTYv/8dR5p/A1lPtMHJ8H3T9r0z6Vcg78TN+2pOMQn0r+I2eioj+NlJilpBoghL5J7biVLuRGN9Hy1efEhLNQZmPE1tPod3I8ejTSguNtHmRkJCQkJCQeKaQNtcSEhISEhISzxTS5kVCQkJCQkLimULavEhISEhISEg8U/wf37wocCPmB0TG85e4frJUpe3EV7vS1JeblpCQkJCQkGgx/8c3L6Qq556Yq/3y4o+L7PxGLN94QXV1QQkJCQkJCYmWo7+CQ3O7lajC7Qu/I2pPHNJLTeDk1AVG/MPKEmQe24NdB47hYnYFTByc0KUt93BxFs5frUS7+/GI2hmHHH17uFrKkLpvK3bF34SRgyssVVf9U6Ik8xj27DqAYxezUWHiACe+g8YwxlG1vxKL6OjDOJ1ZVvt4W1NL2Dk6wcaUl7IC2Ud3YMcfqajoYo7qq9w43azQuVwtY/viM9ix4whSyszgrGVeKrh2sVE7EJNRja6PTmB9picWTvLj2uk4FwkJCQkJCYkmtPJPpctxeuUojP+xDUb8zQMPYvfhzoTtOPZRD+ybOhiLrgZh3ABzFJ3ZgX3VcxAbvwyex9+A12sx6GrjCR+vRzix6xZcuNfIjHvCMX8/dsnfwMnYhTD+bSoGL7qKoHEDYF7EbSL2VWNObDyW1b88tTIPWxnj9Dy3FP1fOQTXMQNhnH0AuwvGY+fpf0L2jvqiTBdXOiJ28TD8fbcFXhjaBZfjTuP6ve54+3ws5ue8Ca+ZcTC3doOvfwck7zyI9otP4o83O+M3xnj+FbFYNPjv2GP9AoaYpON0fBayA/6NO7unoGSrDnORkJCQkJCQEIbfvLQahZE0zqIvfZSivsBvddo6mh6xlhIrkily6Sr6o1B9aWHF7XX0nHEorX+gvjy9U7fxtPku/0wRbRpjTA5zDlI5/7qCb2iE6ViKLJNRcuRSWvVHofqSyorbtO45YwrlO6iPjDWOnK58GkLWYzfQDV407nWblq+h2DsPNZfDTiRF7hoaZhVG391Qt608v5R8Owykz6/J1TKaT6CfC/lnFJS3dhgZh/1AD5jjca/5z0iyGLGWclRPlVHsfFfq+OJG7paOc5GQkJCQkJAQpFXPvFRlpiDTNAgDXNWfIBh4zsWPm+fDr4M3Rk+0xYWPpmP88/3g03sJ4mRKKDSnV/VtPeChqoDeDsbGHWHv7MLdAvSMO6MjySFXGMF79ETYXvgI08c/j34+vbEkTgZlTQc1GLHG0YfzmGkISZ4PN2sPDI7YgMI+IxFkUTf9qpQkZNoHo7+1+rG2PgPQp97zKhlN+Ft6MO1qpi4Pb8AarxrpyVdh1acv7FRddELfQQHopKp5peNcJCQkJCQkJARp1c0L9PWhV12F2qLvymLk5dzDw7xNmDZyMeLaBSF84ZfYdewTDKt/xINrV/8LkzZtGlW2VOZh07SRWBzXDkHhC/HlrmP4pEEHapQi4+h7zEJURg7ORf4DoTbXsH7K83hrf91B3Tbt28HoYRnKaoqDyitQUVnvGzU9PdQvtMwf9lUwx2sDo7YGqJZVoaY7UijVt3Wci4SEhISEhIQwrbp5MfIMQW/5MeyIvadaqMtPf4zQAQuxNzkBqfoDMXvpPISP8gOOHEBClRxyeV0ZcVGqryIhVR8DZy/FvPBR8MMRHEio4to3/LSi+iprnEqc+2cQvBech23oa3hv1deY61+K/PyHmpZA26AwDK2IxjdRWahUFOP8N9/icJH4cSD2eAbwH9oP5Ye24cQDbo6Km4jedQoVfHeic6nEg/wCFAlX9ZeQkJCQkJDgaN1PXjqFYcXqYTg/3Rdevbm/8EMI+NcyTBgcjsn2BzDdNxB9/Xph4l4T+FoXICdHx69K2vZB+GR7HOD6Dezrh14T98LE1xoFOTmaF6hp24c1jh4CJ8+Dz9Gp8PEORnCv/lilfBOLJphrWnJ0DsPH309C4YpgWFn0wtxz7WBvZAAjo0afAtWDPZ4cnV9YidUDTyLCxxv+XsOx7k43qH40JTaXykN4O6Av3jsm7V4kJCQkJCRYPJHCjMryfGRcK4GJkxtsO2u+bFGU4Prl65CZu8DFskMLdk0KlFy/jOsyc7i4WKIDqwOxceTFuJ6Rg2IjW7i7WajO1dRSloTdeyvQO7w/bDmRlXlfYURAPF7P3oaXO2leI4TovDiZb2TgptIWPR1N633tpONcJCQkJCQkJJogVZWuQXYC7wZMwukB8/CKN5Ae9R1iXL9C/PdjYC5tLiQkJCQkJP4ySJuXelTlncDPP+1BcqE+rPxGY2pEf9hIl16RkJCQkJD4SyFtXiQkJCQkJCSeKaQvRCQkJCQkJCSeKaTNi4SEhISEhMQzhbR5kZCQkJCQkHimkDYvEhISEhISEs8U0uZFQkJCQkJC4plC2rxISEhISEhIPFNImxcJCQkJCQmJZwpp8yIhISEhISHxTCFtXiQkJCQkJCSeKaTNi4SEhISEhMQzhbR5kZCQkJCQkHimkDYvEhISEhISEs8U0uZFQkJCQkJC4pmidTcvyns4Ffk19l6Rax74qyFD2q41WPd7Jqo0jzSkCmk7v8KuNDkUN2LwQ2Q87io1Tz0VFLgR8wMi4+9q7rOpvHkDd1pDNsUNxPwQifinO9H/I+hqz0rcvHEHf5oFBH1AhvTdX4nESsupStuJr3al4WlkiVaLkyeMrjp5cvPRPffowtO0sVYUOTj4nzWISi7XPKCdv5T8T5G6eevmD7X+qOs6UnkTN1rJgVt585KPQ1/+Ez8nt3a6ax2Ut7dh+T/2QebgACPNYw2R4fzG5dh4oRJUnIXzibmoIM1TTwVCcdZ5JOZWaO4zKNmGqSELEVOpuf84UDGyzici9+lO9P8IutmzZNtUhCyM4bYwfxICPqC8sx3LF+3GI3tWrLQc2fmNWL7xwpOfb2vGyRNGJ5080fnomHt05KnZWAdKDn6Mt3+6A6senTSPaOevJP/TpG7eOvhDfX/UaR0pwbapIVjYSg6sv4JDc/vxUd7BsfWbUDhgISZ6GWoerIfsJs7sjsLeE5dR0skBjt3aoQ3/uLIEV2KjEX34NDLLTODg1AVtVQ20oOQVdhWV7e4jPmon4nL0Ye9qCVnqPmzdFY+bRg5wtWyvHkN+Gxd2HsRViz4YGOCJHjVjc5RnxSJqRwwyqrvi0Yn1yPRciEl9LWBp5wgnO1NV8q66fQG/R+1BXHopTJyc0EWT0WU3z2B31F6cuFyCTg6O6NaO71WJkiuxiI4+jNOZZTBx4F6v04SAtqaWsHN0go3xQ/Xc2hfjzI4dOJJSBjNnftwK5J7djg0bs2AWEgD37pborCfH7Qt7sH13HNJLOsHBsRvatVGiKPMcskorkLZ/HxJLFHiYX4q2tt3QQa0Q3E45hRzqATdnezg62cGUnxOvpz3bsTsuvZ6NlCpHvlrZHsVndmDHkRSUmTnDqUYJLWmjC0+gX+WDKzib8RBdrE3Ae6jiTipO5Shhay7HNUF9a9qVZOLYnl04cOwisit091Gt9qzOxdntG7AxywwhAe7oYdmZOe8G9qzsCMO8/BbIW8X5yu+I2sP5SqkJnLjHjbhnTC3t6nyAj9Mdh5BlEYRBgZpYqYk1xnhaKc9CbNQOxGRUo+ujE1if6YmFk3qh/MpZZDzsAmsTlTVwJ5XzSaUtzKuzcC6rFBVp+7EvsQo2bjZoXyY0J5Y/VOsYJ2rxxGipz2hFUCd+qnwj5/LNnu27uXxTk1cetizuq6xg/TCd00873I+Pws64HOjbu8JSlop9W3ch/qYRHLic2Z7TQ42vWuEGzl+tRPviM9ix4whSyszgrPITHi63ZR7Dnl0HcOxiNipMHDhdayJBZD7CeVILKp/LxCPDu4jbHo1Ttwxh52KFjpq33E11xPWpLELmuSyUVqRh/75EVNk4w/DBfTiMmYkwZ34tkOHmmd2I2nsClxv7QKvKX4kbiWdwU88OFp3Ur1XeS8fp7GpYcjGur3pEhCouB/wehT1cDig1carLb0Jr6BOJTT90rsldpgYC61njdag77KzVOcT4IffGX8B/qnPPYvuGjcgyC0GAe3fwqY7lS8qSK4iNjsbh05koq+9j9aHWpDqJlvt3oZe3VWgeqEdxHH0QbEWOg6bQ6zNHk7elK03ekkNyekTxSwLIPjCc5r81i0LdLcjv/ZPcozpQGUPznLuTe1AwjZsxg0a5dSHvsBdp6PAImjdjGDl2GUT/TpcTVVygz4bZU48hr9K8ORMo0M6dpm69Tgqui+KYd8nX0o1GzZhN4f18yM68A724sYzreh65BCyjxGqislMfUn+r7jQgYi7NDHMnq8AldLyMn9IHFGzlSIOmvE4zR3uTpetk2pLDzSh+CQXYB1L4/LdoVqg7Wfi9Tyd1mxDFzHOhgGWJmrk5kVdwCI2b8wZNDramrkNX02VZLm2ZG0CWhjYU8MIyOlBaQRc+G0b2PYbQq/Pm0IRAO3KfupWuKyrp4OzuZOkQRCOnTqFp/7OKZjn50dIL3IR4yvfRDMfe9M/zh2meSwAt4yfK1BMvlzM5eQVTyLg59MbkYLLuOpRWXxbTrUgbXXhC/T76fQZ1D/4f4t2Cp/Sn0WQS9gMVsfTNvU5x61eKcLajvpMW0DtvRlB/W1MKWplAGk2KoN2eqdlbaG6AJRnaBNALyw6IzruBPT9Z2wJ5y+jUh/3JqvsAipg7k8LcrShwyXEq42Wr8QFWnIroRyvFMfSuryW5jZpBs8P7kY+dOXV4cSMnzSP6fUZ3Cv6fdC4P8JTST6NNKOyHIqo8OJu6WzpQ0MipNGXaZxR/jTUnhj+kZusYJ6qBRWmJz2iFqRPeBT6jYfY9aMir82jOhECyc59KW69da1ncfxan0k939yAKHjeDZoxyoy7eYfTi0OEUMW8GDXPsQoP+nc6NWuerfO5zdvKi4JBxNOeNyRRs3ZWGrr7M2UhBt36NIGe7vjRpwTv0ZkR/sjUNopUJvN+w58PKk1pR6bc7ufn6U+j0WTTez5IcwzcT31RQR7wxKw/S7O6W5BA0kqZOmUafnS6jE297kM/iMySjYor7IJisHAfRlNdn0mhvS3KdvEXVX+vL/4hi3nChHnP/IPVqKKP4dzzJ5x+8HFooO0Uf9rei7gMiaO7MMHK3CqQl6gXnKcZmnT8Irmfljdahe3U5RNh/Uil7y1wKsDQkm4AXaNmBYrYvPYqnJQH2FBg+n96aFUruFn70vsAC+pQ2LwrKXTuczIeuoqsahT7YM52cXObT0Yor9GmINY3dcEO1GMiSN9HyNbF0R4ekonJup240fvNd1d2iTWPI2GEOHSzn7igK6JsRpjQ2soTubhpHNkO+qB277PDr5OK1iE4/yqP/jLSgEWtzOAn5J2JpvmvHRpuXQoocZ0F9P0pRL1bVabRuegStvZhFa4eb09BVVzWJ9wHtme5ELvOP0JVPQ8h67Aa6oZ4QbVq+hmJ1m1DDxc7JnCb8XKh6RpG3loYZh9EPD7g7hd/TKLPxtIVTs+LuJhpnM4S+qJscve7iRYtOl6qSmNWUnaoA5Ps+9qY7eauCmEvAO6eQw4D/pYyKGqeTsfUk4+VyIvMJP5NKGkUerR1mzC0yhS1ow09AG4on1K+WhYihb1lyJC1d9QcVqkyooNvrniPj0PWcxbWhmz0Lvx9FZuO3cElOfN4N7NkSeQsjaZxFX/ooReXJnCuvo+kRaymxvM4HmHFawh5PHAXl/WckWYxYSznqIKPY+a7UUZfNi9UU2ql2XhEbiPiDTnGidSlpkc+II6ITxV3aNM6GhnxRk1fK6PDrLuS16HSL457XT7fxm0mVJYs20RhjB5qjTpJU8M0IMh0bqXld3ebFyXwCqafFybp2GBlz833AZY7kyKW06o9C7lH+qdu07jljCl1fKDKfXEaePKq6J4pGvy/+eEs93oNomubgRYvjb7F1pNq8WNGUGsfhZK7ZvDzKXUvDzYfSqjrnpulOLjT/6MMnIr8s/h3qaf8a7eFFqTxGb7oH0vIkdeyJURg5jiz6fkTqMK2mtHXTKWLtRcp6qrFZ4w8X2OtZPX9U2are5kXYfwrp+1FmNF7VgOVLD0h+5VMKsR5LG9QDUvKm5bQm9o76dfV4Sr82qkZ60lXYDRgCR83nZWZDh8C3MA3J950wZloIkue7wdpjMCI2FKLPyCBY6CqZvi08PMxUN9sZG6OjvTNc2nF39IzRuSNBLpchIzEVD5JWIdTDFa6urvCfsxP52WlIK05H8lUr9OlrB9VwnfpiUEAnNPhAsCoTKZmmCBrgCgP+voEn5v64GfO9MpF01Q4DhjhqPgI0w9AhvihMS4XzmGkISZ4PN2sPDI7YgMI+IxGk84TqoZqbieqmnmlXmBlUQSZreNhJnpGI1AdJWBXqoZqbq/8c7MzPRloa/12lPmydeoBXB9AW/SaPg97ebTgnK8L+7XFwfTkcrrWfX8rZelJ97cn15eEBlTR6puhqZoAqWUUL2sj4e1poiSy69KsFhr6NvEdjou0FfDR9PJ7v54PeS+IgUyqaf5hPqz11mHetPTmaKe/DzBRkmgZhgKvKkzlXnosfN8+Hn/ouh0ic8gfxdPDHpnB9Jl+FVZ++sFMHGfoOCoDmk3RR9G2d0EMzWXEbaPcH8Th5DFpbJ/IMJKY+QNKqUHjwcrr6Y87OfGSnpfEvrEX3uOdR60eVJdsZw7ijPZzVSRLGnTuC5E09Wd/WA+pp6cG0qxkMqmScvo3gPXoibC98hOnjn0c/n95YEieDUvGIPZ/qdEaeTFbd04qhD4aNsFbnZ7NB6O95E5eSk8R1xNnEqcZx6lGdnoSrdgMwpM65McS3EGnJeU9EfqOgVzC+y0H8sr8ID09sw8GuE/CKd22wMahCZkomTIMGQB2mBvCc+yM2z/dC5p8Sm/otWs+E/Uf1lAaWL8mh7zwG00KSMd/NGh6DI7ChsA9GBlmofaAe4hK0IoaG6oRSK7+skpuMPve4PjxmRSEj5xwi/xEKm2vrMeX5t7Bf55yiD/36/tCmTcPNB4e+gQEsxq7GkePHcZz/i09CVs7PmNzFCG0NqiGrqpGKoFA2NjjXv141qqo1d/nv2PNycK/SEIaNHERWyc1P3xD6HrMQlZGDc5H/QKjNNayf8jze0n1C9dCDnsZRa6DG56G4yRtYjMXqI5q5HY9HUlYOfp6s3tC10aszsVHA3zGh835sPxCN30774pWJ9g0cgKkndVfQExCmJW104Un1q/IN/hNH1T2gsqqq9rawvpXI2zQNIxfHoV1QOBZ+uQvHPhmm03mXpmi3p7Z517dns+XV14dedRWXsjQoi5GXc6/BoUR2nPJ3dPDHJrSBUVsDVMuqavskhVJzWx2p3Jso1b/8OYGqqnodtuHGU93QbgOt/qAlTsRovs9objAR04k+DAwsMHb1EY2cxxGflIWcnyernq2lGXHPo98wSfJpUhyufcNpcfNX5mHTtJFYHNcOQeEL8eWuY/hkGG8Fsfmw86RuKLmcXHOzktO9How4HxXXURte/KZwTtxwEZWhkrujb2j0ZOQ38MMrE+wQu20Hdm89AtuXwuHWyFeE0NfXQ3XdgsOFaR5y7lU+5diso0XrmZD/aG6pYPoSh74HZkVlIOdcJP4RaoNr66fg+bf2o/GIQiZ+AhjCd2AA7u/bjKP3eNU8ROrGrbjoEoJ+xhfwzyBvLDhvi9DX3sOqr+fCvzQf+Q/VLR8fI3j1D4IibjfOyi1gbW0JvfOfY8bbvyBLzx9D+5Xj0LYTeMCJpbgZjV2nKhoq2cgTIb3lOLYjFirRy0/j49ABWPiHMwYG3Me+zUfVjz9MxcatF+ES0hvn/hkE7wXnYRv6Gt5b9TXm+pciv/UmxBmXcwzOM5WcoEZe/RGkiMPus3JYWFvDUu88Pp/xNn7JEvhcwMATr7xkhYNLP8NF7l3BWKv65hfRE/Mjhpa00YUn1S8XrsbGaF9wDVn8ryaVBTgSc6luMRekGlcTUqE/cDaWzgvHKD/gyIEEVHHvVuWNo7yF6HNZh990UKvMmy2vnkcIesuPYUfsPVWCKj/9MUIHLMT+MnVL0Tjt1tJUYQT/of1QfmgbTqiDDNG7Tml+xdcGxsbtUXAtC2pzHEHMJSFrtNAGLY2TRjTfZ7QhohMjL/QPUiBu91nILaxhbamH85/PwNu/ZLXafFpM9VUkpOpj4OylmBc+Cn44ggMJVZDL9djzMfRl5Ml+qi61Up2Evb+lqzbYlelbsPMyl7OH9GHrSARD34EIuL8Pm4+q/f9h6kZsveiCkH42T0h+A/QMnwi34yuw+FAPvPRSzac3YhjBk1tD5Md2IFa94OD0x6EYsPAPOD/V2Kyhmr2e1fNH3eDePOnzm2CuAdOX5Kg6908EeS/AedtQvPbeKnw91x+l+fncjBvyBDYvZYieYYcuXbpo/izx/OprMH/5U3zR7yRe9emJAN+eGPFtJyxe9y78OwRi8jwfHJ3qA+/gYPTqvwrKNxdhgrmmu1bAZPRKrAnNwIIAdwT29oTfrBjYjAlDT4POeGHlagw8GQEfb394DV+HO900v06qpRPCVqzGsPPT4evVm/sLx6GAf2HZWCe8/OkX6HfyVfj0DIBvzxH4ttNirHs3CIGT58Hn6FSuz2AE9+qPVco3sag1J9TBDR5WR7Fk8CxsLv0bVq4JRcaCALgH9oan3yzE2IxBWE+hjyf14cIFk8PNEgz6+2h01TxaA1tPmhcI0JI2uvCk+jXqMxkzXQ/hNV8/+PUcjp+qXdBVNAraok/4ZNgf4Owf2Bd+vSZir4kvrAtykNNK60QHNw9YHV2CwbM2t8K8ReRtF4YVq4fh/HRfePXm/sIPIeBfy/BiZ01TLh0w4/Qx9N75hZVYPfAkIny84e81HOvudFP9uoVPnn0mz4Trodfg6+eHnsN/QrVLV4Gk1EIbtDhOGtJ8n9EOWycmGL1yDUIzFiDAPRC9Pf0wK8YGY8J6ttp8WkzbPgifbI8DnP8E9vVDr4l7YeJrjYKcHPZ89MwZedJf3ac22nTAvV9fQi/eP0Z8B9P3V2G2Sxe2jkTQM38Zn37RDydf9UHPAF+uv2/RafE6vMs595OSX99lIl7uVYwy/5cx3lY3p+kUtgKrh53HdF8v9Ob+wg8F4F/LxsLpqcZmDYbs9ay+P97kN1Ta6AA3DyscXTIYs7ZbM33JKHAy5vkcxVROpuDgXui/Sok3F01A4xW0DX/wRXP7KaBEeV4Gsos6wsHDAab1lC4vvo6MnGIY2brDzaLp95WtwcOCy7hym2Dp6gGbTvUcSVGCGxk3obTtCUdTxt5YWY78jGsoMXGCm229n7pxj+dlZKOoowM8HEzV52J45MW4npGDYiNbuLtZ1Pv+uXVQllxHWo4Mlj3dYMF/2vawAJev3AZZusLDptNj7UqZehKhJW104cn0W4UHOVdxt70TF3wdNI+Jo+D0ffm6DOYuLrDs0HrzU6NEyfU05Mgs4cf5Cs/jzltMXmV5PjKulcDEyQ22nYX8nR2nLUeBkhsZuKm0RU9H04bvQKseIOfqXbR34jZxIuZoiQ1aL06a7zPaEdEJ9z6z4PIV3CZLuHrYoMYFnmTc6wYn8/XLuC4zh4uLJRqaQWQ+rDwphiwWb3gvQtftMXi97S1UWrqhR9f6v/8V1pE2lOV5yMguQkcHDzg0cO5Wll9FEba+EoxdY05j26Qumsd0gYvB/AxcKzGBk5st6sL0KcdmDYz1rIk/akNZgutpOZBZ9uTWeQMRX5Kj+HoGcoqNYOvO9S2wgD7lzYuEhISEhIQO1GxefjuLlXWnyp8ZZOn7sGHXr/jut25YHb8GQztqnpBoFZ78Rl1CQkJCQqK5GHrglQ/fx2j7Z3OZ0qdS5Bd54L3NH0sblyeA9MmLhISEhISExDOF9MmLhISEhISExDOFtHmRkJCQkJCQeKaQNi8SEhISEhISzxTS5qUBClz/Yz1+Pq2+iFEDFDcQ80Mk4u8qocg5iO+2nMGD6rrHGlOVthNf7Upr1iXkW9JGF8oSd2J3SiteJO/PpCoNO7/ahbRmKUmBGzE/IDL+ruY+i0rcvHGnqe2fFvV8rA4Z0nd/hXW/Z6JK80hrorgRgx8i4yHgwkwU1//A+p9Pqy/a9dR4RmzYbBTIOfgdtpx5oL5beRM37jw56Stv3oDO3SsLcGLbQWQ3MyEpbsZi/eqNOPkE58HzpPLlXxLB3CDEn+T/LcrLOiAyb2nz0gA5MqL+hTWHbzc1PvFlxxORW0GovhyFT76O4ZJA3WONkZ3fiOUbL6iuDKkrLWmjlZIj+OCdvaiyfDLXznnqyM5j4/KNuNAsJRGKs84jMVf8ktYl26YiZGFM6+q/OdTzsRqUd7Zj+aLdeGTvAF0r3DcHKs7C+cTcRlfVFIeKruJc4nU8fKpH/Z8RGzabalyO+gRfx9zhbpdg29QQLIx5QtKXbMPUkIXQuXs9c3TJXYMFa5qzQZDj0vfvYslH/8CiHy5zW7MnxxPJl39VBHKDEH+a/7coL+uAyLz1V3Bobj8+yiJknstCaUUa9u9LRJWNG2w6KnH7wh5s3x2H9JJOcHDshnaqK/gpUXIlFtHRh3E6swwmDk7o0lapSlCZjwxxN247ok/dgqGdC6w61uyxZLh5Zjei9p7A5Xp9KfkEfLUS7YvPYMeOI0gpM4OzUxdVsleWXEFsdDQOn85EmYkDnLporqSjLEHmsT3YdeAYLmZXaMZXIHvfN4jt9DcEl8Xg94S7MLJxgoXq6jltYWppB0cnO3S6vgdfHzdDxPTn4GKlfsyUH6w8C7FROxCTUY2uj05gfaYnFk7y4+Tg5pp5DHt2HcCxi9moqC8Hsw2XBm5fwJ7tuxGXXoJODo7oplYce05NkCN11XR8b7cS//s3vriZiByCVHG2+x1RezjblZrAqVanmTi2ZxcOHLuI7AoTOHCPt+X6Lso8h6zSCqTt34fEKhv0tAGyj+7Ajj9SUdHFHNVXuTG7WcGEv2SD7CbO7I7C3hOXUdLJAY7d2jW6snF9ypEVG4UdMRmo7voIJ9ZnwnPhJPiplYQLe7Zjd1y6aD9tTS1h5+gEK9wQ9pWKXJzdvgEbs8wQEuCOHpadhftu7ONWFniYno3K9sU4s2MHjqSUwcyZ8yVeNg5hXfEI6bbOx1T+xOtoxyFkWQRhUKAneqjG54P5KnM8cQTGbGsKSztHONkZo6KB/axgWZaKjIddYG3CF09R4E7qKeQobWHZ1UzdxtaU7dta5JTdPIPdUXtx4nJD3xajxoY2xg+F+67W0YaCvmoo6OvCOUedp65WtkfxGc6/j6SgzMyZm7e6hWB8Kh/gytkMPOxiDbU67yD1VA6Utl1RsO9rHDeLwKTu2di+YSOyzEIQ4N4dvPjNi9ca5AI5twK5Z7djw8YsmIUEwL27JTrrCcd3HXqw8OmEI2+vQ+W48fDRpZqmLB6fvbkHPm+NwqVNqeg9cyS6My/RwhhfMDerGrDzpVibeqjWisxHMLwbh+3Rp3DL0I7L4R25mfII6Y1rU5SJc1mlqEjbj32JVbBxs4L8auO1S9WBsF+LxoKuObkuNxg/ZKx3AjlMcA1pVg4Tk4+Vl5u7zmjgbHglNhrRh08js6wmVzbKifXhfyrdaqjKkVuSQ9BImjplGn12uogufDaM7HsMoVfnzaEJgXbkPnUrXVcQPYpfQgH2gRQ+/y2aFepOFn7v08lHfBluZ+ru5kv+odNp1ng/snQMp805fA3wYor7IJisHAfRlNdn0mhvS3KdvIX4p/gS3M5OXhQcMo7mvDGZgq270tDVl0n+KJ6WBNhTYPh8emtWKLlb+NH7Jx8RKW7RrxHOZNd3Ei14502K6G9LpkErKaG6UlVOvou1M/n9bQbNGudHFt0n0ib1ILUlv2tL5FfUPUbFMfSuryW5jZpBs8P7kY+dOXVQlRZX0K1fI8jZri9NWvAOvRnRn2xNg2hlglgboooLn9Ew+x405NV5NGdCINm5T6WtasUJz0mIyuP0Vs++9FEarz8ROQQpo1Mf9ier7gMoYu5MCnO3osAlx6nk1q8U4WxHfSctoHfejKD+tqYUtDKBqkmtO0uHIBo5dQpN++wwxSzyJ0u3kTRjziQK8XAk266D6PNrnCzFcfRBsBU5DppCr88cTd6WrjR5S46m5HxjiinmXV+un1E0Y3Y49fOxI/MOL9JGtZLos2H21GPIqzRvzgQKtHOnqVuvNymdzimiQbl/IV+R5W6huQGWZGgTQC8sO8Duu7GPxx2kec5O5BUcQuPmvEGTg62p69DVdJmbjIKpK2HdltXzMaaO+NcwxhNHeMxCTh8uAcsoUeP7dfY7Rr/P6E7B/5OusUsp/TTahMJ+KOLCfDY59V5Bl6pFfEpEzuK4DyjYypEGTXmdZo72JkvXybRFFeNi1NmQ1Xdqto42bOKrMcL2YOYcdZ5y8gqmkHFz6I3JwWTddSit5ifHis9Hv9OM7sH0P+maeZb+RKNNwuiHokcaPadQ7pa5FGBpSDYBL9CyA8XNjNcaKoRzblUubZkbQJaGNhTwwjI6UMrwQU0vdZTT7mlONOxLVnw2pPz3meTY6306Vx5P7/S0p2m7SzXPNIYxPjM3c01Y+VKsTSNU8d/djXz9Q2n6rPHkZ+lI4Zv5uTH0xiUT3t+7WzpQ0MipNGXaZ3TsmNDaJeLXzFhoRk6ulxt0zWHMNUTnHCYmHysvN3edqeERxS8JIPvAcJr/1iwKdbcgv/dP0qN6827ME9i8WNGUneoQUNzdRONshtAXVzVuX3aYXnfxokWnH9KVT0PIeuwGusHLJEumTcvXUOydh1xScCLzF3+kW6oV6AFFT3Mgr8WnSZG7loabD6VVNX092EPTnVxo/tFKlTGdzCfQz4X8EwrKWzuMjMN+oHtXPqUQ67G0QT0IJW9aTmti75CCGy9y6Sr6o1C9zClur6PnjENp/QM+qdmT+diNlK966j7tmGJPPu+dbeA8TTcvMsr7z0iyGLGWclTtyih2vit1VG1EuHEjl9KqPwrVi6riNq17zphC1xey2yju0qZxNjTki6uahFFGh193Ia9Fp0nOmpPqdQ2pTlpOgY6z6WAlf48lxwP+XlMKI2mcBbfxSVE7TXXaOpoesZbOXYykpav+ILXqFHR73XNkHLqes5R6QbCaspOTlnsmdw0Nswqj726oJas8v5R8OwzkNi9VlLt2OJkPXUV1ppxOTi7ziTNlExR5/6GRFiNorVpJVBY7n1w7qoPk7qZxZDPki9p+yg6/Ti5ei+i0TH2/joabFyFf4bVQ+P0oMhu/hUtjIn2XNvRxlV84mdMEdYecvGtpmDG3KHEdypIZumLoNrG8zp+YOiphjycKY8yzhxtuXmrsxycT7ZsXEZ9i6aUwl9YON6ehq2p8+wHtme5ELvOPqu6xabR5YehAJxvKGs2VoZuLWaycU6LOUxN+JrUb5dHaYcacbh6w41Pr5iWde7CQvh9lRuO3VHC3mxmvGtg5lwuKwu9plNl4UnXP8kH13XooKP+bEdR17CZVjIjzgLZPsuU26CncBr2akpYHkPmYn6hAHboNYY1fwcrNXKyy8iUzn6vuNkAd/y/Sj+oFhh5ETyMHr8UUf4utN9XmxWoKqUNeLrx2FVxj+zXTX5th43rrj045TGQNabxOt0Q+dl5umd9ygUOfhljT2A03OM/h1bqJlq+JpTsP6+bdmNY/86JvC6ce6vMV8oxEpD5IwqpQD7i6usLVfw525mcjLa0SzmOmISR5PtysPTA4YgMK+4xEkAUvjiF8ho2AtUoyMwzq74mbl1JQnZ6Eq3YDMMRRU3nBbCiG+BYiLVl9gE/f1gMeJvwtPZh2NVOVPpc7jcG0kGTMd7OGx+AIbCjsg5FBFtAz8sboiba48NF0jH++H3x6L0GcTAmF6otdQ3gNHAxL1fimGBDSE9e58cWpRnryVVj16Qs7VbtO6DsoAOpPWY3gPXoibC98hOnjn0c/n95YEieDUvGI3UaegcTUB0haFQoPXm+u/pizMx/ZaWnQd2bMie+iEfLcXOR3s4WtSmUsOYS/za7KTEGmaRAGuKo/8zXwnIsfN89HH7/RmGh7AR9NH4/n+/mg95I4yJQKzXfi+rB16qGqe1GVkoRM+2D0VxsSbX0GoI/Kvpyukq7CbsAQ1JlyCHwL05AscCirOj0ZV636oK9aSejUdxAC1EpCRmIqHiStQqgHryNX+M/ZifzsNKRpqdYu5Cv1Kt5zaOm7no+r4O57qDuEnmlXmGlK6Bt5C+vqIUO3dVdA16IjxnhisOzp26CQSZ39dEOLTwnJWZ6KpKt2GDCkpsKuGYYO8UVhWrLqns5o1YE2/6jnqwzdeGWK5RyuvYcH1G5kiq5mBqiSyZoVn+I0L15rYOfchkHBmnPTq/DrwczGGka3cpEnPjSUt6Px80E5jK7/ghUfrMC2vPbAkZ/wy7WmJ1+Y43dg5WaRHGskls+bYugzDCM0eclsUH943ryE5CRxvenbOkEd8vrCa5dZhrhfC/qrQYtszKM1h4msISo4ebTnMLZ87LzcMr/lAgdjpoUgeb4brD0GI2JDIfqMDIJqyWDQ/JjSShvo1fSqbwADi7FYfeQ4jh/n/+KRlJWDnyebQd9jFqIycnAu8h8ItbmG9VOex1v71Y6iVNRYQYnKyipus2HIeZxhIwPJUMnd0eceV8EN2iAPg0D6HpgVlYGcc5H4R6gNrq2fguff2o+yvE2YNnIx4toFIXzhl9h17BMMq/1KjlRJqOZ4ED++QTsuCEVpA6O2BqiWVXESqyFuDqrbyjxsmjYSi+PaISh8Ib7cdQyfqAYTacPNxMDAAmNXH9Ho7Tjik7KQ8/Nk7inhOTVMTRracLbg/rj/i8jBQF8fetVV3DKqQVmMvJw7yN40DSMXx6FdUDgWfrkLxz4ZpjnDoaaNxvht2reD0cMylNVMTl6Bikq1Vg0N1Ym+5inIKjm76vMmbkIbo7YwqJahqk5JUGpu6xsYwGLsahzR6Oh4fBKycn4G517iCPmK5lYN4n3X83EVetBr2CGIlMhj6UpQt/caHLIT15HQeJobLHQYk6fGfvwcebg3OKp/+V8xVFU1GkSrTwnJaQjDRhsNWSU3T30B44uiXQfa/KN2rizdaMk5ekICsOJTpU7+k27VKzl1VqGxOhvQ3HitQSTnNkBHf1DB5xBOV3pql2CgxI3ffsZJ++EY4dwZHTt2RGfn5zHKLRmbNiZq3tzUgzH+Q2ZuZudLpWg+F4B7A1HTh7KS82s9I84nteitDTd/9S3htYvbtIn7tYC/KlpoYx6tOUxkDVGhQw4TkY+Zl1vqt5y8HrOikJFzDpH/CIXNtfWY8vxb0GwJBGkgfmtj5NUfQYo47D4rh4W1NSz1zuPzGW/jl6yHOPfPIHgvOA/b0Nfw3qqvMde/FPn5/M95q5G09zek81FUmY4tOy/Df+gAGPoORMD9fdh8VP0z5oepG7H1ogtC+nXjhxKk6tw/EeS9AOdtQ/Hae6vw9Vx/lObno+RqAlL1B2L20nkIH+XHvTs4gIQqOeRyvmc5UvZHI0PG3ay4hJ93ZsB/cD9Vf2yMOBn7ofzQNpx4wPWhuInoXafUv+CovoqEVH0MnL0U88JHwQ9HcCChihtLj93GyAv9gxSI230WcgtrWFvq4fznM/D2L1nMOQn9ENqgRw/Y3L2Bm3zmYMohvCM28gxBb/kx7IhV67v89McIHfA2tpxJhf7A2Vg6Lxxq1SWgiutDpbp6tA0Kw9CKaHwTlYVKRTHOf/MtDhfxkzOE78AA3N+3GUdVv7V9iNSNW3HRJQT9ujV1RyP/oehXfgjbTjzg5FDgZvQunFIrCV79g6CI242zcgtYW1tC7/znmPH2L8jS/sZFEH0uevlNB7VK39W4miCsKz0PId0uxP4ydcvm6qiOSjzIL0AR77uNELbnQhwUchwVbWBs3B4F17JQzt1TFhxBzKXapUZNM31KhaEvBgbcx77NR9U/tX6Yio1bL8IlRB1jlQ/yUSA0AR1piQ1ZuvnDufVyzsM2xjBuX4BrWSptouBIDBqrk0/gevrcIqTk/FtUtyJ2ZuZcrp0+t+Bxuye+e9ac95c17luJBzfzUG3vrPoEl2kfxRX88ksS+sz9DMvefx/vq/4+wOdvDUPeLz/iaCM/Y42/N5mVmw2Y+bJaNJ83pTppL35TLzBI37ITl7kcM6SPiN4aUCW8dt1xEfVrQVoSP1qo9X+RNURnRORj5mUtc2L6T9U5/DPIGwvO2yL0tfew6uu58C/Nh2pLwOCJbl5gMhor14QiY0EA3AN7w9NvFmJsxiCsZwcETp4Hn6NT4eMdjOBe/bFK+SYWTTDnGrVBh3u/4qVefvDrOQLfmb6PVbNdoGf+Mj79oh9OvuqDngG+6DniW3RavA7v+jf5nLMWo8DJmOdzFFN9vBEc3Av9Vynx5qIJsOsTjsn2BzDdNxB9/Xph4l4T+FoXICeHV7A+bNscQrhfAPy8RmGzzUp8OdtJ3aEInV9YidUDTyKCG8vfazjW3emG9vw7lbZ9ED7ZHgem+yKwrx96TdwLE19rFOTksNvABKNXrkFoxgIEuAeit6cfZsXYYExYT+aceM01xsDtOQzunIhTl7l5icghSKcwrFg9DOe513v15v7CDyHgXyvw/6ZMhv2B6fAN7Au/XhOx18QX1gU5UKmuPp3D8PH3k1C4IhhWFr0w91w72BsZwMhIH+Yvf4ov+p3Eqz49EeDbEyO+7YTF696FoCk7v4CVqwfiZIQPvP29MHzdHXRTK4lzr5VYE5qBBQHuCOztCb9ZMbAZE4aebJcQpYObB6yOLsHgWZtboe+26BPO0FU7Id0uw4udNU25sGyWjmqo/B0LfPvjg3iB5CBoz2V4oYPm+SYYoc/kmXA99Bp8/fzQc/hPqHbp2jBhNNenePTM8fKnX6DfyVfh0zMAvlyMf9tpMda96889WYnfF/ii/wfx6te2gBbZkKGbsU6tl3PMjfpg8kxXHHrNF35+PTH8p2q4dG2cfjvAzcMKR5cMxqzt1mzditmZmXM5mTu4wcPqKJYMnoXNRaOEfdDwEN4O6Iv3jtX0XYZTp7PR+7lB6MzZ59DbAej73jHNc3XIE3/GtqsD8co4/leNNejBYkwEQit34oc99zWPaWDofMJgdm5m5cu2ovm8KW063MOvL/VS2WHEd6Z4f9VsuHQR0VsDjITXrok9RfyaQUviRwt1/r+HuYbojJh8rLwsOieR+DYKxOR5Pjg6lesvOBi9+q+C8s1FUG0JWKiPvjxhKvIpPSGB0vL4397Uo7qIclMSKOnKHXqkeqDmUF4CFeWlUUp2ITU+e6kou0VpSSmUW9T0AI8w1VSUm0IJSVfojnoQNfJibuxkunKbP9rXlPK8dEq/Xqo57KQrciq+nkopOUWN2nGPczIkX7lNFU0GY7XhqaD89ARKSMujsoaKE55TE+R0ZdUwCnrvjEaPYnIIoyjLo7TkdLpVWiedvDiXUpKv0G2xTkoTKXrLSbqlaaa4tYaGWrxM2zRnxLhHqOxWGiWl5JIuppQXX6fUlBwqEjBIRX46JSSkUV5DJbUABaefS5TI+WMNj9u3mK6EdNuQ5umI94tLH8+gDwUOt9WgfcxGyO7TtdTLVMAf8tRQuX8mOfAH1lVdNN+nVCjK6FZaEqXkFqkO6NVQfeljmvFhouZeS2i5DVm6abWcwyG7f41SLxdwkc1AweWlS4l05Q5/ep2lW+12ZuVcBeePlxI5uTSH47X5g+Luz/Sy33TaXaR5oJURHF80NzPypZZ8XgN/2JU/oJ5QxI2bkk2FjRcY1lrVmCZrlwaGX7NpYfwwaez/rDVEV8TlE87L7Dba4ru6iMuXCUmc/4subCra8P/R7GP+AsgQ+4Y3FnX9DWdX+kHsTaaEjpTHYfGYH+G/ZSMmWT3ZD9oaIDuBdwMm4fSAeXjFG0iP+g4xrl8h/vsxMH+KYvyfQpGJ6MjrCJr6HGyekI4rkndh3efL8fmj95ER9XdoO17UPBTIjI7E9aCpeO5JTeC/gadgZzVVSP7oRfyzy1fY8YZbozMWzyay2Dfgvagrfju7UuBwssSTpXXj+y+2eVEi/8RWnGo3EuP7NPqIWqLFPEw7gONtBmOUJ/M7gidCVd4J/PzTHiQX6sPKbzSmRvSHjZQwnmGUKPhjNT4/LMfgOW/hRRcdDxdKPJso7+DMviuw+dsgdP9v2LlwKPNPYOupdhg5vg+afGsn8UzxF9u8SEhISEhISEiII+09JSQkJCQkJJ4ppM2LhISEhISExDOFtHlpBRQ3YvBDZDy0Viv/M1Dk4OB3W3CGvzbCXwoFbsT8gMh49RWSWeik28qbuPGEy+8/KerK+uumjz+FZ0G/T6okv8R/Na0af3+lOKmVRWReLYmZZrdR4t6pSHy990rTCxU+JtLmpRUgvlJpYq76AnN/NaovI+qTrxFz568mHKkq8ybmilxCkUO7bkuwbWoIFupc5/+vRV1Zf9308fR5RvT7pEryS/xX03rx91eKk/qyiMyrJTHT7DZK5B/6Ev/8ORlVmkdaC/0VHJrbrYRwWXF+EiVXhMuIs1CVLxcq/a15XrDctwpGqXXB8vgcgqW41Y8LlVlvUiLdxxM97B3hZGfKjSNUQp/vrBmw5GHqVgT5Vez5+jjMIqZjkLmeiM5EEJKHWeLfEh1K1XZrdz8eUTvjkKNvD1dLGVL3bcWu+JswcnCFZfs2aGtqCTtHJ9gYP2SXjG9rCks7tW4NSq4gNjoah09nokxTZr0i9yy2b9iILLMQBLjbwajgArJKK5C2fx8Sq2zQ00oubEMtviWMUpUIrla2w/34KOyMy4G+PTcXWSr2bd2F+JtGcHC11FxoUMQ/GWX9O9foQ1X7XdiHlSWZOLZnFw4cu4jsihrfaI5cjLL/DH1UN9Bvd1h21hMu+6+Sral9mkMVp6/fo/Zw+iqFidPTLMmvxIMrZ5HxsAus1c6MO6mnkKO0hWWHUrZvcrB0IYbwPIX7aqmfCuVa5YMrOJvxEF2sTaAO2VScylHC1rKT+LvYKi5v/h6FPVzeLDVx4nSpHl1w7soiZJ7LQmlFGvbvS0SVlTnK07Lr7tu4wabt3WbkYbVvZz4yxN247Yg+dQuGdi6w6qiRWHYTZ3ZHYe+Jy/X6qomH9ig+swM7jqSgzMy5Vm7d4k8oTtj9NsxD6jhpSa4V9A3WOqRjzHa3s643r5bEDKuN5mlRlLhzbD02FQ7AwoleKr9rgKD9OJhrYD34Xxu1Huyy4o/ihcuIi8FfUEio9Dd/PRxmuW9ilFpnlsdnlOIWKbPeuER63MGayrysEvqq6egIQx4R3YpSr5otW2diMORhVsnV2K27OwUFj6MZM0aRWxdvCntxKMxbGu4AALolSURBVA2PmEczhjlSl0H/pnR5oyrBgiXZ6y4qlVgWT0sC7CkwfD69NSuU3C386P2T5ZS7ZS4FWBqSTcALtOzAPVW1YEuHIBo5dQpN+3Q324YivsWGl9mZursHUfC4GTRjlBt18Q6jF4cOp4h5M2iYYxca9G++OrCIf7LK+tevmszw4ZJbv1KEsx31nbSA3nkzgvrbmlLQygSq1lkukbL/gvpIpewG+i1ll/1/JGQf7ReaqqHs1IfU36o7DYiYSzPD3MkqcAkdL3taJfnZFbTFfJOpCxGE58nuqyV+ysq1tdXwNY1LfxpNJmE/kOj158pO0Yf9raj7gAiaOzOM3K0CaQknMHPulXzFYktyCBpJU6dMo8/i9ja8f/R08/JwjW+7+ZJ/6HSaNd6PLB3DaTM/VnEcfRBsRY6DptDrM0eTt6UrTd6Sw+lG3cbJK5hCxs2hNyYHk3XXobRaZTRd4o8VJ6x+ZY3yUGmLcq2gb5SIrEM6xey9evNqScyw2qhE1gG+urg/dXl5G6fVRjDtx/KFhrTq5oVdjv2hcBnxO+LG5I0jWPpbrNy3YKn1NRSzgVEe/yGjFPcjdpn1hiXS1XLyCyy7hL7mcpa6wCgNXnBbpNS9GDWbjNQCts7EYJUqrxDfvDh1G0+b7/JPFNGmMcbkMOcglXP3FAXf0AjTsRRZVi9ZMEuy1+n2QtqnFGI9ljaoHYiSNy2nNbF3OK8opO9HmdF4VZ3/StXmxWrKTm52/MtEbMjyLdUrWfAyO1G38ZtJPbVNNMbYgeYcVM2MCr4ZQaZjI7mbLP+MZ5f1r588BX14LZ27GElLV/1B6uko6Pa658g4dD0ns25yseNTJqKPevpV5DLL/suvsOyjC4UUOc6C+n6UovIxbsK0bnoErU2seEol+bVsXoR8s5CtCzaMeV7MYvbVfD+VM3NtSzYvhZHjyKLvR6R2xWpKWzedItb8Tl+y5q7avFjRlNrkWP++gu5uamYeVm0YnMj8xR/plsqgDyh6mgN5LY6n3LXDyXzoqtq+HuyZTk4u8+lopabNhJ85jXMo8mjtMGPOnoU6xR87TkoZ/fLWqB8nIusTE4ZvnLvYghzWMCfWzqsFMcNuo7qrA6zNi4JtvwqWL6hfV0Ornnlhl2OvFC4jLlbvWoNg6e8qdrlv4VLrr8PwEqM8fiWjFHc78TLrdSXS65BfFiuhryOM0uBdMnUrdc9EW4l0Fi0oVc6jspvq8qvtYGzcEfbOLtwtzorGndGR5JA3rpIvWJK97vCbvvMYTAtJxnw3a3gMjsCGwj4YGWQh8HG3PmydeqjG0lYqX2tZeUG4/j081FeWbWcM4472cHZRzQzGnTuC+AJkTF1fYpf1r4ewD89HH7/RmGh7AR9NH4/n+/mg95I4Tl6F5iCcdrnY8an2Ia36qE5nlv3X3T4CVGUiJdMUQQNc1VfVNvDE3B83Y75fh6dXkl8MId8sT2Xqgglrnl6Zon01z0/1W5xrm1KFzJRMmAYNgNoVDeA590dsntMGKWJz5/TlVD851t6XIyOxmXlYJbYhfIaNgLXqthkG9ffEzUtJSE+6CrsBQ1CXbofAtzANyarT/ep4UKvNFF3N+Crt5TrFn3icCPXbqMZUS3Ityzf6+LVaDmtJzLDbPC7VbPvdd9JpzWl09zERKccuWEZcrN51DYKlv0XKfTNKrcuZ5fGFS3Hvu6qlzHq9Eum1aCmhrxvC8hyo0rHUPRNtJdJZMEqVq6p9ipT45+ygXnrVtGmjzeEFSrI36M8Ds6IykHMuEv8ItcG19VPw/Fv7IeRBfPl+Hq2l8rWWlRdGn/PzOtpwc9PcrIWl678zy/o3QNCH7yB70zSMXByHdkHhWPjlLhz7ZFiD74G1yiUSnyq06sOQXfa/GfZpij709apRVTdhFOfl4N7Dp1WSX60o7s2c6l/OmVHVwJmFfFNEF0wY86zU0lcz/ZSVa1Wz5D9tV72KD9kq0X549PX1UF0nMOeKeci5R1rm3oYXuR519/WbmYdrlgglFyeaW6jkco2eEaczQ/XGoVYKWSWXe/X5NKxCr4nRuGVap/gTj5Om/TbWYktyrbBv3MluvRzWkphhtmkF2PYT94UaWnXzwi7H/lC4jLhYvWsxRMp9C5dafw+3Ahjl8R8Kl+K+mda8Mus8Br3ESuizy9g3gFEa/J6jriXbGbS0RDqrVPkjXUr8tx7V5/6JIO8FOG8bitfeW4Wv5/qjND8fD7nQ1dPnApav89+I5pbKbzWYur7BLOtfH2EffhtbzqRCf+BsLJ0XDvV0ElDFf6Ki43TY8SnmQ/X0a+jLLPtfdY5lHx383sgTIb3lOLYjVt1v+Wl8HDoAC/cmt3pJfmHawNi4PQquZUHlzQVHEKPNmUV0wYQ1zz+cm98Xkypmrm1jbIz2BdegDtkCHIm5VLdBFsQIniG9IT+2A7FqgXH641AMeO8OerdIXiN49W9eHlYvEdVI2vsb0vlfuFSmY8vOy1wcDYbvwADc37cZR9VCIHXjVlx0CUG/bqxlzUi3+HvcOGlJrmX4xttbzrQghwnnxJbEDLONCh3XNEEM2fYzviDiC3W06uaFXY69g3AZcdF612KYsMt9M0qtT3qZUR6/g3Ap7leea16ZdR49c5ES+mJl7OvDKg3urGvJdhYiOhODJY+tLiX+Ww/DwMmY53MUU328ERzcC/1XKfHmogkwRwe4eVjh6JLBmLX5pubVappbKr/1YOuaVda/AYI+vAL/b8pk2B+YDt/AvvDrNRF7TXxhXZADnafDjE8xH6qn3y2VzLL/Riz76OT3nRC2YjWGnefm5tWb+wvHoYB/YdmEwa1ckp+FEfpMngnXQ6/B188PPYf/hGoXLbXV9MyZumDDmOdYpxb0xcKImWuN+kzGTNdDeM3XD349h+Onahet9X06ha3A6mHnuRjyQm/uL/xQAP61fAqmtlBek9HNy8PqJaINOtz7FS/14uUege9M38eq2W4wf/lTfNHvJF716YkA354Y8W0nLF73Lvh0y0Kn+HvcONlc2oJcK+wbK/7flBbkMEZObEnMsNrwVB7C2wF98d4x7buXsugZsOvSBV00f5bPr2HbT9QX6qE++tLKsMqKs8qItxh2uW9WqXdWeXzBUtw6lllvjHAJfR3K2NeDWRpc15LtTFpWIp0lj9YS/61KNRXlplBC0hVqIIaCs9OlRE42gYPRLbRh68DSNaOsfyOEfFhezNkh+Qrdfpz6+c31ocb6ZZb9F7JPM/ye6zcvLZnSb5XW00vrluQXRXafrqVepoLmODNTFyIIzpOjJX2xYOZaGd2/lkqXmzdJKstLo+T0W9QgnT6GvLrn4ZoDpwlUxMmQkl3IzaA+nGy30igpJZcapFtRdIu/x46TluRaId9oSQ4TyYktiRnhNq0B237MNVBDG/4/mn2MxJPkqZWxl5D4CyH5vcRjIUPsG95Y1PU3nF3p1+AcncT/baTNi4SEhITEXxQl8k9sxal2IzG+j5av8iT+TyFtXiQkJCQkJCSeKaSNrISEhISEhMQzhbR5kZCQkJCQkHimkDYvEhISEhISEs8Uf/HNSxXSdn6FXWlyQHEDMT9EIl516ee/FpU3b+DOkxCr8iZu8B3/peauwI2YHxAZL1DyoCoNO7/aBd5cLaVGl4obMfghMh6qKSsKcGztIsye+TZ+PHi47vFWQXg+svTd+Grd78hs7TruNbSCrh6HBvptNZ6WLhUoOLYWi2bPxNs/JWvKI/yF+JNt2/pU4uaNO6oLJjYbwdwlQ/rur7Du90wuwz8uZUjcuRspLbzeaWvS7JgSyetVaTvx1a60v55v/4X4i29eZDi/cTk2XqgEqBhZ5xOR2/hyiH82JdswNWQhYvirP7YqJdg2NQQL+Y7/UnMnVVn4xFyBC7/LzmPj8o3gzdUi6umS+HLvibmqq1/KjqzA1M/SYNVvADwMs2sfbx0E5qO8g+3LF2H3I3s46FT2vQU8rq4ek/r6bT2eki5lR7Bi6mdIs+qHAZ461k96mvzJtm1tSrZNRcjCGG4L0wIEcpfyznYsX7Qbj+wd8LguUXLkA7yztwqW9Uop/Vk0O6ZE8rrs/EYs33ihZTr/P4L+Cg7N7cdHyRvjKirb3Ud81E7E5ejD3tUSstR92LorHjeNHOBq2V5dY4PbU96+sAfbd8chvaQTHBy7oZ3mwn3lWbGI2hGDjOqueHRiPTI9F2KSX2eYWtrB0ckOprzHV93Ghd+jsCcuHaUmTnDqwj+oREnmMezZdQDHLmajwsSBe7xt8+SSc/3u2Y7dXL8lnRzg2K0d97hSlZSvVrZH8Zkd2HEkBWVmzlzf1cg9ux0bNmbBLCQA7t0t0VlPhptndiNq7wlcbjAvTrYrsYiOPozTmWUwcXACLxqLityz2L5hI7LMQhDg7go35+51c2+WjJr00JI2DNqaWsLO0Qk2KmHKkRUbhR0xGaju+ggn1mfCc+Ek+HFPyW9fwJ7tuxGXXoJODo7oxiuixhbti3Fmxw4cSSmDmTOnC6OKhrp0dYNzd0c4dLqLCzsi8VNBL7wxJQwBPi5wsHeEk52pKvFVcWP8HrWHG6MUJk58P9yDyhJkHtuDXQeO4WJ2RUNdC/hNw/nw9tuBQ1kWCBoUCM8eavsp+cR0tRLti89gx44jSCkzg7NTl2Ym39bSlbo32c0z2B21FycuC7TR5uttTWFpx+vRGA/FfEBEl0K6167LlvlcLdz8Mk/vQORPBej1xhSEBXigW/sqgZhToijzHLJKK5C2fx8Sq6xg/TCdG7cd7sdHYWdcDvTtXWEpS8W+rbsQf9MIDpyeVBcPFfMfJmzbCsceG5WvZT6C4d04bI8+hVuGdnCx6gg9ZREyz2WhtCIN+/closrGDTYdlYw8ys43zfK16lyc3b4BG7PMEBLgjh6WnTn1ZOLYnl04cOwisitM4MDFQV14NfaJtg3ztuwm1/8hZFkEYVCgJ3o8Rh6CPBWrpn8Pu5X/i7+pqjZWcbr4HVF7OF2UmsCpNj6FcnLNmNr8Qf26zEeGuBu3HdGnbsHQzgVWHfWgLMrEuaxSVKTtx77EKtj4cPNR5aaamNLWdyPdlGchNmoHYjKq0fXRCazP9MTCSX6qOQjGejPXlCZUZOMoZ+s/UivQxbwaVzlf72ahxLXGPta+jBkPFdlHuXz4B1IrusC8+irnD91gZcJfjYe9vrP8R1lyBbHR0Th8OhNlNWu3GPxPpVsNvny8c3dyDwqmcTNm0Ci3LuQd9iINHR5B82YMI8cug+jfqnrsFXThs2Fk32MIvTpvDk0ItCP3qVvpuoKoOOZd8rV0o1EzZlN4Px+yM+9AL/L1t/m+XQJoGX+lzrJT9GF/K+o+IILmzgwjd6tAWnK8hG79GkHOdn1p0oJ36M2I/mRrGkQrE7jX6ypXxQX6bJg99RjyKs2bM4EC7dxp6tbrpFBd5dGZnLyCKWTcHHpjcjBZdx1Kq1OzacvcALI0tKGAF5bRgdJiivsgmKwcB9GU12fSaG9Lcp28hXK4rh/FL6EA+0AKn/8WzQp1Jwu/9+mk8IUDOeSUu2UuBVgakk3AC7Rs9966uTdXxsstmBffhkldiXXOWhTzri9Zuo2iGbPDqZ+PHZl3UJdLr7jwGQ2z70FDXp1HcyYEkp37VNrKG1hlCyfyCg6hcXPeoMnB1tR16Gq6LMttoMvde+eRS8AyOn/ha5oSaEOGFr3ouVfX0pnD6sfVbvAh9bfqTgMi5tLMMHeyClxCx0tu0a8RzmTXdxIteOdNiuhvS6ZBK4l3A2G/KWwwH5b9+PLzzk5eFBwyjua8MZmCrbvS0NWXxa/Q2YBW1BU3aHHcBxRs5UiDprxOM0d7k6XrZNqiFlQnX+fno9ajiA8o2LoU1H1ZQ98Q1mVLfK4e1Un09ZRAsjG0oF7PvUprEwqZ4xyc3Z0sHYJo5NQpNO2zONW43d2DKHjcDJoxyo26eIfRi0OHU8S8GTTMsQsN+ne66JzZsG3Ljj02Kl/r7ka+/qE0fdZ48rN0pPDNOSSvPEizu1uSQ9BImjplGn12uoiZR1n5prm+lpq9heYGWJKhTQC9sOwAp55fKcLZjvpOWkDvvBlB/W1NKWhlguoKu4I+Ucj1W5O7iuPog2Archw0hV6fOZq8LV1p8hZuXi3KQ5zIx9+inn0/ojTVy8ro1If9yar7AIqYO5PC3K0ocMlx7lFxP9TqDxrZurv5kn/odJo13o8sHcNpMxdrlQdnU3dLBwoaOZWmTPuM4g42jCmtffM6r9VNDL3ra0luo2bQ7PB+5GNnTh1e3MjJz4715q0pjSiKoUX+3HgjZ9CcSSHk4WhLXQd9TtcqGvlY/DVmPBTFLCJ/bq0eOWMOTQrxIEfbrjTo82tc5+z1nek/j+JpSYA9BYbPp7dmhZK7hR+9r2Uyrb95cepG4zffVd0t2jSGjB3m0MFy7o6igL4ZYUpjI8tIcXcTjbMZQl9c1Thn2WF63cWLFsXn0H9GWtCItTnq4C6LpfmuHZtsXgojx5EF57QpqoRSTWnrplPE2nN0MXIprfqjUN1WcZvWPWdMoesf6ChXCd3dNI5shnxBdWK9Ti5ei+i0jHdGJzKf8DMV8k8o8mjtMGMK+4Hru/B7GmU2nrZUcA/nrqXh5kNpVU0HD/bQdCcXmn+0gq58GkLWYzfQDV5mWTJtWr6GYu+oJGVQSN+PMqPxfMe1c5e1QMbCls2LCd9GvUAp8v5DIy1G0Noc9TzKYueTa0cuaZfcpU3jbGjIF1c1i3sZHX7dhbwWndbYwpwm/KwaketjLQ0zDiPVkPV0Wbe4cqGwZTyZPbeObnPD1D1eSJHjLKjvRynqS5NXp9G66RG09txFily6iv4oVMukuL2OnjMOJd4NhP3mLB2umQ/TfpWqcZ3MJ5BabAXlrR1GxmE/kJim6tOquirMpbXDzWnoqpo2D2jPdCdymX9U00Z7DDbcvDB8gPNTYV0ydJ9YXucbTF2WtMDnGlGxhcabPUfrOIcQG4ffvFhN2alaADjFqMbtNn4zqTRTtInGGDvQHLViqOCbEWQ6NlJkzqq7gjBtW6YQiT31fSHUvvYi/XhL3d+D6Gnk4LWYTpfyC4sVTdmpnhEzj55+KJxvCm63KC4Lvx9FZuO3qEqAyJIjaemqP0itHgXdXvccGYeu5zyQ4RNnD9fmrty1w8l86KpaXTzYM52cXObT0cqW5KFqSloeSI6zD3KW5SiMpHEWfekjdXBzw6+j6RFr6WKWuB9q9QeN35i/+COpzfGAoqc5kNfi0+rNi9UU0pijSUxp7bteXs/7z0iyGLGW1C5URrHzXakjv3lRsGL9SAvWlBoUlLtmGFmFfUc3VC+vpPNLfanDwJrNS52PMeOBy0FrhllR2Hc3uN44Ks/TUt8ONJDbvLD9Usb0n3tXPqUQ67G0QT0ZSt60nNbE3lH3zaD1vy7Wt4WHh7p0eDtjY3S0d4YL/32knjE6dyTI5QrIMxKR+iAJq0I94OrqClf/OdiZn420S4lIvmqFPn3t1N9jd+qLQQGdGn3EWoXMlEyYBg2Aq+pa0QbwnPsjNs/vA7/RE2F74SNMH/88+vn0xpI4GZQKzZEnrXLJkJGYigdJqxDqwcnEyeU/Zyfys9OQpvoKXx+2Hh4w4W/qmaKrmbqcd32q05Nw1W4AhjhqipSbDcUQ30KkJd+H85hpCEmeDzdrDwyO2IDCPiMRZNFc9ctbIGPFY8+LRXV6Mq5a9UFfO/U8OvUdhIBOnLXkGUhMfYCkVaHw4O3r6o85O/ORnZamep3aFqoRuSG7wqxReX2dqMpESqYpgga4qi8ZbuCJuT9uxvw+fhg90RYXPpqO8c/3g0/vJYjj+lbIWX7jy2lADdt+6gOo+rYeUIutB9OuZjCokkFXsVtVV+WpSLpqhwFDHDWym2HoEF8UpiWr7ukSgw1h+ICRt7AuHzJ076e6p0Jcly33ucZoHcepB+qOQ6jHVWmmnTGMO9rDWa0YGHfuCOIrT7PmLHJykmlbrfHKxtBnGEaovgrhpjSoPzxvXkIKXw2as61TD/WMmHk0rVI433TJfOy4NPIejYm2F/DR9PF4vp8Pei+J42KAy+msePStjS6kJ12F3YAhqDPVEPgWpiFZdWC1uT4hR25uPrrZ2nIt+XSQgkzTIAxQBzc3/Fz8uHk+vDK1+6GoP6gwhM+wEVCbwwyD+nvi5qUU1TP6tk7QmKMRuvbNw+km+Sqs+vSF2oU6oe+gAKhcqDqdEeupj7GmVCElKRP2wf01c2oLnwF9UNu0no+xc0AKkjLtEdzfWr1Wt/XBgD7q82dsv6xg+g85j8G0kGTMd7OGx+AIbCjsg5FB4ufZxJ5rIfrQr8thQJs2Tb/f5V5gYDEWq48cx/Hj/F88krJy8PPfu6KtQTVkVTUBQ1Aom64O+vp6qK6qK+auLM5Dzp1sbJo2Eovj2iEofCG+3HUMnwyr/52Zdrn0DQxgMXY1jqhk4v7ik5CV8zMmq9cB6OnVBKKGxhcnNjRstKDJUMnd0ece1/eYhaiMHJyL/AdCba5h/ZTn8dZ+LRlMgJbI+NjzYtDGqC0MqmWoM5cCanPpw8DAAmNXH9HY9zjik7KQ8/Nk1ct4t2vhkPXg7KlXjTo3UKI4Lwd3sjdh2sjFiGsXhPCFX2LXsU9Q4waCfnOv3pE4Efup0NPTJJAaiPufbrSurgxh2GhhkVVyG3V9jZw6+HpjhHxAmcfSpbDu66tSmy5b6nNN0DJOG85m9dFvqBheNQ1gz5kN27bceFpijwmX0Gu6U1ZWokrPCIaqqbTh3VANK49ynQvmmwNVjxmXSuRtmoaRi+PQLigcC7/chWOfDNOcd9HuE4aG6g1JnakqObvp8yZU0VyfaNNGj/vT+La+PvSqq7htgAZlMfJy7qFSi39o84calIpaa6Cysgp6RhqhORlYi6iuffPPGbU1QLWsqlY3xI2nvs2O9ZavKW3Qvp0RHpaV1Y4nr6hAZa2663yMGQ9t2qOd0UOUldX2gIqKSnU+ZPqlCdt/9D0wKyoDOeci8Y9QG1xbPwXPv7UfYrNh6f2JYuTVH0GKOOw+K4eFtTUs9c7j8xlv45cbPhjarxyHtp3AA04nipvR2HWqotECYQTPkN6QH9uB2Hu84spx+uNQDHh7C86k6mPg7KWYFz4KfjiCAwlV3LtMkbdMDTCCV/8gKOJ246zcAtbWltA7/zlmvP0LssS64BZEfT7Rc0Ia+g5EwP192Hz0nsopHqZuxNaLLgjpZ4xz/wyC94LzsA19De+t+hpz/UuRny/2+z4uGPW5xZHvuJaWyNjCeemAkf9Q9Cs/hG0nHnDzVeBm9C6c4k/OG3mhf5ACcbvPQm5hDWtLPZz/fAbe/iVL05JBPV1qxcgTIb3lOLYjFmo3OI2PQwfg7S1nkKo/ELOXzkP4KD/gyAEkVMk5PzAQ9puFB1FjBbb9uqlfwKDyQT4KisQ/OWhVXRn6YmDAfezbfFQ994ep2Lj1IlxC+qmfbyWqryYI61LPQ1D3C/eXqRtyPEld1qel47BgzlnO9y4M07aPEXvVSXvxWzq/8lcifctOXObGGNBZ/VwNzDya9VA439xzbFFc6nObCiIll4ercTUhFfoDZ2PpvHCo1ZOAKi7Hyg2E43Hhwdrogu/AANzftxlH1U6L1I1bcdElBP26tWQZMkCPHja4e+Mmt2xyuvAMQW/5MeyIVftB+emPETpgIf5wbg3/qEbS3t+gNkc6tuy8DP+hA9RPtQpGXH/9UH5oG06oFz5E7zql/tUSM9Z7i6wplXiQXwB2GLVFUNhQVER/g6isSiiKz+Obbw+jSCDvMuNBvzfChlYg+psoZFUqUHz+G3x7uEi1VrP98hHTfx6e+SeCvBfgvG0oXntvFb6e64/S/HxVbmblhD9l8wKT0Vi5JhQZCwLgHtgbnn6zEGMzBmE9zfDCytUYeDICPt7+8Bq+Dne61fw6qY5OYSuweth5TPf1Qm/uL/xQAP614v9hymR7HJjui8C+fug1cS9MfK1RkJOjaaUdk9ErsSY0AwsC3BHY2xN+s2JgMyYMPetvoBvTwQ0eVkexZPAsbKl8CZ9+0Q8nX/VBzwBf9BzxLTotXod3/TsgcPI8+Bydys0rGMG9+mOV8k0smmCu6USIDnDzsMLRJYMxa0vddTNaImOL5qULnV/AytUDcTLCB97+Xhi+7g66qX6uYYLRK9cgNGMBAtwD0dvTD7NibDAmrKe6HYv6urwrEEkN6ISwFasx7Px0+Hr15v7CcSjgX1jx/6Zgsv0BzjcC0devFybuNYGvdQFycuTCfrPsBU7TavTMX2bYT0xRlfh9gS/6fxCvuc+gNXWlZ46XP/0C/U6+Cp+eAfDtOQLfdlqMde/6a17QOrTtE87QZTtB3S97sW51faK6rEfLxmHDnrPIboNp25bHXpsO9/DrS73g59cTI74zxfurZsOl0QcTXOeMPMrKN84tissObh6wOroEg2dtR5/wybA/wNk9sC/8ek3EXhNfWBfkIEcuHI/LXqiNLpi//Cm+6HcSr/r0RIAvN69vO2HxunfRMlMZwO25weiceAqXedN0CsOK1cNwnsv/Xr25v/BDCPjXMox1ag3/aIMO937FS7384MfF2nem72PVbBfNc61D5xdWYvXAk4jw8Ya/13Csu9NN/cs3ZqwHsdeUyt+xwLc/PohnvwnoHPYxvp9UiBXBVrDoNRfn2tnDyMAIRo0WW3Y8tEfYx99jUuEKBFtZoNfcc2hnbwQDIyMRv+zI9J8838mY53MUU7n5Bwf3Qv9VSry5aALMxXKC5uzLn0NFPqUnJFBaXlnDgznyYrqemkI5RZoDP4IoqCwvjZLTb1Fp7cvkVJybQslXblOF2EkfLVTkp1NCQhrllenWiaI4ly4lXqE7qpNj3P2yW5SWlEK5RerDY7VUF1FuSgIlXblD4ueoNSiKKfdSIl2p6bgezZWRpyVtdEFefJ1SU3KoqbkqKD89gRLS8kjXIRvrUiuKMspLS6b0W6WaA20cnP/kpiTTldsVAge+hPymIUz7Mai+9DHN+JD/hY12WlNX/NxvpSVRSm6R+pDkk0BMl0K6b8ST1GV9mjuOKKL+w4Zt2+bFXs3Bz4SiPEpLyaZCkcO9Klh5lJlvmutrCi6vXqJErh8eORejKclX6LZQktXqE1z83UqjpJRcemxTya/QqmFB9N6ZOgUpyjidJafTrUbB3XL/4A/f8ofQE6iIyxsp2YWkzRwth1u/rqdSSk5RU92xYl3QxtV06eMZ9CH/awcGpYnRtOXkLc04Crq1ZihZvLxNc7i9EYLxUEqJ0Vvo5C2NpIpbtGaoBb28rV4PDL9k+081FXHrd0ISl//rOSwrJ0hVpSUkHgsFMqMjcT1oKp6z+XM+yPzvQdIljyz2DXgv6orfzq5EvTPQEgKUxy3GmB/9sWXjJFg9EZeRIfYNbyzq+hvOrvRTH0b+q6PIRHTkdQRNfQ6sMJKdeBcBk05jwLxX4I10RH0XA9ev4vH9GHMdv46R4cS7AZh0egDmveINpEfhuxhXfBX/PcaYt6Yh2DlB2rxISEhI/IVQ5p/A1lPtMHJ8H3R9IgvyfxMPkXbgONoMHgXPmm+oWhUl8k9sxal2IzG+T9c/6ZzFk6AKeSd+xk97klGobwW/0VMR0d+meZuzqjyc+Pkn7EkuhL6VH0ZPjUB/m6e3vZM2LxISEhISEhLPFNK+XkJCQkJCQuKZQtq8SEhISEhISDxTtO7mRXEdf6z/GadVP0h/fBTX/8D6n0+rf9/+hKm8eQN3dB5HiYIT23Aw+zEvlCKEIgcHv9uCM/zv/evDerw+raz/prSkNL4CN2J+QGR83c+9n22qkLbzK+xKewK2l5CQkJDQidbdvFARrp5LxPWHrXOMRp4RhX+tOYzbT2otrqFkG6aGLERM/SuEiqIH8y65WLNgDVp9Dau+jKhPvkbMnUY6ZD1eH3kGov61BoefkMJaVhqfVFVZE3ObfzXhvyYynN+4HBsvNE8LEhISEhKth/4KDs3tVqAtTFQlvm1VJb6FS183LlVvg5427VGSeQx7dh3AsYvZqNCUw1Zk78M3sZ3wt+AyxPyegLtGNnCy6FC74xIs7a6Fpm0eIvfsdmzYmAWzkAC4d7dEZz1WafU69Cx80OnI21hXOQ7jferVX6q8gcQzN6FnZ6GuTcHN9176aWRXW8Kyc8OrTAnKL7+KPV8fh1nEdAyq/5OzBo9zGwkBfXEKw75vYtHpb8Eoi/kdCXeNYONkgQ413fDl6HdHYe+Jy3Wl+YXK7AuVQJc3LY0v2J+Aff08e8DO0Qk2vFMItmmIsjgL5zMfwfBuHLZHn8ItQzu4WHWEnpCsHasFyt1X4PrFi7jd1hbdOqh7l99Owakcgq1lJyiZfsMu416eFYuoHTHIqO6KRyfWI9NzISb5qYrVC5bbb+rjHdUdSUhISEg8PvyvjVoNvmS7U29acalapHR641L18XTr1whytutLkxa8Q29G9Cdb0yBamcC9kq/a2cWanP3+RjNmjSM/i+40cRNfQp3Ypd1FEGxz7RptmRtAloY2FPDCMjpQyiqt3pTy3dPIadiXlFP/ikKPYugNlx409w++BiuHLJ7e8fShf9S7kBIPU/5Hv9OM7sH0P+mNLlNU+3gVU18q/XfvQtbOfvS3GbNonJ8FdZ+4SS0fqxy9qo32EujnsxqWxhcrb9/QvnGaizwlirRpCH+RLufubuTrH0rTZ40nP0tHCt8sIOvpu4xy9+W0f5YT+S29oLmgUzntm+FIvf+ZTCVMv2GXcS+OeZd8Ld1o1IzZFN7Ph+zMO6grnYuU22+og9MqKSQkJCQkWocntnlhl05XJ/a6UvUySo5cSqv+KFRfhU9xm9Y9Z0yh67lXcpsXe/OxtDFf9Qzd3zGF7H3eo7OP7rJLu7NQiLQp/J5GmY2nLfx+g1FaXehihYr8b2hE17G0qUHldhnFv9OT7F/bo5pf5bE3yT1wOSXVby8mi9bNy0OmvlT6tzensRvz1c/d30FT7H3ovbOP2OXoS/gNgQ4l0BuUxleIlrdvaN+aK1ReFGmjvl8Dv3lxMn+RflTXoKcH0dPIwWsxnS5tKKsil1XuvlKtd+/FpNozlu6kKQ4D6H/TC5h6Z5Zxj8+h/4y0oBFrc9Q6LYul+a4dVZsX9vgljXQgISEhIdGatO6Zl3owS6ernq1fqt4I3qMnwvbCR5g+/nn08+mNJXEyKDU16A29BmKwpVpM0wEh6Hn9ElJKMsRLuwsh160Nq7S60JUu9cxsYG10C7l59Q++GCHolfHocvAX7C96iBPbDqLrhFfgXb+9jrIII64vTmEYONhS/dWa6QCE9LyOSynF4uXodSmB3uBsjw7l7WvtW4NcS5uGGPoMwwh1vXaYDeoPz5uc3cu5O/VkrU5nl7tv228yxuntxbZzMhTt344415cR7nSVqXdmGfdLiUi+aoU+fe3UOu3UF4MC1F8Tio0vrAMJCQkJidbgCW1exEqnq6ktVa/Mw6ZpI7E4rh2Cwhfiy13H8Em9GvTElzOvOaPKl4Y3aIf2hvpaSrsLoWMbVml1zd2G8GXO9aCn1/DUhoHfK5hgF4ttO3Zj6xFbvBTuxo1en5bIr0GLvjiFQVanMFRWGaBde0Mt5eh1KIHeCG3l7WvtWw9tbRrAbXRrXqfk7a5nBENVl3Wy8g2Z5e6NAvD3CZ2xf/sBRP92Gr6vTIS9nojeWWXc/94VbQ2qIauqGYSgUGpui43PIaQDCQkJCYnH5wllV5HS6bWJXkP1VSSk6mPg7KWYFz4KfjiCAwlVkHOv5ZGn7Ed0Bl8dswKXft6JDP/B6GfiJVLanVEO3Eikjb4e9Img5NZ8Vml1vtp/49Lcygc3kVdtD2fbhlsTGPRE+EQ3HF+xGId6vISXat6Z1yAmizbk4vriFIb90RncMspp7NLP2Jnhj8H9jHUuR88sgc4Zrq40fkvK2xs0q0110l78pq5Bj/QtO3HZfygG1BUtVmHoK1bu3gCer7wEq4NL8dnFILwy1gp6InpnlnG/4YOh/cpxaNsJqKvVR2PXqQpV6Xfx8eujrUS9hISEhESz0Hx91DrUO/NSfmI59e1qSk4BQeTr1ov+FvEcOXm+Q/Ey/kyEE/Vecan2MOWJ5X2pq6kTBQT5kluvv1HEc07k+U686syLo8dAGurlQf6+DmTpEU7fp6jLTcqvR9G8QAvq5hxAge5WZOE7g369Jid6FEV/7+ZE82KaliVmtpEdp3c8TMk+cCZF3qii61FzKcDKmjwCe1F3Wx+auukKJ+sjin7VkuxnH9T0RlT829/JMfRb0hzNaIAi5ysa1tGERv9YoD4r0Qi2/NrOvJQw9aXSv6MHDRzqRR7+vuRg6UHh36eoq41WZ9GWGb3IwtKN/Ht1J0uXF+nzM6UNbKai/AQt79uVTJ0CKMjXjXr9LYKec/Kkd+JlnJreIQ9TewqcGcnuT3Wmqb59a868JIq0aQh/5qWHjRf5u7uSr68j97pxtDaxoqms3AhZW2ZQLwtLcvPnbGXpQi9+foZqe1Rcp69HdCbrV3fVPsbUO8k5u8+jQItu5BwQSO5WFuQ741fin+LbvO5vRTY9/cjdNYQG+3alMaoDu6zxG+ngUTS9amlPsw/qWipbQkJCQkKM1q1tJDuAWe4r4XjgJJb21Iei5DouX5fB3MUFlrW/1xVCgZLrl3FdZg4XF8u6n/bWUJGPyzfksHPrjoa/Nn6IgstXcJss4ephg06qdnKkfPI6doV9i+WCJVmF2gBKTta0HBkse7rBoi13vzwfGddKYOLkBttGP3FWobyHLZOeR+zko/jxRVPNg/Uo2opXgndhzOltmNRF81gThGXRjhZ9oQL5l29AbueG7g1kV6I8LwPZRR3h4OEAU1YNLUUJrl++Dpm5C1ws636azrcvuZ6GHJkl/NwsVPd16q8B2tvUVNXdHvM62t6qhKVbD3Rt/Fv1eijL85CRXYSODh5w0EkIEb0/LMDlK7dBlq7wsOlUN3dOJzcybkJp2xOOpg39ofnjS0hISEg8Dq23ealIxq51n2P554/wfkYU/m6mefxpo0M58NagKvkjvPjPLvhqxxtwa7CWyZC+bwN2/fodfuu2GvFrhkK6wkfzqNm8/HZ2peBBaQkJCQmJ/9u02vKuLL2La7etELH+U0z4szYuPPpuGPvak9248J8eFD3yxZKvXm+0ceHRB5Xmo8jjPWz+WNq4tARDj1fw4fujYf9EbSghISEh8azSul8bSUhISEhISEg8YaT3thISEhISEhLPFNLmRUJCQkJCQuKZQtq8SEhISEhISDxTSJsXCQkJCQkJiWcKafMiISEhISEh8UwhbV4kJCQkJCQknimkzYuEhISEhITEM4W0eZGQkJCQkJB4ppA2LxISEhISEhLPFNLmRUJCQkJCQuKZQtq8SEhISEhISDxTSJsXCQkJCQkJiWcKafMiISEhISEh8UzRypuXMlzYugr//ve/G/2txq50OaDIwcHvtuDMg//Pzn3ANXW1fwD/MQKIIks2qChDBGSEVTe4rdri1uJeVautu27rwjrrrLMqVWsdqHVW0SrOKlOmskGWypIZSPL8b0hUtIliS/t/ac/3/aQfcnPvuWc859wnN9dXLNv/b1CRgfTcOiy/MgaBW04hhqt+nfvgskVIv7oXAbefyt7LU5t9JN2UjrrpJvnnE8SewZYd5/G4UrbhT6lETOAWnHpnB4mQcmkXDt/Ll72XEaXj6t4A3H76N8YaR5R+FXsDbkN6mgpkpOfinWf8J+bAH9QuJv5/vFW3V/P3n6pzbc8jQvb1rZgzcTxm7I/E37Ec/O9RMLcU+mtj9uZc+jNqMf/+4P9vXOtuDf5vqtvkRZyHm98vws7fniAvL++NV7GAG6WqOJxYvQ1Xc0l2QF0rws+j2mLm1QrZ+zogeIADSw4gpA6LfOWDyyYUJj5AeGqp7L08tdin6GeMajsTddNNcs4nzsWxJXNwptwCzdRk2/4UAR4cWIID7+ygKsSdWI1tV3Nl72WEiQj8djN+zfp7VwcqTMSD8FSUciFd9PMotJ15lVtC3+FvnwPy1CZu/r/UrFvN+ftP1bmW5xEEYdmotYgx/gjtWxv+R25ZK5hbCv21Mas5l/6MWs2/t/1/jWudrsH/TSrLOLK//zoqxL2DO/F8wHEcmP8punXtiq7VLx84mahwF5QE/LItGLp+Y9HR4M0wERc9wrXTp3H57mMUazeDpZ669ANhDkJ+OYYzN2JR1KgZmjfRgJL0E1TmhOD8iV9wI/YFtC0toZ71O479cACJum3hatsURlrKEGTcw5kTZ3EzrgiNmjVHEw3uaHEBHt9PxIvSGFw4F45KUxuYNqxZnxIkXjuBk1fjUaVfjpt7HqP1zGFwllyI31Gf18Qoenwdv5y6iOuhSSit2R65ZQ9B8/QHSKjQQN7tEwi8kQIVC2sYCaJx7ugp3M5QQzNrIzTgTqSuYwTz5pYwRjoeJFSgQeE9nDwZhKhiXbS01IOkii/3MdVRk9OvQqT+fgw/HEiEbltX2JqrITvkrb5oUIzH13/BqYvXEZpUCu1mlnhZ/bf7XI87Yc3zSRKOjHsn8WuiITw68tG6RRNoKImrF7WEigYo5D47GRSFYt2WXF3kZzYliddw4uRVxFfpo/zmHjxuPRPDJJ0vt++FSPhlG4J1/TC+o4GsBI4oBRd2XEGD3p0gvhGIoNgS6LZoDt2XpxRk4N6ZEzh7M+7NcRQX4dG10zh9+S4eF2ujGden6uJCJD54jHLeU9w4dhp3nvBgbmWM6pBR14GReXNY6hYi7NgPOJCoi7autmhh1FB+DCiaA/JiUv2pwlgrSfpN1kdGaFIai1ShCZpUJuD3+DLomWiDx+0jyo3GnRQxzIwaocEbYyRETsgvOHbmBmKLGqFZc+kYFTy+j8QXpYi5cA7hlaawM23IdXkIfjl2hhvvGvPnD+SVxzVJcjHiYlQj7zZOBN5AiooFrI0EiD53FKduZ0CtGRfjXFC/jB/twrA35m9TcxNpnRuXKp6v4nw8+j0eZXom0JY2GtF3UiA2M4LmC+n55c2Rml7Fb+MybpwTUNGAW8dOnkRQVDF0W3IxrlqIx3dPImB/NtpMHYHerq3QRPmJnPh5uw+NYVIWW6t5ragP/6CSmwPnT+AXLiZeaFu+nkPy4rk6buW05+0OqCbv/ArmloS8ecJtfmMtKE3Cb9x5r0SXQs+gCgncWtLEWAsvHv2O+DI9mEgHDLnRd5AiNoORvq50LpnrVI+R3NhT1KaqVPz+xvzTkhTw7rWaK+tvH1eun/64lpa+uQY3NYJWlfz1SJwXj7sP82Fhrl9dZaYGqkuiFNrYsRF13ZFDItmmN5Sfp3FNvWhlrFC2Qab8Ni1wtSD+kC/oqwm9yNbQmebfKicqDaG1PhbUovNImjJpAPHNbWnU0bTqsovvfEPtjJtSe7/JNL63LRnzv6Zj+yaTqxGPTF370OKLL6jwxiLyMm5OHUd8TuP7OpCR9Wd0OIU7d8UlmtjUiJp59KBRI0bT2rsCaT2qFdLV2U5kZNOTxk0cQh85mpOBZj86UMx99I76vCaiJz/5UUtzTxo2bRZN92tHZjoetDysivtMUdkVdHVKS2pq60FevuNoXE8b0nPoTf28u5DflHHk01yPOq6L5Y6X7GdFrovDqeLqFGppaU9ebX1p0tTPyMtEn7w3xZGwxj5y+/VGPB2e7EpGPFNy7bOYLj57qy9uJ9NPfi3J3HMYTZs1nfzamZGOx3KSVP+Pfb6AgqvrLjsf174bi7zIuHlHGvH5eOrrYETWnx2mFKG0fZb2XtTWdxJN/cyLTPS9aVPcW3HAKbw6m5yMbKjnuIk05CNHMjfQpH6SzlfY9+V0flxT8lop6Z8aKq7SFEs9MmvFp95jPqfPvEyoSZfNFC85ZeENWuRlTM07jqDPx/clByNr+uxwCtd35XR7gStZ8IfQF19NoF62huQ8/xaVS8pq2ZRsnFyo19gJ1N/ZiJoP+ZFrl+Q0U8jKdTGFJB6mya5GxDN1pT6LzyuOAUVz4O2Y/O2uwlgr4PrIheujHlxdBnk6UauWTajP3gKu6HHU1GslvSz6xf6+pN17LxXUjAkqpZC1PmTRojONnDKJBvDNyXbUUUoTVdCliU3JqJkH9Rg1gkavvct1+VrysWhBnUdOoUkD+GRuO4qOpr09sxWVJ+2blk1tycPLl8aN60k2eg7Uu583dfGbQuN8mpNex3VcXV/WLYRSD9ecv89e1/ld8/Xt/nyxn/pq9yauO94xR2qq0TfV42xJ9l5tyXfS1OqY0ffeRHEVEbRtBJ9MeYbUpttI2nrjqoL4ebsPb1TH/fvnteI+fEPxHfqmnTE1be9Hk8f3JltjPi0I5uaGonhW1J63Qk/x+RXMLUXzpGZfFlylOS5GZNNjHE0a1pZaNTcj/Y7rKVn4ukxpNV7Q/r7a1JsbsJdzKZybJgpjT0GbopNqzr+LkgLev1ZX/c3jKnoify2tSH1zDc5QtB5xzb38Fbl4fi2tL/OGvyF5USedFnzy8PB4/Wo/g85wc0zRwi18tIbamnxKP6RLLvACijy4hDZfy6acg75k2nkDJch2L778OVnZz6G7gucU4GtIniuiSHIEVcXQjrF+tDU8h3b31KX+h0u5uqTS1i4G5L0xQTZJ8umXsZZk9cVvXERIFkNjGhEoqdSbRJnfUw/DrrQ1RRrmxde+IOuGkgRDRE8V1kf6Xoqrf8BC2njluXSiiHJoR7fG1GtP/jvKlkx6S2rS/0d6Kvmg4CB90rgZTbpUwr0RUfb2rqTzaQD39+vFQTLRLQ0G0KHnkgNElLnVhxpzF6r8GvvI79dcEj3fTT11+5Okm/7QF4JICli4ka48l9ZRlLODujXuRXvyFfV5yavziVK3UhcDb9r4soPyf6Gxllb0xW9F1e0zGHCIpNXNpK0+jbkFK796t1e47d/3MKSuW1OkfVd8jb6wbsglL0Xv6Pt3JS9NyDeAay/3VpSzk7rrcO3IE1Hq1i5k4L3xVVn5v4wlS6sv6LfSR7SmrQl9+kN6dRsFkQdpyeZrlFsmKcuA+u17Iq1X/mka3cye5nIDX3PBfb67J+n2P8xdChTHwLuTl5fj8I5YK0+nbd0MyGdLsjSuX1yhKVaa1Yt/bZIX0dOD5GvamTa8Lpg+t7KnOXdfVC/QxiMCqToSRE/poK8pdd7wcv4U0+XPrch+zt3qdy8pLk/aN5ZN+tOP0qCmg580pmaTLlF1VGdvp646n1LAG8nv89fzt+aF8B3z9X3Ji/w5UlPN80jHeYD0AC4ct5JPY64syQGlh6m/bjfakVOlOH4qpBe5V31YXfb75/W7+rCm5wG+ZOi5gqKkE5Bidowlv62hlKioPkXvaE8Nis9fJH9uCRXMEy4BlvZlKKVu9iHj3rsovXoCVNCDhU6k2aGWyYvgHbH3jjF6Pf9qu1Zz/sZxVbyWcm9ercHvWI8qpO8Z+d787aZOqKK13wbs3r379WvHNHTQlH0sh0rLTzC6bSS+sDFBq05++OG5O3p46OFxeDTyIzaiVytrWFtbw2VSILKSYhBT8BhRj3Xg0d6aOxtHtTUm7/sRXzhXv5OqikVEgjnad24OleoNuvDu7ITnMZHV76BiBssWGtK/a6iKjUSCsTs8zaVd08izI1wbSW7gCRGvqD5v/MSrBoe+g2AWsgJj+3fHR45uWHBDALFI+I6yJVRg1qoVV0uORmM0bmiBllaS+imjsVZDkPCPj5KpmLVCK23JX8rQ0deFaqUAkkeLXpLfr3J+163ZF2oO6DvIDCErxqJ/94/g6LYAN7hCRWXv7/Oq2AgkmLdH5+bSHoeuNzo7PUdMpOQBPmn7pNXVgb6uKioFAsm717gxi0wwhrunubSOjTzR0bURJD8N1a7v36JijtZ2etVlKWvpQZdXgbJSAWIjEmDevjNeV7MznJ7HIDLPEp+MbovIL2xg0qoT/H54DvceHjCUFMBzhE9XE2m9dDuiXesMPIwqkbyTQ3EMvNOrcXhHewsfITrRBJ5eFtK41moLHw/tN2+Hv4MwPhzR+RHY2KtVdbnWLpMQmJWEmOqO5MbIsgWqI0EYj/DofERs7IVWkv2sXTApMAtJMTGST195d3mSJnExKg1qNG7cEBYtrarLV26shYYkhFAk+awWFMzX93nfHPkD7jytpAdwYaoPXdVKCN44oEpx/FQ/aVqjD6u9f16/rw+lKvE46jF0PNrDWjoB0XryPvz4hT0ev6s+723P+8fwD1RaKp4n1aoQFfEYFl7tYFK9TR2O7d1rfP4e74u997bpz6wXdT+uCtfSN5aB952XUaS24fQBlKBp3AqOTk5wevlytITuu86k0goTTsQj5X4A5vUyRfKeEej+1UVUqqrC8NNNCAoORrDkdTsCiSmH8JmuClSUq1BZJTseYhRmpuDZGw8/8cB7K6gFFdwFREXyO6uEEpTl1ElJTR2qVQJUvjyMRBDL/lZRWB/p59XEmTg4ugfm3tCAx5CZ+O7Udaz2kT4w8q6yJVRUaiRfXP2U3ndF4hogi3cZ4v5Xg9x+vYA/zt/XfSHOPIjRPebihoYHhsz8Dqeur4a0+rXocx7vrYuDABXcGxVuu4Sy8pu1Bb31ZJ6SGtRVqyB43UEQyTqoVn3/B8pQrtmlHMkZeTxp4vS6mhVcnVW47SpoNeEE4lPuI2BeL5gm78GI7l/hQnWHcYvOywPEFaioVIYaT0FQvyMG3u31OChsrx7XR7yafSTpRmk/VoeL5G5q9Ttwdax8Mx4kuBhTNfwUm4Jk5QbfRkRiCg7JOlLp1aRQgaqqIT7dFCTbLxi3IxKRcugz2ecy7ymPC2ppsiuj9N6gVkT+fJU1+nUoVVSismaj3zdH/oCLmfeEqeL4kb593YdS753X7+tDGRUVZVS9noAQF2YihZuA767P+9tT2/O/9q55IqGEBhpqKCsuflUnYWkpKqrPK238y5iV/AuhyjcGTOJ9sff+Nv2Z9aKux1XxWvqm952XkU/ecvCPq7y/FB4O0/DArBfGfL0R2ya74EXWMzRv5wHRjTP4XWgIExMjKD9Yj3EzjiBRuTXauglx/eQ1PJOMeMldrOrVHjMvlHFBzS1OYi6SeU7o4JqHcz/+Jt2nLBoHjobCqu1H1edURM3FGx+V/Iqfb+ZzwSRCxulTuFP9+Lsa7BXVp2YmXZWAsGgVdJi4EFOG9IQzgnAxrBJCLhNXXPbfQ36/ZqGMWwRVuNku6aa3VSWEIVqlAyYunIIhPZ2BoIsIq+S+HSq3UtDnxdIDOTynDnDNO4cff3tWPRHLog/gaKgV2n7URLrD+6i5wPujEvz6801I/iWxKOM0Tt0p5S42tez7WuHBqYMr8s79iN+kgYHoA0cRatUWHzUOwVIPB0x7YIZeY77Gxm2T4fIiC1ll3G5VETh7PLb6XzJUxB5GYBxX1/ZakgJfUeFWVCIx6B0xUDvvaK+yEzpzfXTpiDSuRVlnEXizqPqCrNS4MRpkJyNRckNInI2gqw+573VvUrNvBw/RDZz5XQhDExMYKT/A+nEzcOTtjlSzRzsPEW6c+R1CQxOYGCnjwfpxmHEkUbaDVK3LqxWV1/O3tpS4b70NspEsbTSyg67i4duNrlPviJ8mf245rV0fqqF1WzcIr5/ENekExN1VvdB+5hW0/Iv1+eAxrLyveJ5UU4NHb2+Unt6OE4kVEBU+wPadl1FQPaxKaNy4AbKTE7kWSMI0CFffHrBaxt7bXs2/P7Ve1P24KlxLhVz5r9bg95y3Ih9Z2QXSApk3/A3JSyVuzG2FJnp60Hv1MoDbgjuyz/9Ijf8Zpjj+hlGODvDyaoN2G8WYPmcAWvZdjs294jHN1RZ8t9ZwnnAVpp/0hp1qI/Retgk+D8bCyd6New3Br67+WNzPCDatjPHbgk6YcLgCg9dswEe3RsLRzhVOdl2xs9Fc7JjtIjurAlp9sHxTB9zyc4SDiz267MhFE+k/B4C2wvpUfyyl7o4hn1ng4lgn8D2d0WbQWWg7mSA7JeWdZf8dFPWrgaYNWhn/hgWdJuDHDMmEeU3dfQg+s7iIsU58eDq3waCz2nAyyUZKioaCPn99AVc2GIw1Gz7CrZGOsHN1gl3XnWg0dwdmu7x1+0MhLfRZvgkdbvnB0cEF9l12ILdJg+rvarXq+1pRhsHgNdjw0S2MdLSDq5Mduu5shLk7ZsNFk4/Ppjjit1Hc+Hh5oU27jRBPn4MBkn9ooaSJZz8NRBtnZ65du6AzfyMmWr359U/TphWMf1uATl8kKo6BWlLcXm30W7UdPcPGwdneBY7eG/FITTqN1dw/w3jrXzHGyRnOdl2wv8oK+m/PcO2+WL65F+KnucKW74bWzhNw1fQT9P5DR2qj7/LN6BU/Da62fLi1dsaEq6b4pLed7HOZWpdXG5qv5++PGbJt76Hmjs/GW+PXMU5wdrZDl/1VsPpDo+vSO+LnzzRZopZ92Kj3MmzyecDNTXu4ca8hv7rCf/GnsPyr9fnQMVR7xzyR0eq9CruHPccyL2MYtpmM+xoWUFNVg5qSGtw/Gw/rX8fASTKXuuxHlZX+WxeiWsbeW17Nvwk/ck360PWi7sdV8VrKZVCv1uBJuPTRaoXnrfh1Blw9v5aVyLyh+smX/wlVVJAaRWERjyi3XLZJpjQrlsLCYiizWPrg0yuiYsqMiaTYJy9kD3ZxRIWU+jCcHuXKnnbi9nkSE0FRqQXSB01rSViYRtFRKVTwquDXFNbnFSEVcm2JfJRDpXJ2eVfZdU9+v4oKU+lhOLdN3kNhQq4PoyLpUY7k0be3yOvzt4iKn1BMRBSlFnxIj9fAnT8tOopS5HTQ+/u+tkRU/CSGIqJS6e1qVhWkUlRYBBdDsg6TPCRo5UqLwwq4tkdR0vO3n/p7ScSN+0MKf5TL/f3uGKgtxe0tp9zEBMoqLXz1wKOUgPKSoykuW/LQ6zuUZlFsWBjFZBb/cYzfUEpZsWEUFpNJ7+zyWpf3Hm/P31oS5CVTdFw2V9t/iuL4+dNq1YfceTNjKDL2Cb14Y3rUQX0+cAz/ME9qeBF+mg7feiJbI0T0ZLM3GQ7+WfbAK0eQR8nRcfTuMK1l7L1Sc/5Jffh6Ucfj+o619M01+G+Ip385Jcl/ZHkMwzDyCK5hqsMc6B//HctrPhT+P6EYB/pZ4PgnqTg/Tke2jWH+fwluzobrsLtoP2UoHBCLE7uuwnrLbez+xODvuN3P/Aex5IVh3kechZtH70CjR3+4/60/SfwZQjy6cBBJLUagdyu5/+9jDPP/oBKZNw9h/y+ReK5iDOe+o+DXzvSNh7cZ5q9gyQvDMAzDMPUKu4PHMAzDMEy9wpIXhmEYhmHqFZa8MAzDMAxTr7DkhWEYhmGYeoUlLwzDMAzD1CsseWEYhmEYpl5hyQvDMAzDMPUKS14YhmEYhqlXWPLCMAzDMEy9wpIXhmEYhmHqFZa8MAzDMAxTr7DkhWEYhmGYeoUlLwzDMAzD1Ct/Q/JSiuv+w9C/f3/0HzAQg/0+x5L99/BUJPv4XYQ5iIhIR212rT0xck4twKDBi3HumVi27Y8KLi7D4EELcCqn5j5FuLJ8iLQtktfAoRg7ZzuC39inlsT5OL90MAbND0T2nzi82of0jzgbp+YPwqA5x5D+ngOEORGIeN9Odap2Y8IwDMMw8tR98lL5EBcCTuDs/QxUVlUgP/Yc1o3vil5L76BMtos84rwLmO3ljMnnSmRb6ko57gbuwel7z6DeWFFzBQg9ux+nb+WAp1NjH0E4zh4MxLn7T1ApFEKQH4VfvpsO36lH8MHXXCqEUMMSreytYPAnev2D+6fiPk7vO4VrmSrQV5Ft+wMx8i7MhpfzZNR5t79TbcaEYRiGYeSr8yuH+HkYwlKAlsM2I/CXcwh6cBPrvJUQuXsXrkiyF2Eqzi0bDh83Jzh7fYxpATGoKL6CFcNnYk94Hp5cPIAz2ULk3duJaZ92AN/ZDd5Dl+BMcqX0BCUPETCrPzry23DH98aUveEoln7yiijrV6wc3hlu/E7wW7MfV8KKoNbGHc7qYuQGb8akPm3h6tIWvvNOIklSrCgDoRHZUHFwg6uatAwJUVYoIjKUYDNyO07/8gvOX/4Z051UUJyaiGyxEKnnlmG4jxucnL3w8bQAxFRIjyt6eAQLhvrA3cUNXcZsxE0u0xGl3cP1sHQ0MGsJVXEugjdPQp+2rnBp64t5J5MgqYY4/TjmDPLDqv37MHtAZ3h28sPWB6XA2/2TmS33+JqEj0MRWagMe74r1BSUW3xlBYbP3IPwvCe4eOAMVwH59RJG7sSEwV9i4/fz8Wn7Plh15oj8ekr2TT2HZcN94ObkDK+PpyFA1ikKx4SXh3s7p+HTDnw4u3lj6JIzeDnUDMMwDCNPnScvlWGhiBE2gpNbG1TnASpmaONgDKWiTDwpEiL94ExM2hwF4/7j0VsnAjunL8epXCEEZfkoVWkJt05t0CznOwzo9QV+yrXDoDG90fj+Ggz328iVK0TotyMwMSAfbqMnwrfZE5xc5Y/j6TVug4jiscVvCJbfUEHHIZ0h2D8Xu+MAGz4fDSPXYkC/eQhS8YHfJyaI+W4cpu3PAMpCEMrtY+niiiY1eqQilGuLuAGaGogRdf8GTm5YioCHYph6tkeLrIOYOWkzooz7Y3xvHUTsnI7lZ0ohStyJYV1GYXeaNQZ+5oGy019j9IpgFN85gR/ORKJIkxC5dgD6zQuCio8fPjGJwXfjpmF/hhjl9wOxL/AYNmy5hkaeNhCFHcWKbUEQF9fsn9YQ7h8k9/iaCri6J5AFlxCYoVJuuZdRLBSgLL8UKi3d0KlNUwX1EiLr+s8IOLEbK7aEQL/9IPiUnZVbTy77wsGZk7A5yhj9x/eGTsROTF9+BqUKx8QJmRsHoNcXPyHXbhDG9G6M+2uGw29jDISydjAMwzDMH1CdqqLIpa7E47WjtYlC2bZ8OtRfh5R1BtHRYiLh84d0fv9mWr3oKxrC1yNVk7F0rryAAny1iNd6Hv0uENCNL61IVdObvkuWlFFFUd/wiafek3Y/r6L7CxyJp6pHDn0m0YqAO5QpkJ7lJcGdOdSKp0e+Abkk4v6XtdWH1JQNadSZQrryeVNSbehNK4MjKCLsJE2xUyPziZdIcHsW2fJ0aMjPXAVfEdDv81qTKtdFkm6qfimpk5n3ArqYLZI0hB6e30+bVy+ir4bwSU/VhMaeK6J7c+2Ip9GB1idI6i6gpylJlFlYTMFfWRNPZzAdfX6FPm+qSg29V1JwRASFnZxCdmrmNPFSCf3+tT3XTi9aHcsdW3KChuvxqMW061w5NfrnhaLjK6prLVXBtdWCVLU+pYP5VYrLLQggXy0etZ73OwkqFJWbT6dGGJBKw460Pq6KK/sd5ZGQnj88T/s3r6ZFXw0hvp4qmYw9R0WKxuTEZfrSSpU0vb8j6VBH0Td8Hqn33E3PJc1gGIZhGDnq+M7LC4SGPQKZu8DdXPqgRWXMXuwJKkbjjr3Qseoipnm547P1V5FBPJTnv4CqPR8uiETIwwpoObnBXq0SqSlPgGbu8DKTlFGJzMynoAba0NZQhfvCEzixwhfGCcewfFRHeIw/+cbzJ2VxsUiBDTw89KEMMZ49LwTxHODmJkRaei5IMw831i3G4qUHkGHVG73dTfEsLBypsAef30BWCkecj7DwZKD5KBy4F4KQsEjEZTxD2rVV6GlcjIvTvOD+2XpczSDwyvPxQpU73oUQH58CatEW7ZtK6q4Gg+YtYKpVgPDINMDOFXxKQ3ouQTPvBtYtXoylBzJg1bs33E0LES45X+vu6G2tAmFcGB4Wq8OB78h1QY3+ESo4Xtbf1USpCInIgZItd75GeQrLrYwMwcMKLTi52UOtTEG5xkkIe1gI3kdDMMyGS+XEissrujgNXu6fYf3VDK7Py5H/QhX2fBduHwVj0iYT0qH2gnSoM5H5lNBAWxsa0pYwDMMwzB/UbfIiiKi+yCppCxD/8wHsXvsFevVajJsqHbBwxWcwSLqFm2ma8J6zBfM6A1k5gIVjG+jlRyE6A7Bs1Qrq3AW/uaU58OQuLkfkIvPGWqw6lg2jPoPwUega9O/1JYJtF+HUnUBMtVPC04QE5Evui8jwGmtBU5yMezcSkRd/BP4HIkGWfPCbaMHKyhzKPGsM2xiAbZPbwdLaG0M/bonQkGiIzZzBr5kAVIUhJLoKmi7d8Iknd7xLG7Qy00L1HsIE3LqZBk3vOdjyuiFo00QdBga6UCpMQ3JWJm6vH46OPpNx+NEDhEYTTJz4sGhsBStzZfCsh2FjwDZMbmcJa++h+NgqittHCH0XD9iqipEXGook2MLVtTHEz2v0T0MFx9txicVLZWEIjRfDgDuflThcQbmN8DwqGhmwRKtW6oCick0fIjwRsPb0hKEkWqoUlaeJhFs3kabpjTlb5qEzspADCzi2aQJ1RWNi0gLSob6MiNxM3Fi7CseyjdBnUBfUSCMZhmEY5k2yOzB1Qpi4ltrxXv7Eoky8hkbUuttk2vl7PokkOxRfp3nOWqSkpEpN+O3IvhGPnBaFkeDpURpqrEJKKk1o+PFiEqUH0lS+HvGUJOVokHmXJRSUy5VQcp829GlGDSTboUQ8fQ+adT5HWvZLhddpkYcuqSgpkZqZI9kZqJLO4KMk+UFIlH6SpjjrcJ+BlHi65DzuECWUR9ASFx416ref8qQlVKuKXk58Ho+8VseT5BeNNxXT9XnOpMWdQ7UJn9rZNyKe0yIKqyISPNxG/SzUSYnrA6UGFtRt6TXKCV1CzjxN6r3nKXesiNJPTiFnHa69kjboOtO4QwlUEbeKPHga1G1HNrdHBV0Yb0aqxpKf1Lgj3uifIrnHS37QeUlwaybZqGpQ9++zqVJhuSJ6enQoGasokUqT4XS8WH69SoKmUDNeE/ILLK0uW/iOehZfn0fOWkqkpNqE+O3sqRHPiRZJOkXhmHDnDJxKfD2etL80zKnLkiCSDDXDMAzDKKIk+Y80jfmHCJ4hJYtgamkI7vv+K6LCNMQ/EcHYugX0qz8ow9PEFDxXM4NNUx28vq8gQlHGY6QV8rh9rWAo7/cFUTEyErOhamEDE03ZtpfEJch8nIZyXUtYGb394YcQ4FlKFsjUEoY1GyLBtTEpMQ9qZlaw0KlxR6QGcUkmHqeVQ9fSCrWpxtv986HHyydCYVo8noiMYd1Cv3o8/mq5gmcpyCJTWL7dKe8ak7KnSEx5zvWXDZoq6C+GYRiGeemfT14YhmEYhmH+gjr/p9IMwzAMwzB/J5a8MAzDMAxTr7DkhWEYhmGYeoUlLwzDMAzD1CsseWEYhmEYpl5hyQvDMAzDMPUKS14YhmEYhqlXWPLCMAzDMEy9wpIXhmEYhmHqFZa8MAzDMAxTr7DkhWEYhmGYeoUlLwzDMAzD1CsseWEYhmEYpl5hyQvDMAzDMPUKS14YhmEYhqlX/obkpRK/bx6D8dtDub9eqkDw2jHw/61U9v7DlFxbhdFrg7lSXiv6dTlGr7sFiJJxZPYCnMgUyz55izALtwKvIVUke/9eIiQfmY0FJzJl799HjPwH+zFvaBe4OzvDq8dYrPk1A0LJR8I47P9yKc4+k9StANf8J2DxmQzuDPJ86Hn/GZW/b8aY8dsR+nowURG8FmP8f5O9+5PEmTixYDYOJ9V6YP4yce5ZLB46BCuCimVbPpwwbj++XHoWzypfjm2VgnET4M7GidhwWyB7/z+gIhhrh/dH//41XsPX4mbNifVeYmSeWIDZR5IVxPG7CWN/wLTZP8neMX+eZE0d/uZY9h+OtR82mNw0PIEFs48g+S9Pwz8T72Lknl2MoUNW4PWUFCJu/5dYevZZ9d9ZtwJxrfaLN/MfUvfJiygRV46cxvFNW3C+ULZNGIVLP4WhSJMn2/AhKhFx7jCiS7WhKtsimSgPTh9EdIkW97cqLDy7wdVIflMqLi7CqIB0NFaRbagFVQtPdHM1kr17t4Kr89C1z7dIaDUaK7ZuwcJPlHFs5ED4Rwghzr+JExdzwGusDEHkfuxPbo9RH1tAUVU+5Lz/DBESrxzB6eObsOX1YCLq0k8IK9KUvf+Tyu/h9E8pIP0PGJi/pAQ3Vi9DUFoCTgbF1kisPwSXqN48gYs5PDQqfD22csdNGI2LRyJQ/CGB9zcTRl3C4TtVaPNxX/TtK3318+0AKzXZDrVSjnunjyIN+grjWDEx8m4ex4l0Jdl75k+TrKmH76CqzcevxrJvP190+LDB5KbhaRxNA/7yNPwz8V5yA6uXBSEt4SSCYmUzUpyPmycuIofXWLJ4Y9GoAKT/D80h5n9H3ScvxaEIy/LG+C5R2H0kjVuuuHjMC0P409bg26txc24vZq8LwK4JPug04wyiL67CyK7ucHbrinFb76Lg7Rso4hyERpTCycP2dfIiSsK9cAEc3WxRGXYGhxIIhqolCN01Ad3cnODSoT/mByajIuJ7TFh2AXlxh7HlSjGE6RexamRXuDu7oeu4rbhbfTLuYrx3NtYF7MIEn06YcSoYZw4lgAxVUfE4EEuG+3D7u6LDgPkITKq+n/Ka4A78v/oJTf0v4fiyEejZoSP6TtmO75d4QSO/GFVhIUiwcYMrl7MpCdXR0NICxojC3llrcfjQ1+jfzg0dPtuM+yVcWZVhr84rzg3GpvE94enC1XPiHnDN5ybyYwQuGQ4fd2e4dhjAtS9Jenfnb1WM0LAseI/vgqjdR5AmHUyEhT9Fa74913XpuLhqJLpydXLrOg5b7xZUj7cwcicmL/0Bhxd8io+4cZ1+9B5+Xf0ZOvPd0HP+eeRwOwljQxGjq4nYeT3RrsMgLL+SLT32jfj4BQnBmzC+pydc3Ltjws4QFEmqVYPg1np8vuW+LBkR4VHADMz9ObX6XU3CqC1YfIWPuVPtUfD4EcqkWxG+4wus2rsTU3q2Q4dBy3ElW1ILrpmvxsAd3SfsREj1iasQFpIAGzdXcH9Ix5Zej5soOwj+I7h48eyDOQfP4n6eI9ysVRXE3T+NSxzCwvHMfThmjBuDMWOkr9GDPoKJMvcNWF4/i3MRvGk8enq6cOM7EXskgSiMRWisEcwKN2FIRze0H7YR96q/NVfgceASDPfh5rJrBwyYH4i3p4u0/+LQwpXrP+7iK3cecGOYcWklPvN2g0evGThyehtmbPn9rbg4hwK548NdD0O5edzNDU4uHdCfq0OypA4K4rQ+q15Tn7lj+Ixxr8ZyzOhB+MgE8seSa/Gr7dycnLgnAqVc/MeGxsLIrBCbhnSEW/th2CgdzPevfRz58a6s4Pxv49bdLYtxhT8XU+0L8PiRdEZyiyZCEmzg1iYG309Yhgt5cTi85Qqe1aI+zH8M1THB9elk67WCHkYsp7buiymkiqji4gRq3nEdJQlFlLmtKxlYdqeZBy7Q1Z9mkasJnyZs+4WCzqwj3xY2NO1ahawkmdJTNMKwCTl29yVfX9nrk3bUXLsLbc2spEdrOpDDrNtUnrmdelj70qbLN+ny3nHEbz2dLsVdoC/cDajjzAN0Pf42LeKbEH/CNvol6Ayt821BNtOuUYUok7Z1NSDL7jPpwIVb9PD31dTBYRbdLoulDT621HPJUbp26yodHN+GLCddppq1EwR/RbatZtBNgWzDG4QUu7It8ReGUBX3d+LaTtRmzh2untuoS2M9ch2xgQKvnqIZbuY05mw5CR+teX1e76bkOe0HunztGM3yMqJeu55Q9AYfsu25hI5eu0VXD46nNpaT6PJbXVXnBNdpuq0XrXgYQcvbutNi6WDShOYdaV1SCd1bxCcT/gTa9ksQnVnnSy1sptG1ChGlfdeZGpq0o883naSzq7uTrmZz6jV3H509s5DaGQykn0pFlLOzBzU08qYFR67Q2Q2+ZGk9jX7jjq0ZH7+dWkqd7XvTkkNXKPjSbhrj4iGtQw2Cu3PJqetmeiIiEuUcoaH2n9K+dO5NTaJ0+sHXlvrtSaWKh8vI3elr+l0yZsJkWt+hEZl1nUc/XvqFNvg2J6svfqMKwUP61tueei85RFeCL9HuMS7ksZgbR2EsrWzLp4UhFa/GtuLluBVHkn97C/roq4N0+dIeGuvYkBp23U6Zpffkx520Zv+gCrow3pzMOo+nufPm0bzq10Lae7eYBA+/Je8/9DPXxg3e1NRzGv1w+Rodm+VFRr12UWbWTurR0IA8Jm6mM7+doTkeZjTyNBe/sRvIx7YnLTl6jW5dPUjj21jSpLcDVBhDKzxb0udXKkikYB6U3llIfIuONOvgRbq4bxJ9ZKhDXqti3oiLW+E3yV/e+HBzeXsPa/LddJluXt5L4/itafqVQgVxKqtTPVVxYTyZm3Wm8XNfjuU8Wrj3LuXJHUtuBeLGx7upJ0374TJdOzaLvIx60a7MLNrZoyEZeEykzWd+ozNzPMhs5Gkq5+L8fWsfCeTHe0qE/PO/TZT+A/na9qM9qRX0cJk7OX39O1VPydiV1Ja/kEIqkunCF+5k0JFbl69eoXXvqw/zn1PHd17EyAqNhMCBDxvHsRhldBp7rhYhOTQaam3cYKZSibDQR2g+ej2+HdUBRRdOQmfeMXw/tS+69JuOGX1VEB2eLStLShgXiuhGHTBo8Otb3b3tNFBu6gJ+kwqEh6XBju8Ijca2sFN7gEMB11H80QaExGxGjxZ60Kx0QL8v/MCP3YlD2vNw7Pup6NulH6bP6AuV6HBkV4Qh9FFzjF7/LUb1aofmKRFIs+PDsYE1/Nb6w1c7GcGXzuN6fAEaaDVEzRvelSkpyLVuAye5d2oldy2y0ZpvB1XuW2lYeDpauTpw39hD8ajlZOzeMxO+nZxg1kgburrKKAsPqz6vbege7C3ww7b1Y9DNexBWngvHoVFmsPVbC39fbSQHX8L56/EoaKCFhn/z3XdxVigiBQ7g2zhi7CgjnN5zFUXJ3HiotYGb9mVsP6SNece+x9S+XdBv+gz0VYlGeHYZ18QEtP78e2z9qj/amWlCs8si7PMfi97OBlBvYgZTVe4beGgyPL7eg+XDuqLP1AnoIkxFcnnN+PBG+fkfEKPMfUM7uQObdl1AUnEKYh+9+YOPmq0dLLMT8LiqFLe+XYf0ocsw0uLNsC78dSXWJPjAz6UQ8WUNoZfzCI/KuQ+4sQ9L9cS83avg16Mvpoz1QWVaMgqvbsG2aGXu2/5J7Ni0CxeSipES+wiVkruK2a3Btyt/NbaVsnGzvr0deysnYNe6kejWYzQm97VBCxdXaPy6XX7c/dNf/UVJCH0oQtPmuq9jWEkVmo2Aq1u2Ifrtfo65iT17C+C3bT3GdPPGoJXnEH5oFPQjQhDfagp2b5+Ofh0cYdRQD4aGylCx9sNaf19oJwfj0vnriC9oAK23A1TSf6l2cHNRR6XceVCEM5sOQm9eANaO7ImeoxdgsL0uHF3NasRFL/CzD2KHvPFRbgxbOzU8OBSA68UfYUNIDDZ7XVMQp/X53osISaEPIWraHLqvBxOqmjzckTeWj0pwd89eFPhtw/ox3eA9aCXOhR/CKP0IhMS3wpTd2zG9Xwc4GnFzw9AQyirvX/sqfpMX7/Z4uE3e+d/+kbYQv65cgwQfP7gUxqOMi6GcR48gmZLFoWHIbs2HnboZ9DQr4dDvC/j5dMbI99SH+e+p4+SlHCEhiWjl5gqeshmGTHDHvYAzuBOVgdZuTlAXJiA01gQf+3IXdFEaohN04dm2qfS3c3EhktJeQMdQp7qklwq4i0O26yBMf3WrexR6mIhBXILkgBiExlvAxVUTaNQFG4LPYY5VDFZ298DYE9kQPg9BpNgFXmZAWnQCdD3boqn0ZChMSsMLHUM0SgpFrMnH8LWT/ChViZjQeFhwF53Ki9PRqf8aXEt+AWiZQFVQBXtXR9TMU5TV1aBS8gIvaq6DBVfw7Zc7cK8wilsYLOHqqsEVG4OwODOunmpICI2BYW9fOKlz+1Zwi3lKK7jaQ3ZeZwiiYlHGbwsH2Yk09E2gV34R0zv1x5pryXgBLZioClBl7wrHD/t5+4OVh4QgsZXkZy9lmA2ZAPd7AThzJwoZrd3gkBONBF1PtJV2KDd8SUh7oQPDRokIizVEt96SpE2AyJB42HXrCckjSRWhoUhpxUcbFe5CGm0An+7Nq8de/DQJqWQAQ9Wa8fEEUfEq8PQdLEta+2H0ws34sr2k42poaAtrXhoeh3+PZVe9sGSa0+ufFyUEodi0+DgKS69gwdCBGOi3HWFlCYh7LOQS4zDEmXdGl+o2iPE0JQ08I0M8j4qHiqcvBsuS5X6jF2Lzl+2hFMVduC1d4ar8cmyVX43bi5gEaLTzhm31yUuRmlYKezc7ZCuIO506nnnvJUkc0lwwdu1arFmzRvryX4Zhdjly+3ma/SPElvHR9nUgwkRPlbtoRkO3W2/YS9opiV8uGeE7lOHi9E7ov+YapNOFG/kqe7i+FaCVkSGIMXcFX1sofx7YPsWjVD24uJlIF6YKLsnM5sp3TH0dF9yF+4mC8VFHI3TZEIxzc6wQs7I7PMaewJMUBXH6jw9AXZJ8MUqDy9i1WPtyLNf4Y9lgbcTKmzNtyxAVWwZ+WwfZ+qUBfRM9qHJrX7RuN/SWDiZXZir3RdABZe9d+8TIkRfvrjqIr8WcFYRuwuLjhSi9sgBDBw6E3/YwlCXE4bGwElHcemHpyiX94ucIiRTDhVu8i2uxFjP/PXU7gyujERJjwF2k9asL1u45AT1Tt2N3NHfh5mtxcy4ckUUuaGvDRbySDvS0niI64gm4ywgyzi7B+vD2GNytsbSsagKEPYjjgtmFW5Ze4r6dhz2GtZsbNPLCEFnGLZLm4fimnSfmRrXAkKWH8NPUJrh6KRyl3MUyyZa7WKopQUdPC0+jI/BECAgzzmLJ+nC0H9wNSuGRKHJpC0mVqp/niCzjJoYpEm/cRgPuQhewbRWmtS9FfEpzOLu8+ZCqhldn8KP2Yc2lLK4F3OEFEdg9+QvsKTJG84JQPEQb8E2Uue1cu0vtwW9WhvDIZ3BwlyzCku56gBgzbjFv+PK8LbhvwpqozEhDroj7fnJ7ETq4zsCvkTdwu4Eftgdsw6pp7VEan4Lmzi74i4/MvkclorlvrgZcIqcvHUxM6JmK7bujYebCR2MdPWg9jUaEtENxdsl6hLcfjG4UhojnDnBvzbVQlImQh2pwdjPg4kGIWK48I648LcmFNC4TKUncYiTKxSX/nUjtOgCdqmrEh4oujJpUoUK/E0aMGYGepsk4e7kA+qbSi9ArarZo1ewx9nyxDzpfzkc3bdn2aiKk7F+MHxrOx/WEBCRUv8KxvsszbpEtRn54OBJy0pFazI1d9lks35GBboM7w9ioCaoq9NFpxBiM6GmK5LOXUaBvjKfct1204cMoVza2RgWycWsOrUYayH8ch1yxGM+urcSa84Zw5WsqjLuaUf5PqE4czPhw05VteElBPxs0awzNygykSQMRizq4Ysa1XO4ClwtHDwdZ/ErKdIGL6iPcuN2AuwgFYNuqaWhfGo+U5s54c7qIkRX2EKVc0m2jWix/HmgboalxLoLP3kPWs3icnPc1jvKc4KoW+TouuHRXV+74GCL8m3bwnBuFFkOW4tBPU9Hk6iVEcN/q5cbpPz0AdakykltnzcB/ezAVzRlzTTTSrERGWi43Iwpxe1EHuM64htzQMOQ6esBBOgjVZbq4qOJRLdY+TXnx7m7y/jkrSsH+xT+g4fzrsvnIvcLXows33vHF2ZBOMS55rQxFaJIt+G1Qq/ow/0Gyn4/qhChrB3U3G04nSmQbSEgJGzpRI5OxdK5c+jyMQ7+99LT6MxHlBc0nL0MdMjY3JF3zzvT1hUxuaw3COFr9kSVNvFTj182qCFrCb0mTgyqo/Nw4suy9i3JF5XR/XS9qqqNHFpampGfWmVbcLqb8IwNJT6sp+W6Po8q8IJrvZUg6xuZkqGtOnb++QJkiAV2f7kD99kprxBVI4yx7065cEZUELyQ3PR0yMTcjm66+1N7chza//SwFCSh2/yhy1G1EBs2akZGOCbmN2UkhL4hKTvqR5YBDVMDtJXnmx+rj3ZRbfp2m23WRlSOizO3dyWrSJaqocV7KD6K5fH3SNTUjPUNnmnQslYQlwbTQTY90TMzJzKYr+bY3J5/N6W/2VV0TZdGO7mY0/PVgkjBhA3VqZEJjJYMpyqOg+V5kqGNM5oa6ZN75a7qQKaKKoClk4/MdpUkqV/wzDbUcQkeLub9FObSrdwsad76CBDe+Iv7H42mEgxmZm+iTufdS+u256K34IHpx6xvqYKxDRiY6pGXRlZYG5cpps4Buz7IlLY/lFPHWs0ei56dodAt7mhn8ug1cANGDBc7kPP8WXZzUkqtHH7Ll+tpQ24y6LL9BeZITvLhF33QwJh0jE9LRsqCuS4O4GCuhk36WNOBQweuxrTFuouxTNLGVDumYNqXWXb3J0WYqXeXCViQ37qQ1+eeIKGVj5+rnGUplW2qS38/5FDSXT/q6pmSmZ0jOk45RatkNLn596LvqwX0Zv5JnD0ooeKEb6XHxb25mQ11925O5z2Z6c7qU0InhpuSz5QmJJM9SyZsHkr0ebKb+dnrU2JhPn3a3I6PhJyj/rbiQPz7c9L2/jno11SE9C0sy1TOjzituU7GCOK3PRCkbqbPZSDotZzAVzZn8oLnE19clUzM9MnSeRMdSy+jGdDvy+S6t+nNR5nbqbiV9jq42a5+ieH/3nBXR81OjqYX9THpzSj6gBc7ONP/GMfKzHEDcFOMqfIQG6mlRU9/tFPpbbdZi5r+mzh/Y/VCikiyKj02m5zXykz9LUJBGcTGJ9PRVWRWUm/iIMotlgc5dgLLiYym5licT5KdSQvoLLgV7j9IcSoiOo/TCPz6Y9qdUFVBqbDxX7xpnFuRTakI6vXhvZf5JXJKXFU+xyc//3MNzpdmUkJAt94L6UnV8xKVSvtyHojklD2h5ByeafKlQtqGWhPHk396J5t4TUGlWAiW9Dhqp6liJo1SFJ5aj4jmlpsrpiw+Mu/8P8vu5igpSYyk+s/j9c4BLIvNTEyj9rwRoSQj9vPMyJUuKqEqkbT2aUr992TUufjUoGh9BAaXFxVDiG+P5F+O0nlE0Z6oKUik2PpNqLiuK1GrtUxDv752ztVSRm0iPuNiTjH+t12LmP0NJ8h/ZTRiGqVcqzn4Bt89PQKX/PlzZ/DEMP+RH0OKjGNLmDAZG/YRBr3+TZP4/CSOxocfH8H+kAW1hPkT8RThxbCbcGso+ZxiGkWHJC1N/VTxFSo4KTJvr463HeN+v8hmSUoQwsTX5m58dYj6MAHmpKXiubATLprrsoUyGYeRiyQvDMAzDMPVKff73ggzDMAzD/Aex5IVhGIZhmHqFJS8MwzAMw9QrLHlhGIZhGKZeYckLwzAMwzD1CkteGIZhGIapV1jywjAMwzBMvcKSF4ZhGIZh6hWWvDAMwzAMU6+w5IVhGIZhmHqFJS8MwzAMw9QrLHlhGIZhGKZeYckLwzAMwzD1yt+QvBThyvIh6N+/P0Z99zsqJZvEebi4bFj1Nr/1tyGo3k+iBLe/6Qn3/v64lS+WbXtNnHMKCwYNxuJzucg/vxSDB81HYPYf96sL4uxTmD9oEOYcS4dItk0RYU4EItLft1ctiPNxfulgDJofCMXNEv/1tgtzEBHx/nYxDMMwTH1Q98mLIBxnDwbi7LlzCLyVDCG3SRi1HYvXnMDZs+cQV9IYKtI9IUq/hF8y2mHl9nlor/fHqpTfDcSe0/fwTF0LhUINWLayh5XB33OzqOL+aew7dQ2ZKvqv6vdHYuRdmA0v58k4VyLb9FdQIYQalmhlbwXFzaK/1HZx3gXM9nLG5DqpMMMwDMP8/6vzTECUFYqILAO0ttOHqKwUFeI8nF63E7HNWqOlmj6c3KyhKs5F8OZJ+GToalyODcO1OynSOzSiLPy6cjg6u/HRyW8N9l8JQ5FaG7g75uDe9TCkNzBDS1Wg6OERLBjqA3cXN3QZsxE3n0nuSHCJxb2dmPZpB/Cd3eA9dAnOJFeXCpQ8RMCs/ujIbwNnr96YsjccxdJPZIR4HBqJQmV78F3VkH58Dgb5rcL+fbMxoLMnV5eteFAKFF9ZgeEz9yA87wkuHjjDnVLajj5tXeHS1hfzTiZx7RAicucEDP5yI76f/ynafzwXK74chOHrbknvOAnjsH/qQAxbeh7ZKfdwPSwdDcwskaXgnBCl1Wi7GLnBmzGpT1u4urSF77yTSJI0UZyO43MGwW/VfuybPQCdPTvBb+sDSYWxYvhM7AnPw5OLB3AmWyj/eJTgYcAs9O/IRxtnL/Seshfhb3YQwzAMw/zPqPPkpSI0FDFKdvDkawHlJSiK3ol1p8To2akliuAAN1cgcu0A9JsXBBUfP3xiEoPvxk3D/owqxG/xw5DlN6DScQg6C/Zj7u44wIYPvuodnPjhDCKLNKGcuBPDuozC7jRrDPzMA2Wnv8boFcEQRm/EgF5f4KdcOwwa0xuN76/BcL+NiBEKEfrtCEwMyIfb6InwbfYEJ1f543h6zZ9gChAamgCycIabWSXuB+5D4LEN2HKtETxtRAg7ugLbgspQLBSgLL8UKi3d0KlNU/ntSHuC6z8H4MTuFdgSoo/2gz9B86wgnDx5EykiMbJ+WoSv90RA56N2aHDvBH44E4kiTaGCc1ZwCcjrtlPkWgzoNw9BKj7w+8QEMd+Nw7T9GVw/30fgvkAc27AF1xp5wkYUhqMrtkFcLISgLB+lKi3h1qkNmmaul3u8MPRbjJgYgHy30Zjo2wxPTq6C//F0Wd8wDMMwzP8YqlMC+n1ea1JvNYP2znemBu7zaN1nZqTuOIf2zHEgdbs5dPfFFfq8qSo19F5JwRERFHZyCtmpmdPEs9dpTise6fkGUK6ISJS1lXzUlMlw1BkqCv6KrHk6NPhoHt2ba0c8jQ60PkFYfb6nKUmUWVhMN760IlVNb/ouWbK9iqK+4RNPvSftfl5F9xc4Ek9Vjxz6TKIVAXcoU1Bd2dcquDpZqJLWpwcpv+p3+tqeR+peqymWK6rkxHDS47Wgade5gwoCyFeLR63n/U4CyTHy2nH6GI0wUKGGHddTXJWkcCHFrvIgNaPR9MvTIPrCWo3Mhv1MOSIBBX9lTTydwXS0QPE5Ba/a/pyufN6UVBt608rgCIoIO0lT7NTIfOIlqvr9a7LnqZPX6ljubCV0Yrge8VpM485dQAG+WsRrPY9+F1QoPv7+AnLkqZKeQx+atCKA7vyhgxiGYRjmf0fd3nkR5yMsPAXqrV3gqt0A4uQArD9Rhm7TBqI0JBGabdzgIExDei5BM+8G1i1ejKUHMmDVuzfc9R8jNgWw8fCAPlcr8bPnKCQeHNxcURAeiTTYwZWvjPj4FFCLtmjfVPJkihoMmreAqTaQmvIEaOYOLzPJ9kpkZj4FNdCGtoYq3BeewIkVvjBOOIblozrCY/xJVP/SJCNKDUFEjhJsXflolBeO8GSgdffesFYRIi7sIYrVHcB3VENlZAgeVmjByc0eamXy2+EqjMTDQh4+GjIMNqqS0lVg6ewI/cJHOLd0Pvbnd8OS1QNghFyER6YBdq5wKVN0TlXkvmo7IS09F6SZhxvrFmPx0gPIsOqN3u6myAsPRzJao3tva6gI4xD2sBjqDnyuGyIR8rACWk5usFcrU3C8OVTdF+LEiRXwNU7AseWj0NFjPE7W7CCGYRiG+R9St8lLVRhCokWwdnJCk4YNQHnZyLPww8xPUnE3QozWfD4aNLSClbkyeNbDsDFgGya3s4S191B87KALLU0xku/dQGJePI74H0AkWYLPb4SI0GiQiRP4FhowMNCFUmEakrMycXv9cHT0mYzDqSpobmkOPLmLyxG5yLyxFquOZcOozyB8FLoG/Xt9iWDbRTh1JxBT7ZTwNCEB+SSrM6csLBTxYgM48a0gDg9FtFAfLh62UBXnITQ0CVxWA9fGYjyPikYGLNGqlTqgoB3tCyKRCGt4ehq+6lw1Z2cu/biPfbvj4Tr3W4xtziVYFWEIjSaYOPFh/FDROSsQ9qrtjWFlZQ5lnjWGbQzAtsntYGntjaEfWyGc20eo7wIPW1WI80IhPdwV4udRiM4ALFu1gjoayj/eOw9r+vfCl8G2WHTqDgKn2kHpaQISanYQwzAMw/wvkd2BqRNV0cuJr2ZAI0+X0ov9fUhdqRF5f5dIpdenU0tec5p6tYLbS0TpJ6eQs44KKUGJeLrONO5QAlVRIV1f5EG6KkqkpGZGjnYGpFr9k0o4LXHmkWbvPfSUO1rwcBv1s1DnjgUpNbCgbkuv0XPJz0zpgTSVr0c8JRCUNMi8yxIKkvz+VHKfNvRpRg0k2yXn0/egWedzuFq8JKBbM21IVaM7fZ9dSXGrPIin0Y12ZHN7VFyg8WaqZDz2HJVzRzw9OpSMufqpNBlOx4vltSOafp3SjHhN/CiwVFa8hOAmzbBRJQ3nBXSvXLqpKnwJOfM0qfeebMXnrHqz7aL0kzTFWYdUuLYo8XTJedwhSqiIo1UePNLotoOkh48nM1VjGnuOq/HTozTUmKufShMafrxY/vFVJXR/Qx9q1kBJkq1w2/XJY9Z5ynndQQzDMAzzP0VJ8h9pGvPPEpdk4nFaOXQtrWCkKdsIEYozEpGtagEbk1cb/0jwDEmJeVAzs4KFTvVvMzJleJqYgudqZrBpqoPXn4hQlPEYaYU8GFtbwVBDtvmDiVCYFo8nImNYt9CHOrdFfjv+RuISZD5OQ7muJaxqcUJRYRrin4i4dreAvrTCco8XFWVw7SgEz9gaVn++gxiGYRjmb/f/lrwwDMMwDMP8GXX+T6UZhmEYhmH+Tix5YRiGYRimXmHJC8MwDMMw9QpLXhiGYRiGqVdY8sIwDMMwTL3CkheGYRiGYeoVlrwwDMMwDFOvsOSFYRiGYZh6hSUvDMMwDMPUKyx5YRiGYRimXmHJC8MwDMMw9QpLXhiGYRiGqVdY8sIwDMMwTL3CkheGYRiGYeoVlrwwDMMwDFOv/A3JSymu+w/DkBVBKJZtqSZKwuEZgzF+R7hsgzxCZN0KxLVUkex9DQXX4D9hMc5kyPnsHYRx+/Hl0rN4JpZtYD5I5e+bMWb8doRWyjZwKoLXYoz/b7J3f5I4EycWzMbhpA8bz79CnHsWi4cOwYqgNyLzg7yKp8o47P9yKc4+q0LykdlYcCJTtsdLAtzZOBEbbgtk7/8HVARj7fD+6N+/5msgpvwQy828v4tIQf+89qpPq5JxZPYCnMh8a7IK7mDjxA2odVd+6P71kgC31/u9HscBgzBs3CxsuZbJ9Xg9oGj+i17GQCXi9n+JpWefcZuOYPaCE/hjWGzExA23uZ6onQ/dn/nfVvfJS+VDXPjxHC7+8hsevVoRxcg5vgiL9/yKpEo92TY5Ki5i0agApDdWkW14SYDI/fuR3H4UPrZ4+7N3ESP/5glczOGhMbvH9CeIkHjlCE4f34Qt5wtl24SIuvQTwoo0Ze//pPJ7OP1TCkj/Q8bzryjBjdXLEJSWgJNBsaiRi32A1/HUqPAmTlzMAY8LLFULT3RzNZLtIyOMxsUjESj+Qyz//xFGXcLh21Vw/Lgv+vZ9/frY3QKqsn3+DnL755Wac1QVFp7d4Gr05mQVRl/EkYhi1LYrP3T/ekkYh1+P3ECFQ2/pOPbpiY7N0rHD7yv8nC/b53+ZwvkviwGDQtw8cRE5vMaSAIJnN1e8GRZCRF88gojixqjdMH/o/sz/ujq/pIufhyHiRSvYCRPxuFy2sfg6Vq97jCYtmsKFb8IlKY8RuGQ4fNyd4dphAOYHJkEojMD3E5bhQl4cDm+5goKovZi9LgC7Jvig04wLKFRvCEsLYy60xcgN3oTxPT3h4tYVE/dEoFRyQd3zBb65WFB9OnH+eSydugdRwiqEhSTAxs0VPHnnrN6bUawYoWFZ8B7fBVG7jyBN8s1HnIew8Kdozbfn1oN0XFw1El25PnXrOg5b7xZwo8NtjtyJyUt/wOEFn+IjboymH72HX1d/hs58N/Scfx453E7C2FDE6Goidl5PtOswCMuvZEuPfWPcf0HCy7F2744JO0NQJKlWDYJb6/H5lvuyZESERwEzMPfn1Op3NQmjtmDxFT7mTrVHweNHKJNuRfiOL7Bq705M6dkOHQYtx5Vs6dc7cW4wNo3vCU8Xd3SfsBMh1Sd+HU/cH0iwcYMrheHMoQSQoSpE2UHwH+EDd88+mHPwLO7nOcLNWpXrpotYNbIr3J3d0HXcVtwtkJ7jnyVGXlg4ct2GYsa4MRgz5uWL+0LgqIWS0F2Y0M0NTi4d0H9+IJK5ySEM34EvVu3FzilvjhHXOQjeNB49PV3g3n0Cdko7543tbl0nYk9EKfdl5nX/VDwOxJLhXP84u6LDgPkITJLMwNd9SmFncCiBYKgqQnaQP0b4uMOzzxwcPHsfeY5usFatwOPAJRjObXd27YABXD2ri+DGXf7+ks/+pQpCEZbJx+CvxsvGcRwmzx6Fdmo5eFIgUhC/XAr/AeMsP265tXbvLKw9fAhf928Htw6fYfP9EoVly13rJaUomP+VL2OAm1chCTZwcyWEnTmEBDKEqigbQf4juLI80WfOQZy9nwdHN2uoKlrbFe0v+Yyp9+o8eakMC0W8dS/0NE7Do+rorUTEd0twx7MLzF/Ygt9GBXE7JmPBA2tMWrsd6yfo4cLsdfitUhvNdVQgduoDP28rlAT/jIDvD+Nx+zlYPbYp7h2/i8IGahDFfYdhI36G5pCV2DjPGVGLF+BwVg6Cj1/BU3Xp3YCq0HP4KbEKTSgZoTGNuYVOG4/knZPdP3y3ykiExJrDdfQU+L44gH3h3HhWhSM03gp8vhJ+/6Y/xp3SgO+SDVjSswDfjV6KGwIxsq7/jB/3/IBbhiOxcIAKDo0bhs1FXTB7aU+U7DuA6xWSC2kYErIyodR5Nub7inBgqj+CuWOf1hj3bzqFYeKUIJiNWIUtKwdBtHsqNoRWL0uvKKk+w72z96p/FhTnHsOytalo1bap7FMZcQZ+XBoA/ZkL0dvJCkbJcXgsyXZEGbh29CC+55KdtjO+hq9oP6asDoagMgrrh01BkNkIrNqyEoNEuzF1QyiEotfxlBoag8bcRVg7/RqO38mHBh5i3eCxONtkNFYv/xT5m9fjthUfruLf8U3/cTil4YslG5agZ8F3GL30xv/DrWtJkhANlee/wf/rr/G17LVo1y0UiLMQsHAD8j72x/a1o6F3ZTE2Xy9DxrWjOPj9z0htOwNfc2O0f8pqbowqEbV+GKYEmWHEqi1YOUiE3VM3IFQoQtx3wzDiZ00MWbkR85yjsHjBYWQmy/pHJQ47Ji/AA+tJWLt9PSboXeCS1N8gqNGn6deO406+BvBwHQaPPYsmo1dj+af52Lz+Nqz4rlCJ24HJCx7AetJabF8/AXoXZmMdN4krFeyvJmv5v5EgMgQxjVSQffZH/PjjjwjYuwlzBs/E+aZ90cskVn78fsg4FymIW/FTBB/di283XobhiBVY5P4Y63deR4WCsuWu9dw8lz//RUiVxYBKMpfcNOaSEe10XDt+B9KwGIyxZ5tg9Orl+DR/M9bf5tYhVwXXEy5O5e//b46K/5Y6Tl6EeBwShYbOneHVogKJjwUQpezHomMtMKtbBWJNXeHKTThrv7Xw99VGcvAlnL8ej4IGWmioagY9zUo49PsCfp1MEBn6CM1Hr8e3o3qhXYtkRKa3gqsDcHfPXhT4bcP6Md3gPWglzoUfwii9CIQl2cLVSZ2rgwhPwmPRwMkV+qXct5Ps1uDbqcs/p5K01ox84qxQRAocwLdxxNhRRji95yqKuEUlWq0N3LQvY/shbcw79j2m9u2CftNnoK9KNMKzyxAWmoDWn3+PrV/1RzszTWh2WYR9/mPR29kA6k3MYKrKXUhDk+Hx9R4sH9YVfaZOQBdhKpLLK7ntL8fdG+Xnf0CMMvdN7+QObNp1AUnFKYh99OYPPmq2drDMTsDjqlLc+nYd0ocuw0iLN8O68NeVWJPgAz+XQsSXNYReziM8ktwVrAhDWKon5u1eBb8efTFlrA8q05JReHULtkUrQxh1Ejs27cKFpGKkxD5CZfHLeCpHaFg2WvPtUBkehjQ7Pqxvb8feygnYtW4kuvUYjcl9bdDCxRUav27HIe15OPb9VPTt0g/TZ/SFSnQ4ZDd4/jmiJIQ+FKFZCz28DnslqDRshIbKjWFrp4YHhwJwvfgjbAiJweau3DfesFR4ztuNVX490HfKWPhUpiG58Cq2bIuGsjAKJ3dswq4LSShOicWjkrvYs7cAftvWY0w3bwxaeQ7hh0ahcaS0fxwbWMNvrT98tZMRfOk8rscXoIFWQyi96tNKhIelwY5vjdvb96Jywi6sG9kNPUZPRl+bFnBxbQKetR/W+vtCOzkYl85fR3xBA2g1FOA3BfvX+Tez/xncRT4kEoXKz3Dn5M84uHEeJi8NRFH7Vbj8y2xY31AQvx8wzrFnFcQtN2dCH7XE5N17MNO3E5zMGkFbVxfKcsvWVLDuKpr/ZbIYcIQgNAzZrfmwqwxHWJod+Na3sX1vJSbsWoeR3Xpg9OS+sGnhAtcmPPnnEPymYP9/b1T819TxSL5AaHgmWru5wN7GEOmPonBu1Q5UTVwIflIkKh1c0aL4IqZ36o8115K5vbVgoipAlb0rHFWfIyRSDBcvM6gIExAaa4KPfe2qb/FVxoQhzowLPI0CRMWWgd/WQfatSgP6JnpQSQxDjK4TnLW5TeI83LyTglau9kBUCOItuYSpQsE5WRL+TuUhIUhs5QZXnjLMhkyA+70AnLkThYzWbnDIiUaCrifaNpX+giwuTELaCx0YNkpEWKwhuvWWjJ0AkSHxsOvWs/r36orQUKS04qONCnchjTaAT/fm1b8/i58mIZUMYKhaY9xFTxAVrwJP38GyZzP6YfTCzfiyvSRBraGhLax5aXgc/j2WXfXCkmlOb94WFoRi0+LjKCy9ggVDB2Kg33aElSUg7rEQwjgursw7o0t1G8R4mpIGnpEhnkfFQ8XTF4Nlz4T0G70Qm79sD6WX8aQchZB4S7i6KiMmNB4WLs54EZMAjXbesK0+eSlS00ph72aH7OgE6Hq2hbSbxChMSsMLHUPo/NNrqCRJSHfD+PVrsWbNGtnLH9/4OXNzqRG6bAjGuTlWiFnZHR5jTyC7Mg5hcebo3KWpbIxSkMYzguHzKMSreMJ3sOyZmX6jsXDzl2hbFoXYMj7aOsgmlYY+TPSUZP3jisqL09Gp/xpcS34BaJlAVVAFe1fH13NUOQah8RZwcX6BmAQNtPO2lY5jaSrSSu3h5lCGi9M7of+aa5AWwUVXlT1c7fMV7P9vntySLwhJ4H95FGd+OYeg369gSctMPDP0gL0O4YmC+FWv9TgbQDlBftw2SgpFjGFv+FZ/UazgknjpWis3hvIVrLuK5v/LGHBV5cIiHpaurlCOCUW8hQucX8QgQaMdvKUTjBvmNJTac+tQmfxz2Ocr2J+t+f8adbuECiIQEtccfNfGMLJpjoITUzAvsi+WTzBF+IMEtJL8rv3oBm438MP2gG1YNa09SuNT0NzZBZqVoQhNkvysxEVXcTgii1zQ1kYSeGIUhEdygcdHMx43/TQrkZGWy333KMTtRR3gOuMaXjx6hCdNrWGjWom0Mwux9qo5d2HRQHboQ6ANH/oJCs4prTUjVyWiuW9PBtyFR18SJdo9MaFnKrbvjoaZCx+NdfSg9TQaEU+EgDADZ5esR3j7wehGYYh47gD31tzYiTIR8lANzm7cYgghYrnyjLjytCQX0rhMpCRxVyFRLi7570Rq1wHoVFVj3FV0YdSkChX6nTBizAj0NE3G2csF0DetXk1fU7NFq2aPseeLfdD5cj66SRLYV0RI2b8YPzScj+vcYpxQ/QrH+i7PEB9fjPzwcCTkpCO1mIuy7LNYviMD3QZ3hrFRE1RV6KPTiDEY0dMUyWcvo0DfGE9l8WSUG4qHaAO+UQHCIsu4i3BzaDXSQP7jOOSKxXh2bSXWnDeEK18TOnpaeBodAWk3ncWS9eFoP7gbGstq+E+pjAxBrIUbPN7oHwkhQr5pB8+5UWgxZCkO/TQVTa5eQmhuOMITcpAu7RycXb4DGd0Go7OxEZpUVUC/0wiMGdETpslncblAH+aajbg5nIG0XBFQeBuLOrhiRlCGrH9MkXjjNhpwiWPAtlWY1r4U8SnN4ezyeo4aFYQhsoxLRpproZFGPh7H5UIsfoZrK9fgvKEr+CqPcON2A/htD8C2VdPQvjQeKc2d4aKpKX//BrLm/RtVPkRIjBH47rK7S2r2mLKgG6LWrMONMhXoyo1fQ4R/wDj7GMqPWyVuLX7m4A47ydJcGY0HMWZcnDeQG0P3YxSsuwrmf4dSWQw0fQppWBihICwSZVwy0lyrETTyHyMuVwzxs2tYueY8DF35UFF0PeHiUd7+/+aw+M+hOiRMXEsdLCfQxQru76R11F6jKY39JY9IcItmtnahhSFVRCXBtNBNj3RMzMnMpiv5tjcnn83pJMo/QgP1tKip73aKvDqdHPrtpafVpVbQxQlW9PHuXBJx7/KD5hJfX5dMzfTI0HkSHUsVUlX4amrLbTOzsCSPEcOofavP6XJFCZ30s6QBhwoUn7O6fEYuURbt6G5Gw0+UyDZwY5qwgTo1MqGx58q5z/MoaL4XGeoYk7mhLpl3/pouZIqoImgK2fh8R2mSzi3+mYZaDqGjxdzfohza1bsFjTtfQYIbXxH/4/E0wsGMzE30ydx7Kf32XESC6zXHnejFrW+og7EOGZnokJZFV1oaJI2BNwno9ixb0vJYThEC2SYZ0fNTNLqFPc0Mft0Goip6sMCZnOffoouTWnL16EO2pmZkqG1GXZbfoDzJCV7com86GJOOkQnpaFlQ16VBlCt6HU8lJ/3IcsAhKig/R+Mse9OuXBGJsk/RxFY6pGPalFp39SZHm6l0lZsHorwgmu9lSDrG5mSoa06dv75AXDf9w0SUsrEjqSmBJFP+9UuNvLl5UHp/HfVqqkN63Pwx1TOjzitu0/PLk6gl/2PqY2tKZobaZNZlOd2Qdg7d+qYDGesYkYmOFll0XUpBXPu5mUlBc/mkr8vtr2dIzpOOUWrJ6/4pCV5Ibno6ZGJuRjZdfam9uQ9tTn/xqk/Lz40jy967uH4WUfapidRKR4dMm7amrt6OZDP1KrcKlFDwQjfS0zEhczMb6urbnsx9NlO6wv3/vUTpW8jHdDjVmJpcWIfQQidjGvAjN0fkxi9R+QeMs/y4FdD16XbURbZ2ijK3U3erSXSJ62x5ZRcrWHfLFcz/VzHw4iT5WQ6gQwXldG6cJfXexbVJlE2nJrYiHR1Tatq6K3k72tBUyQRTtLYr2p/516jT5KXWBPmUmpBOL4Sy9zIVuYn0KLP4vUlFVUEqxcZnUnGN4yueJlF8WiG9VeRrCs7J/BXcRSkrnmKTn/+5i0VpNiUkZFOp7K08opIsio9Lpfy3EpNXSh7Q8g5ONPlSoWxDLQnjyb+9E829J6DSrARKevpWC7hkJSs+jlIVnliOiueUmiqnL6rLiqXk5//Di6eggNLiYiixuh+EFO/fnpzm3iNBaRYlJD19q03ScY9LzedSx5qqqCA1luK5OSxvmgnyUymBS1hqMwUrnqdS6h/6S0D5qQmULmcSy9//P0xR/H7IOH9o3L5Rtsy71t1azP83VdDz1FT6Y1goOoeC/Zl/BSXJfyR3YBimvqk4+wXcPj8Blf77cGXzxzD8kB9Bi49iSJszGBj1EwY1km1jZIpxdEgbnBkYhZ9Y5/yLsXFm6i+WvDD1V8VTpOSowLS5Pt56jPf9Kp8hKUUIE1sT9uzTH1TiWVIKhCa2MGGd8y/Gxpmpv1jywjAMwzBMvfJP/4NNhmEYhmGYv4QlLwzDMAzD1CsseWEYhmEYpl5hyQvDMAzDMPUKS14YhmEYhqlXWPLCMAzDMEy9wpIXhmEYhmHqFZa8MAzDMAxTr7DkhWEYhmGYeoUlLwzDMAzD1CsseWEYhmEYpl5hyQvDMAzDMPXK35S8FCPmxAqM+7g9+M5u8Bm+FIGPK2Sf/X8rxs11o9C//3B8G/z+Oonzz2Pp4EGYH5gNsWxb3RMj59QCDBq8GOee/X1nYRiGYZh/g78heSlC8MIuaDdkNa4UmcPdqyWKr67G0L5zEFQi2+X/UeXDzZiz7EecOnUCx28kQSjbrggVCqFh2Qr2VgZ/422qctwN3IPT955BvTG7GcYwDMMw71LnV0ph+EZ8tSEMjYcewN0bR7Fz50+4tG08+Ho5iEnkUgVhKs4tGw4fNyc4e32MaQExqOBSiNh9UzBo0nrsXTsGXb3aYuC3V3H/yBz4tnND++Gb8aC0unSknluG4T5ucHL2wsfTAhBTffOkBA8DZqF/Rz7acNt7T9mL8GLJ9reI0/Hjou/w0LI/fB2AlPh4VMo+KnkYgFn9O4Lfxhlevadgb3UBIqTdu46w9AYwa6kKUeavWOXnA3ePnvhi/3ns/XIwxn8fASFX7vE5g+C3aj/2zR6Azp6d4Lf1QXW5wtRzWDbcB25OXLkfT0OAtMIQZf2KlcM7w43P7btmP66EFUGtjTuc1RW0seQhAmb1R0d+G67femPK3nDIayLDMAzD/OtRnaqikIWOxOO50tLIKtm2mkSUtteXTHUcaNiqLTS/hympag+moy9yaGd3DVJSt6DuM/xpajsdUlbTJps+c2n1BDdqqGpOEy9VkChtL/ma6pDDsFW0ZX4PMlXVpsFHS6gqZBG1UW9CnWZsoa3LBpOjYXMatC9Nds7XCs6Np+bqNvRFUBYdGdiYeO4rKEbIfVAVQovaqFOTTjNoy9ZlNNjRkJoP2kdpogL60Zfbz24u3SuNpFVeDYln1p3mrFtCA1rrkCZPjTpvSiNRyXEaqqtMPF1nGr70W5rAb0QqBiO55qbRXl9T0nEYRqu2zKcepqqkPfgolQjjaKO3NvFMfWjGt0tooE0DUlHikfOScBLIbWMhhSxqQ+pNOtGMLVtp2WBHMmw+iPaliaQNYxiGYZj/kDq+81KJ5MQMiHUd4WqjKttWkzLMPv0GezZNgGN5MpKfVwCajdBIHI6QGCF0eq1AwPov0MEMUNLphRUH/THRy5h70wTGxipQNvsU3+zZhAmO5UhOfo4KaKJRIxVALAaJCxF15TKiVfpgV/gjHBvbVHZOGcEDbFxyBDR8LZZ5G8Dahvs8OR7xAsmHYohJjMKoK7gcrYI+u8Lx6NhYNBVGITS6HA0dXWEddgAHQ1XRc/lBrJm9FOvHOaKKmsKJbwxxTCiiSnjgzzmCgGVT0cNWDcpa2lxzzfDpN3uwaYIjypOTIW1uI4ju/4Ddt7jzrPkJ6+cuxZZpH0FFSZcrqxXUFLRRLCaIC6Nw5XI0VPrsQvijYxjblP3ExDAMw/z31PHVTxkaDdS4HKYMZdVJAUeUgSvfr8eOk+HIL7iIaV7u+Gz9VWQQD+X5L6Bqz0ebJ6F4+FQFzj4+MBBGIyyqFA08e6CLXhXCQx6iUqcNXK1LcXGaF9w/W4+rGQReeT5eqNqD76IGVfeFOHFiBXyNE3Bs+Sh09BiPk288+CpC8r5F2BpRhrT9n6KJCg/uq6NR9SIB8ekicAVg4YkTWOFrjIRjyzGqowfGn3wGYW44ItMAO1c+VFNTkIEWcHFrwrWyChlPckENHMB3VEVeeDiS0Rrde1tDRRiHsIfFUHfgo+jiNHi5f4b1VzNAvHLkv1CFPd8FwrhYpMAGHh76XFliPHteyH3uADe3cgVt1IT7whM4scIXxgnHsHxUR3iMPwn2bC/DMAzzX1THyYsa3Dp6QevFRfjP2oVLNy5i36xhGD5tGX54KIR60i3cTNOE95wtmNcZyMoBLBzbQCMyDI/QDC6uRkBeGMJSAFt3d2hziU9oRDaUuETAVTUBt26mQdN7Dra8PhhtNO9gTf9e+DLYFotO3UHgVDsoPU1AQj7J6gSI837BN/6/gdd1IX4ICEAA9zrwTT+YUTLi44twa01/9PoyGLaLTuFO4FTYKT1FQkI+ysNCEU0mcOJbQL1JE+hRIi4fOo2gnxbi6wOJULJxhWsjLsEKjYZQ3wUetqrcuUIRmsTV37UNEm7dRJqmN+ZsmYfOyEIOLODYpgnUG2tBU5yMezcSkRd/BP4HIkGWfPB1kuS20ebRWvTv9SWCbRfh1J1ATLVTwtOEBNRoIsMwDMP8d8h+Pqo7VY/ox7FtSEdVibu0KpFKY2vqNf80pUgegSm+TvOctUhJSZWa8NuRfSMeOS36na7PtCGezkA68oKo/NxYMlY1o/EXKohe/ESDdHhkM+MmCaiYrs9zJi0lJVJtwqd29o2I57SIwqpK6P6GPtSsgeR8ICWePnnMOk85rx4HKaXbcx1ITfMjWh31+jkcUdY26qLGIy//eCq5v4H6NGtAStzxUOKRvscsOp8joPAlzsTT7E17nnIHVETRrqEOpNdIj2y6eJO9pgqZjjtP5cI4WuXBI41uOyibO2fFhfFkpmpMY8+Vc82dR85aSqSk2oT47eypEc+JFoVxdSi8Tos8dEmFa4uamSPZGaiSzuCjXAsVtLHwPm3o04waKHH14/qUp+9Bs87nEHvihWEYhvkvUpL8R5rG1K2y3MdIzleDiWVT6GvUuMEjeIaULIKppSHUZZtqT4BnKVkgU0sYvnWwqCgDj9MKwTO2hpWhhmzrBxAVIeNxGgp5xrC2MsSbJQjx8NgmXCvm49PRPtAPnga3Hofg8EMSTvrpyfaRT/AsBVlkCss/VLgYGYnZULWwgYmmbFs1RW0UoSjjMdIKeTC2tsKfaSLDMAzD/Bv8bcnLv4sQkf6d0HHRA6iYmkI17wnKW83FhZur0aGhbBeGYRiGYf4RLHmptQpkht7AvYRCKOm2hHsHN1i8cceEYRiGYZh/AkteGIZhGIapV9j/UQjDMAzDMPUKS14YhmEYhqlXWPLCMAzDMEy9wpIXhmEYhmHqFZa8MAzDMAxTr7DkhWEYhmGYeoUlLwzDMAzD1CsseWEYhmEYpl5hyQvDMAzDMPUKS14YhmEYhqlXWPLCMAzDMEy9wpIXhmEYhmHqFZa8MAzDMAxTr/wNyUslft88BuO3h3J/vVSB4LVj4P9bqez9hxDgzsaJ2HBbIHv/fuL8B9g/byi6uDvD2asHxq75FRlC2YfMBym97o9h/fujf/VrAAaPnI5Nv2VDzH0mSj6C2QtOIFPyhqkHBEj6ZTlG9fCCi7M7ugydj8NRxbLP/rx3x4EIyUdmY8GJTNl7ps6I8/Fg/zwM7eIOZ2cv9Bi7Br/+yYVOmHULgddSudFSNF4fug7XZv8PK7PmWjRgyGh86X8S0TXCt+CaPyYsPoMMkWwD869W98mLKBFXjpzG8U1bcL5Qtk0YhUs/haFIkyfb8AGE0bh4JALFjVVkG96j4Crmde2DbxNaYfSKrdiy8BMoHxuJgf4RYPnLh6rEw/OHcE/sjI/79kXfvr3QwSIZW/1mI1AytqoW8OzmCiN2/65eEEZvwIip12DktxLbt6/EKMv7mOc7F1dKZDv8We+JA1ULT3RzNZK9Y+pGAa7O64o+3yag1egV2LplIT5RPoaRA/0R8cELXQUuLhqFgPTGkKyycsfrQ9fh2uz/QWVya9GFw7grcqpei3p7twYFzUC3gdvxSJKsCCKxf38y2o/6GBa1rCJTv9X9Zac4FGFZ3hjfJQq7j6RVf0MX54Uh/Glr8O3VuIBNx8VVI9HV3RluXcdh692C6n1qEmUHwX+ED9w9+2DOwbO4n+cIN2tViHODsWl8T3i6uKP7hJ0IKZId8AqXyft/hZ+a+uPS8WUY0bMDOvadgu3fL4GXRj6KuUn6OHAJhvtw31RcO2DA/EAkSSa6MBI7Jy/FD4cX4NOP3NB1+lHc+3U1PuvMh1vP+Tifw9Ww4jEClwyHD1dv1w4DMD8w6d+fDImfITS8AF6fzcC4MWMwZsx4TPt6JDwpG0+KKhB25hASyBCqJaHYNaEb3Jxc0KH/fAQmV3cq0i+uwsiuXF+7dcW4rXdRwO7Q/L8SZaQgy6wrRg3rirbtemDkik1Y1FUTec9FCuaWEFF7Z2NdwC5M8OmIiQtmY85PKdx3c+ln0XunYf6JpNdxIM5F8Kbx6Onpws3tidgTUcpdc8Jw5lACyFCVm/oXsWpkV7g7c3Ns3FbcZQHxpwnu+OOrn5rC/9JxLBvREx069sWU7d9jiZcG8osly1Uglgzn1lBnV3QYwM1J6ULHjecsrD18CF/3bwe3Dp9h8/1CRHw/Acsu5CHu8BZc4dbql+OlaB2WX7bidbumP722i58jLPwZ+IO/ql6Lxn0+F1sCN6Nb7H4ciebOrySEekNLWBhz51O0Vstdp5h6i+qY4Pp0svVaQQ8jllNb98UUUkVUcXECNe+4jpKE5XRvEZ9M+BNo2y9BdGadL7WwmUbXKmQHSwgiyb+9BX301UG6fGkPjXVsSA27bqfM8of0rbc99V5yiK4EX6LdY1zIY3EIccW/Jgimr2xb0YybAtmGNwljN5CPbU9acvQa3bp6kMa3saRJlytIlPYddW5oQu0+30Qnz66m7rqa1LzXXNp39gwtbGdAA396QbEbfMi25xI6eu0WXT04ntpYTiLu0H+38jM0ysyd5l0Kp4iIcPr9t2PkP9CGjLpspkeCR7SmgwPNul1Omdt7kLXvJrp88zLtHcen1tOvUOG9RcQ34dOEbb9Q0Jl15NvChqa9MdDMP640hDZ0NycT1yG0+Mf7lPNy8ggUzC1RJm3rakCW3WfSgQu36MHewdRy5Ckq5w4Rpf9Avq0H0o8ZcbI4KOPmiDc19ZxGP1y+RsdmeZFRr130JG4NdXCYRbeL7tEivgnxJ2yjX4LO0DrfFmQz7RqxiPgzBBT8lS21mnGT+0sOYSxt8LGlnkuO0rVbV+ng+DZkOekyVUjGs0tj0nMdQRsCr9KpGW5kPuY0xV34gtwNOtLMA9cpKVY2XsUK1uFKBWUrWrdFsjpJ/JW1vfwsjTFvS2seCWUbOFVR9I17M5pwsYKEiWupU5s5dEcgVLBWi+SuUyz+6q86vvMiRlZoJAQOfNg4jsUoo9PYc7UIyaHRUGvjBrPyi9h+SBvzjn2PqX27oN/0GeirEo3w7NffwCp+2469lROwa91IdOsxGpP72qCFiysa/bYF26KVIYw6iR2bduFCUjFSYh/VeK6GU5mClFxrtHFSk214k4q1H9b6+0I7ORiXzl9HfEEDaDVUQkVYKBJaf47vt36F/u3MoKnZBYv2+WNsb2cYqDeBmak6rP3Wwt9XG8nBl3D+ejwKGmiBO/RfTRgfiocvUnD0i0EYNHg4Pl+4G6EmXyHwpy9gIwhHWJod+I4aaGxrB7UHhxBwvRgfbQhBzGYvXNt+CNrzjuH7qX3Rpd90zOirgujwbFnJzP8LTT5mXojA+dmtkLj5Ezi4jMGhRCEqriqYW5VhCH3UHKPXf4tRvdrBmd8KuqmP8URYhCv+3yF/1DIM1Y6UxoFtKPbsLYDftvUY080bg1aeQ/ihUWgcGYY0Oz4sr27HIe15OPb9VPTt0g/TZ/SFSnQ4akx9ptYqkZKSC+s2TpC70qlYw2+tP3y1kxF86TyuxxeggVZDKFWPZ0tM3r0HM307wcmsEbR1m8BcTxOVDv3whV8nGDyUjpf1bfnrcBOe/LIFCtbtJjWuMH9lbRc+DsHDBi7waFbjN6HKNKTlNIGJiQq3hocjvZUrHNRUFKzVynLWqa5QlxXF1D91nLyUIyQkEa3cXMFTNsOQCe64F3AGd6Iy0NrNCapp0UjQ9UTbptIAFBcmIe2FDgx1XlZDjJyYBGi084Zt9d3GUqSmlcLezQ5Po+Kh4umLwdXPXvRFv9ELsfnL9m8Gn7I61FRK8OJFzRWxAFe+/RI77mXh4vRO6L/mGpJfAFomqhBU2cPVURmPw2Jh2K037LhzCiJDEG/XDT0lP+BXhCI0pRX4za5ieqf+WHMtGS+gBRNVAarsXeEoP0f61ygIDUVW102ISEjA40exCLt9Bce3TEZbA2VUxoQi3sIFrppAoy4bEHxuDqxiVqK7x1iceJKC6ARdeLZtWv0bOjfQSEp7AR1DnepymX+eOPMG9v90D4Uq+nAZtgxHfo/Afs/bWLw+CEkK5pZKQihiTT6Gr2RicFRb2qJ5TgJiw7dixT0ffDPVHmJZHDgLohBbxkdbB9mk0NCHiZ4SYkLjYeHihGfRCdD1bAvp1BejMCkNL3QM8WrqMx9AGercRbrkxYs3fnIvuPItvtxxD1kXp6NT/zW4Jl3ooCqogr2rI5S58Ywx7A1fJ8mqWYHQsBS0crXDi5BIiF28YKZSKRsvZ7yQuw47oExu2fbIV7D/6yXyr63tL0LDkengAedXG8VIP7obF3W742N7MWLC4mDGJUKahRcVrtV/WKdY5lyv1e3SURmNkBgDuLjqVxes3XMCeqZux+5oM7jwtaCkowetp9GIeCLkUukMnF2yHuHtB6NbY+nhEpqNNJD/OA65YjGeXVuJNecN4cpvBF2jJqiq0EenEWMwoqcpks9eRoG+qfTi+JKGFzrzo7BvzSVkSX7OFBcgYvdkfLGnCMbmabhxuwH8tgdg26ppaF8aj5TmznDRLEJYxHM4uLeGKkTIDHkINWc3cNdnCGO57NzIBY7cwn+7gR+2B2zDqmntURqfgubOLuCu2/9iAkQ8iENzV1duCXibGHlhkSjjFgXz8G/QznMuoloMwdJDP2Fqk6u4FNEQelpPER3xBELufxlnl2B9eHsMrjnQzD9KnPcbts/xx8+PyqQbhKXIfyFAg0aNoadgbpWFR6LIpS1spLkL0MAGNo2isWPBz2g692t0aPg6DlpoNoJmZQbSckVA4W0s6uCKGUEZCIss4y5ultDX08LT6AhIp/5ZLFkfjvaDu4FFxJ+hAa/OfETtW4NL0oUOBRG7MfmLPSgyNkfajdto4LcdAdtWYVr7UsSnNIeziyaKufF85uBe/SVNslY/iDHj1lZ1hIYmwZbfBmriPNl4NYeW3HVYBY8UlC1/3W5QXduX/vzazq1FIXGwdHNHY3ElirNicHXnJPguTMHANbPgplyA8EguEeI3g+iR/LVaLUTOOhVeJSufqZdkPx/VCVHWDupuNpxOlMg2kJASNnSiRiZj6Vz1D+V5FDTfiwx1jMncUJfMO39NF974UZTbJfsUTWylQzqmTal1V29ytJlKVyU/TL64Rd90MCYdIxPS0bKgrkuDKPfNQ6sJYvfTKEddamTQjJoZ6ZCJ2xjaGfKC+6SEghe6kZ6OCZmb2VBX3/Zk7rOZ0suCaIqND32XJimsmH4eaklDjhZzf4soZ1dvajHuPFWUBNNCNz3SMTEnM5uu5NvenHw2p3N7/IsJ42n1RxY0rnrg3lZO58ZZUu9duSQqv0/rejUlHT0LsjTVI7POK+h2sYjyguaTl6EOGZsbkq55Z/r6Qua/u7/+14my6OycDmSmpUNmLayoqb4ONe++jK4+5UZF7twS0PXpDtRv71NZARKFFPCpFjXutIHiqh89qBEHlE9Bc/mkr2tKZnqG5DzpGKWWnKNxlr1pFzdRRXlBNN/LkHSMzclQ15w6f33hzechmA8jiKX9oxxJt5EBNWtmxK1NbjRmZwhVr3TBC8lNj1v7zM3IpqsvtTf3oc3p5dx42lEX2bolytxO3a0m0aWKfDoyUI+0mvrS9ogzr8dLwTosv2zF+9f0p9d2YSKtbccjyeUKSkqk2kCPWn40lFZezuSuMJyKizTB6mPaLTlI0Votd52qLp2pp5Qk/5GmMf8UMUqzE5Be0QQtLPXl/+YoyENaDmDc7K3PxaXITshApWELNNN91282ZchNTEGBujmsLLTx8ouj5LfigrR0lOhZwkLrjXs271dZgLT0EuhZWuBDD/33q0RhejKyqvTRsqXBqzETl2YjIb0CTVpw37zlDjTzTxMVZeJxWj6UDSxhbdLo9a3XWs+tdxGiMC0BuTwLWJk2evOuqET1OdJR0aQFLFlA1Imy3ESkFKjD3MoC2q8XOm65SkN6iR4sLbT+OA5vEzxFUpoQRlamaFTzXryCdVhh2YrW7Zr+8tpeCwrXavnrFFM//T8kLwzDMAzDMH9e3T7zwjAMwzAM8zdjyQvDMAzDMPUKS14YhmEYhqlXWPLCMAzDMEy9wpIXhmEYhmHqFZa8MAzDMAxTr7DkhWEYhmGYeoUlLwzDMAzD1CsseWEYhmEYpl5hyQvDMAzDMPUKS14YhmEYhqlXWPLCMAzDMEy9wpIXhmEYhmHqFZa8MAzDMAxTr7DkhWEYhmGYeuVvSF6KcGX5EPTv3x+jvvsdlZJN4jxcXDasepvf+tsQVO/3fuKcU1gwaDAWn8tF/vmlGDxoPgKzxbJP/zcIcyIQkS6SvfsLKh7h+MKh8HFrgzZuPhi64GfElso++0vEteo7cf55LB08CPMDs7kj3kGYg4iIdPzpFotzcGrBIAxefE62gWEYhmE+TN0nL4JwnD0YiLPnziHwVjKE3CZh1HYsXnMCZ8+eQ1xJY6hI93yv8ruB2HP6Hp6pa6FQqAHLVvawMvhfuVkkRt6F2fBynoxzJbJNf1ol7q8YxCV2dyB27IT21mW4sX4EPpl3Vfb5X0G16jsqFELDshXsrQwUBoU47wJmezlj8l9pcPldBO45jXvP1GUbGIZhGObD1HkmIMoKRUSWAVrb6UNUVooKcR5Or9uJ2Gat0VJNH05u1lAV5yJ48yT0aesKl7a+mHcySXqHRpSFX1cOR2c3Pjr5rcH+K2EoUmsDd8cc3LsehvQGZmipChQ9PIIFQ33g7uKGLmM24uYzyb0CIVLPLcNwHzc4OXvh42kBiKmQbI7FvimDMGn9Xqwd0xVebQfi26v3cWSOL9q5tcfwzQ8kZ4Y4NxibJ/VBW1cXtPWdh5NJkhqJkX58Dgb5rcL+fbMxoLMnV6+teFAKFF9ZgeEz9yA87wkuHjjDXdjvYee0T9GB7ww376FYciZZ2iaU4GHALPTvyEcbrl69p+xFeHH1BzWUIDLsMcRNP8GSbVux46cL2Du/P/gaT7k+ScLhGYMw/NsbKOP2rLy3CSMHTsbeGCHXtH2YMmgS1u9dizFdvdB24Le4ev8I5vi2g1v74dgsqago7XXfKafj+BwuSVq1H/tmD0Bnz07w2yppvwhp964jLL0BzLgOLnkYgFn9O4Lfxhlevadgr6TCxVewYvhM7AnPw5OLB3AmIxw7JwzGlxu/x/xP26OP/235/c+VnfXrSgzv7AZ+Jz+s2X8FYUVqaOPuLMmGcG/nNHzagQ9nN28MXXIGydWdVps+YxiGYf6zqI6VHB9Geg18aMIYa2rQeRMlR64kD00j8p3gS8aaXWl7ZjlF+LcjbfUW1G/hBlra35rUtHvRzvRKitvoTdo8U/KZ8S0tGWhDDVSUiOe8hMKf/Ui+jXlkN/celSV8T72aqJK+10Ras24yeenwqMW030iUtpd8TXXIYdgq2jK/B5mqatPgoyUkytlJ3TWUSN2iO83wn0rtdJS589lQn7mraYJbQ1I1n0gkiCD/dtqk3qIfLdywlPpbq5F2r52ULiqh40N1SZmnS87Dl9K3E/jUSMWARp4upcwL86m9gQrxbD+l+QdO0LpOOqSi70UT/L+jxf0siaf5EflHV1FVyCJqo96EOs3YQluXDSZHw+Y0aF+arLdeElLclq6kp6xMjW160Zfbr1JqueyjggDy1eKRw/z7VMXtF7PCjXga3WlnThXl7OxOGkrqZNF9BvlPbUc6yly9bfrQ3NUTyK2hKplPvMQd/7rvBCXHaaiuMvF0nWn40m9pAr8RqRiMlJyEfvRtTDy7uXSvNIQWtVGnJp1m0Jaty2iwoyE1H7SPUjIu0Pz2BqTCs6VP5/9IYQnfUWc1JdLQaUVdx86jHy58L7f/hXEbyVubR6Y+M+jbJQPJpoEKKfGcaUl4OUWt60Q6KvrkNcGfvlvcjyx5mvSRfzSV16rPGIZhmP+qOk5eBPT7vNak3moG7Z3vTA3c59G6z8xI3XEO7ZnjQOp2c+juiyv0eVNVaui9koIjIijs5BSyUzOniWev05xWPNLzDaBcEZEoayv5qCmT4agzVBT8FVnzdLiLYR7dm2vHXbw70PoEYfX5nqYkUWahgLv+P6eH5/fT5tWL6KshfNJTNaGx58qp4uJ4MlPVpU8P5JCo+CgN1lEhw6E/U57oOe3r07A6Oaq48jk1VW1I3iuDKSIijE5OsSM1Lqm5VPI7fW3PI3Wv1RTLna7kxHDS47Wgade588mSitbzfqfiG1+SlaomeX+XzKUXRFVR3xCfp049dz+nqvsLyJGnSnoOfWjSigC6k8kdK1cxxZ1aSSM+MuMSEmXScviCfuE6QiApm0uehh4v4fYppMMDtIln/zX9Lqigi+PNSFX3UzqQI6Lio4O5RMCQhv6cR6Ln+6hPQx45L4kgwau+K6aq378me65eXqtjuXqW0InhesRrMY3rxmD6yppHOoOPUnHVfVrgyCNVPQfqM2kFBdzJ5HpZooACfLWI13oed26i0lMjyEClIXVcH8clVRy5/V9Ed+a0Ip6eLwVIB5W2+qiRsuEoOlN0g760UiVN7+8oWdpp9A2f6+ueuymn1n3GMAzD/BfV7c9G4nyEhadAvbULXLUbQJwcgPUnytBt2kCUhiRCs40bHIRpSM8laObdwLrFi7H0QAaseveGu/5jxKYANh4e0OdqJX72HIXEg4ObKwrCI5EGO7jylREfnwJq0Rbtm0qenFGDQfMWMNUux8VpXnD/bD2uZhB45fl4oWoPvosKkkMf4qmKM3x8DCCMDkNUaQN49ugCvapwhDyshE4bV5SlpSOXNJF3Yx0WL16KAxlW6N3bHaaF4QhPBlp37w1rFSHiwh6iWN0BfEc1VEaG4GGFFpzc7IHUFDxBM7h7mVU/z1OZmYmn1ADa2hpQdV+IEydWwNc4AceWj0JHj/E4Wf0z10siZN7/BSfOJ0Cv30IE3HmE0I1doBL7A374tRg5YZFIR2u4umhUP090L7wMjRxd0VolGaEPn0LF2Qc+BkJEh0WhtIEnenTRQ1U4V7dKHbRxbYncV32njrzwcCRzZXXvbQ0VYRzCHhZD3YEPcW44ItMAO1c+Gqi6Y+GJE1jha4yEY8sxqqMHxp98BnFlJNdfFdBycoO9mhCPub4o5H2EIcNsoIoiBf3P9Zl0UOEhHVQ8L+Q+d3CDG1KR8gRo5u4FM2mnIfMpoYG2Nhq9t88YhmGY/7K6TV6qwhASLYK1kxOaNGwAystGnoUfZn6SirsRYrTmcxfHhlawMlcGz3oYNgZsw+R2lrD2HoqPHXShpSlG8r0bSMyLxxH/A4gkS/D5jRARGg0ycQLfQgMGBrpQKkxDclYmbq8fjo4+k3E4MR63bqZB03sOtszrDGTlABaOaNOkDOFhj7grJJdMGQF5YWFIgS3c3bUhyghFRLYSHPiuaGhlBXNlHqyHbUTAtsloZ2kN76EfwyoqFNFCfbh42EJVnIfQ0CTA1hWujcV4HhWNDFiiVSt1qDW3hDmXvty9HIHczBtYu+oYso36YNBHoVjTvxe+DLbFolN3EDjVDkpPE5CQT7IOkxAi4dAMDBs0DksPXcO9e7/jQfwzVCqboGkzZSQmpECsoQMdXhaurVqCQ6lcMuXqigYl4ZA2zRVGyENYGJck2LrDXVuEjNAIZCtxSZYrEPaq78QI5/4W6rvAw1YV4rxQSJvjioowrp1kAie+Pu6u6Y9eXwbDdtEp3AmcCjulp0hIyIfoeRSiMwDLVq2gziUrYeGJgLUnPA25EBImKOh/dTTW0uSS2Hu4kZiH+CP+OBBJsOTioIlGc1iaA0/uXkZEbiZurF2FY9lG6NOvITa/t88YhmGY/zTZHZg6URW9nPhq0mdCXuzvQ+pKjcj7u0QqvT6dWvKa09SrFdxeIko/OYWcdVRICUrVz1+MO5RAVVRI1xd5kK6KEimpmZGjnQGp6gymowXhtMSZR5q999BT7mjBw23Uz0KdOxak1MCCui29Rs9FxXR9njNpKSmRahM+tbNvRDynRRRWeotm2vBIZ+ARekHldG6sMamajacLXDVe/DSIdHg2NOOmgKtSOp2c4kw63LmhxCNd53F0KKGC4lZ5EE+jG+3IFhFVXKDxZqpkPPYcV5KInh4dSsbc/ipNhtPxonQKnMonPR53PNcmDfMutCQol9urhO5v6EPNGki2c/Xl6ZPHrPOUwxVXkzD5GE3xMiENrv7V+zVoyrXrKj0ViShtvy8Zq3J9wjOlDh97kQGvGU0JqiDBrZlkw9OhgUdeEJWfo7HGqmQ2/gJVcC39aZAO8Wxm0M3SGn0njKNVHjzS6LaDpM2R/JxmTGPPFVP4EmfiafamPVwHl9zfQH2aNajuX0lf6HvMovNchUVPj9JQY27MVJrQ8CNnaUozHjXxC6TS6hYo6P8qosLri8hDlztOSY3MHO3IQFX6E1Z1HAROJb4eTzqWGubUZUkQ5Ypq12cMwzDMf5eS5D+SJOafJi7JxOO0cuhaWsFIU7YRIhRnJCJb1QI2Jq82/pHgGZK4b/JqZlaw0FF9uRHPUrJAppYw/FP/CleMkszHSCvXhaWVEd5xdhkRCtPi8URkDOsW+pCcsuxpIlKeq8HMpileVYsjKsrg2loInrE1rAw1ZFvfxrU9KxFpeQS95tYw1Xr5D8pFKEpPQVHj5mhas9C/k6gIGY/TUMjj2mZliJc1FhWmIf6JCMbWLaD/hz5W3P+i4gwkZqvCwsbkj/1a9hSJKc+5sbR5o3216zOGYRjmv+j/LXlhGIZhGIb5M+r2mReGYRiGYZi/GUteGIZhGIapV1jywjAMwzBMvcKSF4ZhGIZh6hWWvDAMwzAMU6+w5IVhGIZhmHqFJS8MwzAMw9QrLHlhGIZhGKZeYckLwzAMwzD1CkteGIZhGIapV1jywjAMwzBMvcKSF4ZhGIZh6hWWvDAMwzAMU6+w5IVhGIZhmHqFJS8MwzAMw9Qrf0PyUorr/sPQv39/7jUAQ0Z/Cf+T0SiWffpPEiUfwewFJ5Aplm34K0TJODJ7AU68LEycgZPzJ2JdcD7qovj/VaXX/TGseiyl4zl45HRs+i37H2+zMOsWAq+lQiR7XzsiJB+ZjQUnMmXvxcg4OR8T1wUj/988aO8gzn+A/fOGoou7M5y9emDsml+RIZR9+IFej8nb/fySAHc2TsSG2wLZ+/cQ3MHGiRtQ290ZhvnvqvvkpfIhLhy+C5HTx+jbtze8WxOCZnTDwO2PPvDCUwdULeDZzRVGddJKVVh4doOrrLCi67twvKof/Nrr/YtvX1Xi4flDuCd2xsd9+3Lj2QsdLJKx1W82Agtlu/wjKnBx0SgEpDeGimxLbalaeKKbq5H0TdF17DpehX5+7aH37x00xQquYl7XPvg2oRVGr9iKLQs/gfKxkRjoH4EPz1/eHJM3+vklYTQuHolAcePajZow+iKORBSjlrszDPMfVudLuPh5GMKf8TH4q3EYM2YcPp+7BYGbuyF2/xFES1ZIcS6CN41HT08XuHefgJ0hRdxGIaL2zsLaw4fwdf92cOvwGTbfL6kuT5h+EatGdoW7sxu6jtuKuwWSr8xCRO6cjKU/HMaCTz+CW9fpOHrvV6z+rDP4bj0x/3wO9x27EmFnDiGBDMEVjllrD+PQ1/3Rzq0DPtt8H9WlVzxG4JLh8OG+hbp2GID5gUnVi7g4NxibxveEpwt3zol7EFHKXcbDzuBQAsFQVYj0i6swbfWviL/+HRZtvwtplaKwd9ZaHD70Nfq3c0OHzzZD1oT6S/wMoeEF8PpsBsaNGcON53hM+3okPCkbT4oquW6djXUBuzDBpxNm/JIgZ1w5JaHYNaEb3Jxc0KH/fAQmV/cwcoM3YXxPT7i4d8eEnSGo3ltuHwoR8f0ELLuQh7jDW3CluAKPA5dguI87nF07YMD8QCS9FVduXSdij3TQcOZQAshQVRpH01bj1/jr+G7R9ldxpCju/n0EuOP/FX5q6o9Lx5dhRM8O6Nh3CrZ/vwReGvko5pIRuf1amzHJe93Pouwg+I/wgbtnH8w5eBb38xzhZi2UXzb3dSY7yB8juO2efebg4Nn7yHN0g7Wq5DOGYZh3oDpWfnYMmbddQ4+Esg2cqqhvyL3ZBLpYIaCH33qTfe8ldOhKMF3aPYZcPBZTiCCTtnVpTHquI2hD4FU6NcONzMecpfLye7SIb0L8Cdvol6AztM63BdlMu0YVojT6rnNDMmn3OW06eZZWd9clzea9aO6+s3RmYTsyGPgTlQof0ZoODjTrdjllbutCjfVcacSGQLp6aga5mY+hs+VCit3gQ7Y9l9DRa7fo6sHx1MZyEl0ujaUN3k3Jc9oPdPnaMZrlZUS9dj2huDUdyGHWbSq6t4j4JnyasO0XCjqzjnxb2NC0axUkytxGXRrrkeuIDRR49RTNcDOnMWfLZT1QT5WfoVFm7jTvUjhFRITT778dI/+BNmTUZTM9quTGrKsBWXafSQcu/Eanlnb+47hWiShzew+y9t1El29epr3j+NR6+hV68fBb8rbvTUsOXaHgS7tpjIsHLQ6pUtCHJZR84QtyN+hIMw9cp6SoDeRj25OWHL1Gt64epPFtLGnS5VJuLL2pqec0+uHyNTo2y4uMeu2iJ3FrqIPDLLpdpCiOFMSdrPn/KoJg+sq2Fc24KZBteJMwVl6/Korrt8YkVtbPxZHk396CPvrqIF2+tIfGOjakhl23U3q0/LIFkf7U3uIj+urgZbq0Zyw5NmxIXbdnkkhWJ4ZhGEXqOHmposilfLKeyl0YZFskSs+NJQv+EooovkDjLQzIsbsv+fpyr087kpXBADqcd5bGmLvQwhDJUUJKXs9dCGfeorzAEdTc5ztKkiVCguAvyc57A6UUn6IR3EX1m4dV3NZ8OvipGfXdm8UteiJK+86H7L68QYIXR2lw00F05EU5nR1jTi4LQ6rrJExeT53tZ9Itbg2vyg2hwF0b/q99cw+K6jzj8CMoIC4psIACu1wWKuBy213wgsRLGxyLwQZq6GRG0phEMhk1XqpmVEbT1EQy1VzaaGwynU6dTmonbf6xVpsoEzPD6AzscpHFxQ3ggkEREQQX2AX261kgMam7aju0HTLnYZiBnfe85zu/37vf9579zorXXykT29blCvW87eKziq0iJXO3qJqY4wdvdojuoT5xvDhGPPlhh/i4JE784O1maZRuHOLzzSli+aHW8aZNt0eMX0KLOLhMK7a5TzKFGa7ZK3RBYSI2MVF8f26K0OU8JtZsOiIqb0jLy6DkmXrCg0EvvtqF6D+zRWhVBrH2l38V5l531kHx9+fVIjxtxXhs4RNiSWK4+IkU7E1Dx4WdImP5QdHiFn24U1R//Ftx6PVXRNm2ddLiN09s/6xCbE3JFLvvmiY6uodE3/FiEfPkh6LDWx3ZPdfd1HbNC/1/ED8OLhC/75v4/1/xpGul46E8+UrnG6dLRcL8V8XY21KaC6p260TajvPC4TH3bXG6NEHMf7VeinSHV4ndujSx4/x3Un0ZGZlJZpK3jfow1nxJ6vxM/CdewdXG8fdPEbJiFcnXL2LxXUBhsfv5Cel39TPseWczC9uMmCPyKcxwHzWE0dRKsj6Zaw1WQhbkEDO2B+6it9lGX3AEii9MNEbkkZ8yHRx1VFtSyFs5Gx/3sUbpWEM6mI1Y1Dr0flaM5gjyCzPGxjRkNNGarEc7cIqXlhZRXtEijTqIyOkOhrWZqCyNDBhySPVznxMClJGETjNjtKjRZXTRYA1hQU7M+LMXrl6abX0ERyiwGs1E5BcyfglGTK3J6LUTSaYoPUYjHY+9Ra3VyuWmRkyVn/LRr18kJ9yHEauRxshVFEoejF717GuupIXih4f4/G87SDTvZ8X8Z/nL1TYuWnxZUFg8Hluwmmf2vMPmXF8vGk7nZnUdLt1Con17OfXSUorKK2jpg6DI6TiGtWSqLDQOGMi5axqRodOkErCg1mXQ5a2Omj3VnZap7ZoXfPzx871DX983n1Tu4dM3NnPkQodHXfVpPg/hiXNC50z6zFYCFi8naWzbx84Vmx1tloqznnJrb2G2BrB4eRLj4Vew2bVkfeWhjIyMzH2Y3ObFUUv1pXiysh/B5eynw3yWoy8Usqd1DeU/z8I/ZDZhw0Mol5awrmQlUS0n+KRHSVB9HV2p2bh7EZwNVJmj0RseITg0iBsNtVwdgZH2E+w9WENucR7CVMtNKX6eFD/6ZTX1fplkSQsqI41Um2ej08+i21THgFZP3EANdV2pZI8np6HKTLTegH/TOSpnruXwsXd5bVMudksrcZkGghWBONttdI5Cb2UZj+q3cqbdRN2ANOHGKwkNukFD7VVGpJ/2E3s5WJNLcd40auq6SM1OGZuInQ1VmKP1GILcokxVHNRWXSJOr5dau3vpr6njti6HudIF+3rxNaLmFyxesJOLmp+y749/YkPYWU7XK5gdNsyQcikl60pYGdXCiU96UEYNeNHQKTWkzSRJDamfs4lzlTNZe/gY7762iVy7hda4TAzBCgKd7djGTaPsUT1bz7RjqhtAq49H6aWOpknXcG/dTWnTvBOwkGWGi/yu/DQdY88I9VD7/ots/OA2c1Q2j7rqAvsf7Imre0LnOIIUAdy6fIlOl4uuiv2Un4yQGqA2L7kDUQTc4vKlTlyuLir2l3MyQso9c2y0MjIyMvdlUpuX0atG6q6cZ4/UVUwPCCVxyQscu1PEsdNv8SOldCplEdtLHRzIVhEVnsT6C+k8t0ZDo3TnpjHoCZByuG4aqbWnYYifQeRTL/N0Vxk6tZrojI00FbzHm8XB1BubSJiIH6w20paSRZp0w+bqNlHbq8WQOIrJZGWuQYeoN2LRGNCPJ8dYayfNEM/M1FUU+B4lL05NzKJ91IkAAhWzCHl8AyXde9HFqEgoOol21xYWWUxY5xrQ+Ufy1MtP01WmQ62OJmNjEwXvvUlxSANGiwbD+Em4aazFnmYgfip/a2L0CtX1w6TqNB6+4eOUPJD0zZ74hM2jr8kEpOZTqPyIJ+Ji0MTkcNhvPc8uiaJoeymOA9moosJJWn+B9OfWkOyq96LhIHf6b/GPXT/jSEsKqwp8OZoXhzpmEfvqBAGBCmaFPM6Gkm726mJQJRRxUruLLYssmKxzMej8vdRRCA0e624qm3YffGJ5/u1foTu3lqSoOOKiNOR/EMi2P/+GIlW6Z12HH8KTi1Vf6xy2upSC5p2kq+NZdsCIMyIDgybDc27fMFaXFtC8Mx11/DIOGJ1EZBhQfUfll5GRmVymufeOJv7+H+HCfs1KuzMCTWzIgz+id9m5Zm1jKExDvHJsqZw8nD3Y2u4QGq8m6JuT5kgvNmsnM9SJRCnunU1d9mtY24YI00h39ZM8pKmLN1+d9La10DGsJCEh/OvtxDEN26UFSxNLyIOKwHGDZtsIsxOjUPg46bG1cSc0HvW3TaPXZqVzhprEKMW9Ddd/s46mFAN0ftFKj7+KRPX3xrdsxvCmqxe+5cnEa24c3diuw5xY5d2t4/vkdnTbuM4cYuU3koyMzL/B/6F5kZGRkZGRkZH5T4F/AsOscUB0N7ddAAAAAElFTkSuQmCC;" parent="1" vertex="1">
          <mxGeometry x="300" y="-350" width="559" height="489" as="geometry" />
        </mxCell>
        <mxCell id="ozE5ypxph3W-FYaMxUwp-2" value="SERVICIOS" style="whiteSpace=wrap;html=1;align=center;" parent="1" vertex="1">
          <mxGeometry x="300" y="240" width="100" height="40" as="geometry" />
        </mxCell>
        <mxCell id="ozE5ypxph3W-FYaMxUwp-3" value="CAMA_ASIGNADA" style="whiteSpace=wrap;html=1;align=center;" parent="1" vertex="1">
          <mxGeometry x="580" y="240" width="120" height="40" as="geometry" />
        </mxCell>
        <mxCell id="ozE5ypxph3W-FYaMxUwp-4" value="MEDICO" style="whiteSpace=wrap;html=1;align=center;" parent="1" vertex="1">
          <mxGeometry x="300" y="430" width="100" height="40" as="geometry" />
        </mxCell>
        <mxCell id="ozE5ypxph3W-FYaMxUwp-5" value="ESPECIALIDAD" style="whiteSpace=wrap;html=1;align=center;" parent="1" vertex="1">
          <mxGeometry x="300" y="585" width="100" height="40" as="geometry" />
        </mxCell>
        <mxCell id="ozE5ypxph3W-FYaMxUwp-6" value="PACIENTE_INTERNADO" style="whiteSpace=wrap;html=1;align=center;" parent="1" vertex="1">
          <mxGeometry x="560" y="440" width="160" height="40" as="geometry" />
        </mxCell>
        <mxCell id="ozE5ypxph3W-FYaMxUwp-7" value="MEDICAMENTO_SUMINISTRADO" style="whiteSpace=wrap;html=1;align=center;" parent="1" vertex="1">
          <mxGeometry x="540" y="610" width="200" height="50" as="geometry" />
        </mxCell>
        <mxCell id="ozE5ypxph3W-FYaMxUwp-8" value="Denominacion" style="ellipse;whiteSpace=wrap;html=1;align=center;" parent="1" vertex="1">
          <mxGeometry x="210" y="160" width="100" height="40" as="geometry" />
        </mxCell>
        <mxCell id="ozE5ypxph3W-FYaMxUwp-10" value="Ubicacion" style="ellipse;whiteSpace=wrap;html=1;align=center;" parent="1" vertex="1">
          <mxGeometry x="120" y="210" width="100" height="40" as="geometry" />
        </mxCell>
        <mxCell id="ozE5ypxph3W-FYaMxUwp-11" value="ID_servicio" style="ellipse;whiteSpace=wrap;html=1;align=center;fontStyle=4;" parent="1" vertex="1">
          <mxGeometry x="140" y="280" width="100" height="40" as="geometry" />
        </mxCell>
        <mxCell id="ozE5ypxph3W-FYaMxUwp-12" value="" style="endArrow=none;html=1;rounded=0;exitX=1;exitY=0.5;exitDx=0;exitDy=0;entryX=0;entryY=1;entryDx=0;entryDy=0;" parent="1" source="ozE5ypxph3W-FYaMxUwp-11" target="ozE5ypxph3W-FYaMxUwp-2" edge="1">
          <mxGeometry relative="1" as="geometry">
            <mxPoint x="480" y="330" as="sourcePoint" />
            <mxPoint x="640" y="330" as="targetPoint" />
          </mxGeometry>
        </mxCell>
        <mxCell id="ozE5ypxph3W-FYaMxUwp-13" value="" style="endArrow=none;html=1;rounded=0;exitX=1;exitY=0.5;exitDx=0;exitDy=0;entryX=0;entryY=0.5;entryDx=0;entryDy=0;" parent="1" source="ozE5ypxph3W-FYaMxUwp-10" target="ozE5ypxph3W-FYaMxUwp-2" edge="1">
          <mxGeometry relative="1" as="geometry">
            <mxPoint x="480" y="330" as="sourcePoint" />
            <mxPoint x="640" y="330" as="targetPoint" />
          </mxGeometry>
        </mxCell>
        <mxCell id="ozE5ypxph3W-FYaMxUwp-14" value="" style="endArrow=none;html=1;rounded=0;exitX=1;exitY=1;exitDx=0;exitDy=0;entryX=0.25;entryY=0;entryDx=0;entryDy=0;" parent="1" source="ozE5ypxph3W-FYaMxUwp-8" target="ozE5ypxph3W-FYaMxUwp-2" edge="1">
          <mxGeometry relative="1" as="geometry">
            <mxPoint x="480" y="330" as="sourcePoint" />
            <mxPoint x="640" y="330" as="targetPoint" />
          </mxGeometry>
        </mxCell>
        <mxCell id="ozE5ypxph3W-FYaMxUwp-15" value="Nro_de_Cama" style="ellipse;whiteSpace=wrap;html=1;align=center;fontStyle=4;" parent="1" vertex="1">
          <mxGeometry x="600" y="139" width="100" height="40" as="geometry" />
        </mxCell>
        <mxCell id="ozE5ypxph3W-FYaMxUwp-16" value="Piso" style="ellipse;whiteSpace=wrap;html=1;align=center;" parent="1" vertex="1">
          <mxGeometry x="700" y="150" width="100" height="40" as="geometry" />
        </mxCell>
        <mxCell id="ozE5ypxph3W-FYaMxUwp-17" value="Servicio" style="ellipse;whiteSpace=wrap;html=1;align=center;" parent="1" vertex="1">
          <mxGeometry x="490" y="160" width="100" height="40" as="geometry" />
        </mxCell>
        <mxCell id="ozE5ypxph3W-FYaMxUwp-18" value="" style="endArrow=none;html=1;rounded=0;exitX=1;exitY=1;exitDx=0;exitDy=0;entryX=0;entryY=0;entryDx=0;entryDy=0;" parent="1" source="ozE5ypxph3W-FYaMxUwp-17" target="ozE5ypxph3W-FYaMxUwp-3" edge="1">
          <mxGeometry relative="1" as="geometry">
            <mxPoint x="480" y="230" as="sourcePoint" />
            <mxPoint x="640" y="230" as="targetPoint" />
          </mxGeometry>
        </mxCell>
        <mxCell id="ozE5ypxph3W-FYaMxUwp-20" value="" style="endArrow=none;html=1;rounded=0;exitX=0.5;exitY=1;exitDx=0;exitDy=0;entryX=0.25;entryY=0;entryDx=0;entryDy=0;" parent="1" source="ozE5ypxph3W-FYaMxUwp-15" target="ozE5ypxph3W-FYaMxUwp-3" edge="1">
          <mxGeometry relative="1" as="geometry">
            <mxPoint x="480" y="230" as="sourcePoint" />
            <mxPoint x="640" y="230" as="targetPoint" />
          </mxGeometry>
        </mxCell>
        <mxCell id="ozE5ypxph3W-FYaMxUwp-21" value="" style="endArrow=none;html=1;rounded=0;entryX=0;entryY=1;entryDx=0;entryDy=0;exitX=0.75;exitY=0;exitDx=0;exitDy=0;" parent="1" source="ozE5ypxph3W-FYaMxUwp-3" target="ozE5ypxph3W-FYaMxUwp-16" edge="1">
          <mxGeometry relative="1" as="geometry">
            <mxPoint x="480" y="230" as="sourcePoint" />
            <mxPoint x="640" y="230" as="targetPoint" />
          </mxGeometry>
        </mxCell>
        <mxCell id="ozE5ypxph3W-FYaMxUwp-22" value="Conjunto_de" style="shape=rhombus;perimeter=rhombusPerimeter;whiteSpace=wrap;html=1;align=center;" parent="1" vertex="1">
          <mxGeometry x="450" y="235" width="90" height="50" as="geometry" />
        </mxCell>
        <mxCell id="ozE5ypxph3W-FYaMxUwp-23" value="" style="endArrow=none;html=1;rounded=0;entryX=1;entryY=0.5;entryDx=0;entryDy=0;exitX=0;exitY=0.5;exitDx=0;exitDy=0;" parent="1" source="ozE5ypxph3W-FYaMxUwp-22" target="ozE5ypxph3W-FYaMxUwp-2" edge="1">
          <mxGeometry relative="1" as="geometry">
            <mxPoint x="480" y="230" as="sourcePoint" />
            <mxPoint x="640" y="230" as="targetPoint" />
          </mxGeometry>
        </mxCell>
        <mxCell id="ozE5ypxph3W-FYaMxUwp-24" value="(1,1)" style="resizable=0;html=1;whiteSpace=wrap;align=right;verticalAlign=bottom;" parent="ozE5ypxph3W-FYaMxUwp-23" connectable="0" vertex="1">
          <mxGeometry x="1" relative="1" as="geometry">
            <mxPoint x="30" as="offset" />
          </mxGeometry>
        </mxCell>
        <mxCell id="ozE5ypxph3W-FYaMxUwp-25" value="" style="endArrow=none;html=1;rounded=0;entryX=0;entryY=0.5;entryDx=0;entryDy=0;exitX=1;exitY=0.5;exitDx=0;exitDy=0;" parent="1" source="ozE5ypxph3W-FYaMxUwp-22" target="ozE5ypxph3W-FYaMxUwp-3" edge="1">
          <mxGeometry relative="1" as="geometry">
            <mxPoint x="480" y="230" as="sourcePoint" />
            <mxPoint x="640" y="230" as="targetPoint" />
          </mxGeometry>
        </mxCell>
        <mxCell id="ozE5ypxph3W-FYaMxUwp-26" value="(1,M)" style="resizable=0;html=1;whiteSpace=wrap;align=right;verticalAlign=bottom;" parent="ozE5ypxph3W-FYaMxUwp-25" connectable="0" vertex="1">
          <mxGeometry x="1" relative="1" as="geometry" />
        </mxCell>
        <mxCell id="ozE5ypxph3W-FYaMxUwp-27" value="Trabaja" style="shape=rhombus;perimeter=rhombusPerimeter;whiteSpace=wrap;html=1;align=center;" parent="1" vertex="1">
          <mxGeometry x="290" y="330" width="120" height="60" as="geometry" />
        </mxCell>
        <mxCell id="omvKqvmsDNSaeKbOpfrH-1" value="Tiene" style="shape=rhombus;perimeter=rhombusPerimeter;whiteSpace=wrap;html=1;align=center;" vertex="1" parent="1">
          <mxGeometry x="290" y="500" width="120" height="60" as="geometry" />
        </mxCell>
        <mxCell id="omvKqvmsDNSaeKbOpfrH-2" value="Internacion" style="shape=rhombus;perimeter=rhombusPerimeter;whiteSpace=wrap;html=1;align=center;" vertex="1" parent="1">
          <mxGeometry x="580" y="330" width="120" height="60" as="geometry" />
        </mxCell>
        <mxCell id="omvKqvmsDNSaeKbOpfrH-3" value="Se_le_suministra" style="shape=rhombus;perimeter=rhombusPerimeter;whiteSpace=wrap;html=1;align=center;" vertex="1" parent="1">
          <mxGeometry x="580" y="520" width="120" height="60" as="geometry" />
        </mxCell>
        <mxCell id="omvKqvmsDNSaeKbOpfrH-4" value="Cant_de_dias" style="ellipse;whiteSpace=wrap;html=1;align=center;" vertex="1" parent="1">
          <mxGeometry x="770" y="310" width="100" height="40" as="geometry" />
        </mxCell>
        <mxCell id="omvKqvmsDNSaeKbOpfrH-5" value="Denominacion" style="ellipse;whiteSpace=wrap;html=1;align=center;" vertex="1" parent="1">
          <mxGeometry x="710" y="721" width="100" height="40" as="geometry" />
        </mxCell>
        <mxCell id="omvKqvmsDNSaeKbOpfrH-6" value="Presentacion" style="ellipse;whiteSpace=wrap;html=1;align=center;" vertex="1" parent="1">
          <mxGeometry x="790" y="690" width="100" height="40" as="geometry" />
        </mxCell>
        <mxCell id="omvKqvmsDNSaeKbOpfrH-7" value="Cantidad" style="ellipse;whiteSpace=wrap;html=1;align=center;" vertex="1" parent="1">
          <mxGeometry x="780" y="550" width="100" height="40" as="geometry" />
        </mxCell>
        <mxCell id="omvKqvmsDNSaeKbOpfrH-8" value="ID_medicamento" style="ellipse;whiteSpace=wrap;html=1;align=center;fontStyle=4;" vertex="1" parent="1">
          <mxGeometry x="510" y="700" width="100" height="40" as="geometry" />
        </mxCell>
        <mxCell id="omvKqvmsDNSaeKbOpfrH-9" value="" style="endArrow=none;html=1;rounded=0;exitX=0.25;exitY=1;exitDx=0;exitDy=0;entryX=0.5;entryY=0;entryDx=0;entryDy=0;" edge="1" parent="1" source="ozE5ypxph3W-FYaMxUwp-7" target="omvKqvmsDNSaeKbOpfrH-8">
          <mxGeometry relative="1" as="geometry">
            <mxPoint x="640" y="670" as="sourcePoint" />
            <mxPoint x="800" y="670" as="targetPoint" />
          </mxGeometry>
        </mxCell>
        <mxCell id="omvKqvmsDNSaeKbOpfrH-10" value="" style="endArrow=none;html=1;rounded=0;exitX=0.75;exitY=1;exitDx=0;exitDy=0;entryX=0.5;entryY=0;entryDx=0;entryDy=0;" edge="1" parent="1" source="ozE5ypxph3W-FYaMxUwp-7" target="omvKqvmsDNSaeKbOpfrH-5">
          <mxGeometry relative="1" as="geometry">
            <mxPoint x="640" y="670" as="sourcePoint" />
            <mxPoint x="800" y="670" as="targetPoint" />
          </mxGeometry>
        </mxCell>
        <mxCell id="omvKqvmsDNSaeKbOpfrH-11" value="" style="endArrow=none;html=1;rounded=0;exitX=1;exitY=0.5;exitDx=0;exitDy=0;entryX=0;entryY=0.5;entryDx=0;entryDy=0;" edge="1" parent="1" source="omvKqvmsDNSaeKbOpfrH-3" target="omvKqvmsDNSaeKbOpfrH-7">
          <mxGeometry relative="1" as="geometry">
            <mxPoint x="640" y="670" as="sourcePoint" />
            <mxPoint x="800" y="670" as="targetPoint" />
          </mxGeometry>
        </mxCell>
        <mxCell id="omvKqvmsDNSaeKbOpfrH-12" value="" style="endArrow=none;html=1;rounded=0;exitX=1;exitY=1;exitDx=0;exitDy=0;entryX=0;entryY=0;entryDx=0;entryDy=0;" edge="1" parent="1" source="ozE5ypxph3W-FYaMxUwp-7" target="omvKqvmsDNSaeKbOpfrH-6">
          <mxGeometry relative="1" as="geometry">
            <mxPoint x="640" y="670" as="sourcePoint" />
            <mxPoint x="800" y="670" as="targetPoint" />
          </mxGeometry>
        </mxCell>
        <mxCell id="omvKqvmsDNSaeKbOpfrH-13" value="Nombre_y_apellido" style="ellipse;whiteSpace=wrap;html=1;align=center;" vertex="1" parent="1">
          <mxGeometry x="850" y="400" width="110" height="40" as="geometry" />
        </mxCell>
        <mxCell id="omvKqvmsDNSaeKbOpfrH-14" value="Fecha_ingreso" style="ellipse;whiteSpace=wrap;html=1;align=center;" vertex="1" parent="1">
          <mxGeometry x="950" y="440" width="100" height="40" as="geometry" />
        </mxCell>
        <mxCell id="omvKqvmsDNSaeKbOpfrH-15" value="Fecha_alta" style="ellipse;whiteSpace=wrap;html=1;align=center;" vertex="1" parent="1">
          <mxGeometry x="910" y="490" width="100" height="40" as="geometry" />
        </mxCell>
        <mxCell id="omvKqvmsDNSaeKbOpfrH-16" value="Nro_hist_clinica" style="ellipse;whiteSpace=wrap;html=1;align=center;fontStyle=4;" vertex="1" parent="1">
          <mxGeometry x="720" y="500" width="100" height="40" as="geometry" />
        </mxCell>
        <mxCell id="omvKqvmsDNSaeKbOpfrH-17" value="DNI" style="ellipse;whiteSpace=wrap;html=1;align=center;" vertex="1" parent="1">
          <mxGeometry x="740" y="390" width="100" height="40" as="geometry" />
        </mxCell>
        <mxCell id="omvKqvmsDNSaeKbOpfrH-18" value="Fecha_nac" style="ellipse;whiteSpace=wrap;html=1;align=center;" vertex="1" parent="1">
          <mxGeometry x="470" y="490" width="100" height="40" as="geometry" />
        </mxCell>
        <mxCell id="omvKqvmsDNSaeKbOpfrH-19" value="" style="endArrow=none;html=1;rounded=0;exitX=1;exitY=0.5;exitDx=0;exitDy=0;entryX=0.25;entryY=1;entryDx=0;entryDy=0;" edge="1" parent="1" source="omvKqvmsDNSaeKbOpfrH-18" target="ozE5ypxph3W-FYaMxUwp-6">
          <mxGeometry relative="1" as="geometry">
            <mxPoint x="640" y="470" as="sourcePoint" />
            <mxPoint x="800" y="470" as="targetPoint" />
          </mxGeometry>
        </mxCell>
        <mxCell id="omvKqvmsDNSaeKbOpfrH-20" value="" style="endArrow=none;html=1;rounded=0;exitX=1;exitY=0;exitDx=0;exitDy=0;entryX=0;entryY=1;entryDx=0;entryDy=0;" edge="1" parent="1" source="ozE5ypxph3W-FYaMxUwp-6" target="omvKqvmsDNSaeKbOpfrH-17">
          <mxGeometry relative="1" as="geometry">
            <mxPoint x="640" y="470" as="sourcePoint" />
            <mxPoint x="800" y="470" as="targetPoint" />
          </mxGeometry>
        </mxCell>
        <mxCell id="omvKqvmsDNSaeKbOpfrH-21" value="" style="endArrow=none;html=1;rounded=0;entryX=0.5;entryY=1;entryDx=0;entryDy=0;exitX=1;exitY=0.25;exitDx=0;exitDy=0;" edge="1" parent="1" source="ozE5ypxph3W-FYaMxUwp-6" target="omvKqvmsDNSaeKbOpfrH-13">
          <mxGeometry relative="1" as="geometry">
            <mxPoint x="640" y="470" as="sourcePoint" />
            <mxPoint x="800" y="470" as="targetPoint" />
          </mxGeometry>
        </mxCell>
        <mxCell id="omvKqvmsDNSaeKbOpfrH-22" value="" style="endArrow=none;html=1;rounded=0;entryX=0;entryY=0.5;entryDx=0;entryDy=0;exitX=1;exitY=0.5;exitDx=0;exitDy=0;" edge="1" parent="1" source="ozE5ypxph3W-FYaMxUwp-6" target="omvKqvmsDNSaeKbOpfrH-14">
          <mxGeometry relative="1" as="geometry">
            <mxPoint x="640" y="470" as="sourcePoint" />
            <mxPoint x="800" y="470" as="targetPoint" />
          </mxGeometry>
        </mxCell>
        <mxCell id="omvKqvmsDNSaeKbOpfrH-24" value="" style="endArrow=none;html=1;rounded=0;entryX=0;entryY=0.5;entryDx=0;entryDy=0;exitX=1;exitY=0.75;exitDx=0;exitDy=0;" edge="1" parent="1" source="ozE5ypxph3W-FYaMxUwp-6" target="omvKqvmsDNSaeKbOpfrH-15">
          <mxGeometry relative="1" as="geometry">
            <mxPoint x="640" y="470" as="sourcePoint" />
            <mxPoint x="800" y="470" as="targetPoint" />
          </mxGeometry>
        </mxCell>
        <mxCell id="omvKqvmsDNSaeKbOpfrH-25" value="" style="endArrow=none;html=1;rounded=0;entryX=0;entryY=0;entryDx=0;entryDy=0;exitX=0.75;exitY=1;exitDx=0;exitDy=0;" edge="1" parent="1" source="ozE5ypxph3W-FYaMxUwp-6" target="omvKqvmsDNSaeKbOpfrH-16">
          <mxGeometry relative="1" as="geometry">
            <mxPoint x="640" y="470" as="sourcePoint" />
            <mxPoint x="800" y="470" as="targetPoint" />
          </mxGeometry>
        </mxCell>
        <mxCell id="omvKqvmsDNSaeKbOpfrH-26" value="" style="endArrow=none;html=1;rounded=0;entryX=0;entryY=0.5;entryDx=0;entryDy=0;exitX=1;exitY=0.5;exitDx=0;exitDy=0;" edge="1" parent="1" source="omvKqvmsDNSaeKbOpfrH-2" target="omvKqvmsDNSaeKbOpfrH-4">
          <mxGeometry relative="1" as="geometry">
            <mxPoint x="700" y="260" as="sourcePoint" />
            <mxPoint x="800" y="270" as="targetPoint" />
          </mxGeometry>
        </mxCell>
        <mxCell id="omvKqvmsDNSaeKbOpfrH-27" value="Matricula" style="ellipse;whiteSpace=wrap;html=1;align=center;fontStyle=4;" vertex="1" parent="1">
          <mxGeometry x="70" y="390" width="100" height="40" as="geometry" />
        </mxCell>
        <mxCell id="omvKqvmsDNSaeKbOpfrH-28" value="Nombre_y_apellido_med" style="ellipse;whiteSpace=wrap;html=1;align=center;" vertex="1" parent="1">
          <mxGeometry y="450" width="170" height="40" as="geometry" />
        </mxCell>
        <mxCell id="omvKqvmsDNSaeKbOpfrH-30" value="Responsabilidad" style="ellipse;whiteSpace=wrap;html=1;align=center;" vertex="1" parent="1">
          <mxGeometry x="400" y="370" width="100" height="40" as="geometry" />
        </mxCell>
        <mxCell id="omvKqvmsDNSaeKbOpfrH-31" value="" style="endArrow=none;html=1;rounded=0;exitX=1;exitY=0.5;exitDx=0;exitDy=0;entryX=0;entryY=0.25;entryDx=0;entryDy=0;" edge="1" parent="1" source="omvKqvmsDNSaeKbOpfrH-27" target="ozE5ypxph3W-FYaMxUwp-4">
          <mxGeometry relative="1" as="geometry">
            <mxPoint x="390" y="470" as="sourcePoint" />
            <mxPoint x="550" y="470" as="targetPoint" />
          </mxGeometry>
        </mxCell>
        <mxCell id="omvKqvmsDNSaeKbOpfrH-32" value="" style="endArrow=none;html=1;rounded=0;exitX=1;exitY=0.5;exitDx=0;exitDy=0;entryX=0;entryY=0.75;entryDx=0;entryDy=0;" edge="1" parent="1" source="omvKqvmsDNSaeKbOpfrH-28" target="ozE5ypxph3W-FYaMxUwp-4">
          <mxGeometry relative="1" as="geometry">
            <mxPoint x="390" y="470" as="sourcePoint" />
            <mxPoint x="550" y="470" as="targetPoint" />
          </mxGeometry>
        </mxCell>
        <mxCell id="omvKqvmsDNSaeKbOpfrH-34" value="" style="endArrow=none;html=1;rounded=0;exitX=1;exitY=0.25;exitDx=0;exitDy=0;entryX=0;entryY=1;entryDx=0;entryDy=0;" edge="1" parent="1" source="ozE5ypxph3W-FYaMxUwp-4" target="omvKqvmsDNSaeKbOpfrH-30">
          <mxGeometry relative="1" as="geometry">
            <mxPoint x="390" y="470" as="sourcePoint" />
            <mxPoint x="550" y="470" as="targetPoint" />
          </mxGeometry>
        </mxCell>
        <mxCell id="omvKqvmsDNSaeKbOpfrH-35" value="" style="endArrow=none;html=1;rounded=0;entryX=0.5;entryY=1;entryDx=0;entryDy=0;exitX=0.5;exitY=0;exitDx=0;exitDy=0;" edge="1" parent="1" source="ozE5ypxph3W-FYaMxUwp-27" target="ozE5ypxph3W-FYaMxUwp-2">
          <mxGeometry relative="1" as="geometry">
            <mxPoint x="390" y="370" as="sourcePoint" />
            <mxPoint x="550" y="370" as="targetPoint" />
          </mxGeometry>
        </mxCell>
        <mxCell id="omvKqvmsDNSaeKbOpfrH-36" value="(1,M)" style="resizable=0;html=1;whiteSpace=wrap;align=right;verticalAlign=bottom;" connectable="0" vertex="1" parent="omvKqvmsDNSaeKbOpfrH-35">
          <mxGeometry x="1" relative="1" as="geometry">
            <mxPoint y="20" as="offset" />
          </mxGeometry>
        </mxCell>
        <mxCell id="omvKqvmsDNSaeKbOpfrH-37" value="" style="endArrow=none;html=1;rounded=0;entryX=0.5;entryY=0;entryDx=0;entryDy=0;exitX=0.5;exitY=1;exitDx=0;exitDy=0;" edge="1" parent="1" source="ozE5ypxph3W-FYaMxUwp-27" target="ozE5ypxph3W-FYaMxUwp-4">
          <mxGeometry relative="1" as="geometry">
            <mxPoint x="390" y="370" as="sourcePoint" />
            <mxPoint x="550" y="370" as="targetPoint" />
          </mxGeometry>
        </mxCell>
        <mxCell id="omvKqvmsDNSaeKbOpfrH-38" value="(1,M)" style="resizable=0;html=1;whiteSpace=wrap;align=right;verticalAlign=bottom;" connectable="0" vertex="1" parent="omvKqvmsDNSaeKbOpfrH-37">
          <mxGeometry x="1" relative="1" as="geometry" />
        </mxCell>
        <mxCell id="omvKqvmsDNSaeKbOpfrH-39" value="" style="endArrow=none;html=1;rounded=0;entryX=0.5;entryY=1;entryDx=0;entryDy=0;exitX=0.5;exitY=0;exitDx=0;exitDy=0;" edge="1" parent="1" source="omvKqvmsDNSaeKbOpfrH-2" target="ozE5ypxph3W-FYaMxUwp-3">
          <mxGeometry relative="1" as="geometry">
            <mxPoint x="390" y="370" as="sourcePoint" />
            <mxPoint x="550" y="370" as="targetPoint" />
          </mxGeometry>
        </mxCell>
        <mxCell id="omvKqvmsDNSaeKbOpfrH-40" value="(1,M)" style="resizable=0;html=1;whiteSpace=wrap;align=right;verticalAlign=bottom;" connectable="0" vertex="1" parent="omvKqvmsDNSaeKbOpfrH-39">
          <mxGeometry x="1" relative="1" as="geometry">
            <mxPoint y="20" as="offset" />
          </mxGeometry>
        </mxCell>
        <mxCell id="omvKqvmsDNSaeKbOpfrH-41" value="" style="endArrow=none;html=1;rounded=0;entryX=0.5;entryY=0;entryDx=0;entryDy=0;exitX=0.5;exitY=1;exitDx=0;exitDy=0;" edge="1" parent="1" source="omvKqvmsDNSaeKbOpfrH-2" target="ozE5ypxph3W-FYaMxUwp-6">
          <mxGeometry relative="1" as="geometry">
            <mxPoint x="390" y="370" as="sourcePoint" />
            <mxPoint x="550" y="370" as="targetPoint" />
          </mxGeometry>
        </mxCell>
        <mxCell id="omvKqvmsDNSaeKbOpfrH-42" value="(1,1)" style="resizable=0;html=1;whiteSpace=wrap;align=right;verticalAlign=bottom;" connectable="0" vertex="1" parent="omvKqvmsDNSaeKbOpfrH-41">
          <mxGeometry x="1" relative="1" as="geometry" />
        </mxCell>
        <mxCell id="omvKqvmsDNSaeKbOpfrH-43" value="" style="endArrow=none;html=1;rounded=0;entryX=0.5;entryY=1;entryDx=0;entryDy=0;exitX=0.5;exitY=0;exitDx=0;exitDy=0;" edge="1" parent="1" source="omvKqvmsDNSaeKbOpfrH-3" target="ozE5ypxph3W-FYaMxUwp-6">
          <mxGeometry relative="1" as="geometry">
            <mxPoint x="390" y="570" as="sourcePoint" />
            <mxPoint x="550" y="570" as="targetPoint" />
          </mxGeometry>
        </mxCell>
        <mxCell id="omvKqvmsDNSaeKbOpfrH-44" value="1" style="resizable=0;html=1;whiteSpace=wrap;align=right;verticalAlign=bottom;" connectable="0" vertex="1" parent="omvKqvmsDNSaeKbOpfrH-43">
          <mxGeometry x="1" relative="1" as="geometry">
            <mxPoint y="20" as="offset" />
          </mxGeometry>
        </mxCell>
        <mxCell id="omvKqvmsDNSaeKbOpfrH-45" value="" style="endArrow=none;html=1;rounded=0;entryX=0.5;entryY=0;entryDx=0;entryDy=0;exitX=0.5;exitY=1;exitDx=0;exitDy=0;" edge="1" parent="1" source="omvKqvmsDNSaeKbOpfrH-3" target="ozE5ypxph3W-FYaMxUwp-7">
          <mxGeometry relative="1" as="geometry">
            <mxPoint x="390" y="570" as="sourcePoint" />
            <mxPoint x="550" y="570" as="targetPoint" />
          </mxGeometry>
        </mxCell>
        <mxCell id="omvKqvmsDNSaeKbOpfrH-46" value="1" style="resizable=0;html=1;whiteSpace=wrap;align=right;verticalAlign=bottom;" connectable="0" vertex="1" parent="omvKqvmsDNSaeKbOpfrH-45">
          <mxGeometry x="1" relative="1" as="geometry" />
        </mxCell>
        <mxCell id="omvKqvmsDNSaeKbOpfrH-47" value="" style="endArrow=none;html=1;rounded=0;entryX=0.5;entryY=1;entryDx=0;entryDy=0;exitX=0.5;exitY=0;exitDx=0;exitDy=0;" edge="1" parent="1" source="omvKqvmsDNSaeKbOpfrH-1" target="ozE5ypxph3W-FYaMxUwp-4">
          <mxGeometry relative="1" as="geometry">
            <mxPoint x="390" y="570" as="sourcePoint" />
            <mxPoint x="550" y="570" as="targetPoint" />
          </mxGeometry>
        </mxCell>
        <mxCell id="omvKqvmsDNSaeKbOpfrH-48" value="(1,M)" style="resizable=0;html=1;whiteSpace=wrap;align=right;verticalAlign=bottom;" connectable="0" vertex="1" parent="omvKqvmsDNSaeKbOpfrH-47">
          <mxGeometry x="1" relative="1" as="geometry">
            <mxPoint y="20" as="offset" />
          </mxGeometry>
        </mxCell>
        <mxCell id="omvKqvmsDNSaeKbOpfrH-49" value="" style="endArrow=none;html=1;rounded=0;entryX=0.5;entryY=0;entryDx=0;entryDy=0;exitX=0.5;exitY=1;exitDx=0;exitDy=0;" edge="1" parent="1" source="omvKqvmsDNSaeKbOpfrH-1" target="ozE5ypxph3W-FYaMxUwp-5">
          <mxGeometry relative="1" as="geometry">
            <mxPoint x="390" y="570" as="sourcePoint" />
            <mxPoint x="550" y="570" as="targetPoint" />
          </mxGeometry>
        </mxCell>
        <mxCell id="omvKqvmsDNSaeKbOpfrH-50" value="(1,1)" style="resizable=0;html=1;whiteSpace=wrap;align=right;verticalAlign=bottom;" connectable="0" vertex="1" parent="omvKqvmsDNSaeKbOpfrH-49">
          <mxGeometry x="1" relative="1" as="geometry" />
        </mxCell>
        <mxCell id="omvKqvmsDNSaeKbOpfrH-53" value="ID_especialidad" style="ellipse;whiteSpace=wrap;html=1;align=center;fontStyle=4;" vertex="1" parent="1">
          <mxGeometry x="180" y="650" width="100" height="40" as="geometry" />
        </mxCell>
        <mxCell id="omvKqvmsDNSaeKbOpfrH-54" value="Desc_especialidad" style="ellipse;whiteSpace=wrap;html=1;align=center;" vertex="1" parent="1">
          <mxGeometry x="304" y="660" width="110" height="40" as="geometry" />
        </mxCell>
        <mxCell id="omvKqvmsDNSaeKbOpfrH-55" value="" style="endArrow=none;html=1;rounded=0;exitX=0.75;exitY=1;exitDx=0;exitDy=0;entryX=0.5;entryY=0;entryDx=0;entryDy=0;" edge="1" parent="1" source="ozE5ypxph3W-FYaMxUwp-5" target="omvKqvmsDNSaeKbOpfrH-54">
          <mxGeometry relative="1" as="geometry">
            <mxPoint x="570" y="700" as="sourcePoint" />
            <mxPoint x="730" y="700" as="targetPoint" />
          </mxGeometry>
        </mxCell>
        <mxCell id="omvKqvmsDNSaeKbOpfrH-56" value="" style="endArrow=none;html=1;rounded=0;exitX=0;exitY=1;exitDx=0;exitDy=0;entryX=1;entryY=0;entryDx=0;entryDy=0;" edge="1" parent="1" source="ozE5ypxph3W-FYaMxUwp-5" target="omvKqvmsDNSaeKbOpfrH-53">
          <mxGeometry relative="1" as="geometry">
            <mxPoint x="570" y="700" as="sourcePoint" />
            <mxPoint x="730" y="700" as="targetPoint" />
          </mxGeometry>
        </mxCell>
        <mxCell id="omvKqvmsDNSaeKbOpfrH-57" value="Lab_prov" style="ellipse;whiteSpace=wrap;html=1;align=center;" vertex="1" parent="1">
          <mxGeometry x="605" y="710" width="100" height="40" as="geometry" />
        </mxCell>
        <mxCell id="omvKqvmsDNSaeKbOpfrH-59" value="" style="endArrow=none;html=1;rounded=0;exitX=0.5;exitY=1;exitDx=0;exitDy=0;entryX=0.5;entryY=0;entryDx=0;entryDy=0;" edge="1" parent="1" source="ozE5ypxph3W-FYaMxUwp-7" target="omvKqvmsDNSaeKbOpfrH-57">
          <mxGeometry relative="1" as="geometry">
            <mxPoint x="570" y="610" as="sourcePoint" />
            <mxPoint x="730" y="610" as="targetPoint" />
          </mxGeometry>
        </mxCell>
        <mxCell id="omvKqvmsDNSaeKbOpfrH-60" value="Fecha_inicio" style="ellipse;whiteSpace=wrap;html=1;align=center;" vertex="1" parent="1">
          <mxGeometry x="160" y="340" width="100" height="40" as="geometry" />
        </mxCell>
        <mxCell id="omvKqvmsDNSaeKbOpfrH-61" value="" style="endArrow=none;html=1;rounded=0;exitX=1;exitY=0.5;exitDx=0;exitDy=0;entryX=0;entryY=0.5;entryDx=0;entryDy=0;" edge="1" parent="1" source="omvKqvmsDNSaeKbOpfrH-60" target="ozE5ypxph3W-FYaMxUwp-27">
          <mxGeometry relative="1" as="geometry">
            <mxPoint x="420" y="440" as="sourcePoint" />
            <mxPoint x="580" y="440" as="targetPoint" />
          </mxGeometry>
        </mxCell>
        <mxCell id="omvKqvmsDNSaeKbOpfrH-62" value="Fecha_fin" style="ellipse;whiteSpace=wrap;html=1;align=center;" vertex="1" parent="1">
          <mxGeometry x="420" y="310" width="100" height="40" as="geometry" />
        </mxCell>
        <mxCell id="omvKqvmsDNSaeKbOpfrH-63" value="" style="endArrow=none;html=1;rounded=0;exitX=1;exitY=0.5;exitDx=0;exitDy=0;entryX=0;entryY=0.5;entryDx=0;entryDy=0;" edge="1" parent="1" source="ozE5ypxph3W-FYaMxUwp-27" target="omvKqvmsDNSaeKbOpfrH-62">
          <mxGeometry relative="1" as="geometry">
            <mxPoint x="420" y="440" as="sourcePoint" />
            <mxPoint x="580" y="440" as="targetPoint" />
          </mxGeometry>
        </mxCell>
        <mxCell id="omvKqvmsDNSaeKbOpfrH-64" value="Agrego &quot;Interviene_en&quot; entre paciente y medico??" style="shape=note;size=20;whiteSpace=wrap;html=1;" vertex="1" parent="1">
          <mxGeometry x="50" y="700" width="100" height="100" as="geometry" />
        </mxCell>
        <mxCell id="omvKqvmsDNSaeKbOpfrH-65" value="&lt;h1 style=&quot;margin-top: 0px;&quot;&gt;MR&lt;/h1&gt;&lt;p&gt;Servicios(&lt;span style=&quot;text-align: center; text-decoration-line: underline; background-color: transparent; color: light-dark(rgb(0, 0, 0), rgb(255, 255, 255));&quot;&gt;ID_servicio,&amp;nbsp;&lt;/span&gt;&lt;span style=&quot;text-align: center; background-color: transparent; color: light-dark(rgb(0, 0, 0), rgb(255, 255, 255));&quot;&gt;Ubicacion,&amp;nbsp;&lt;/span&gt;&lt;span style=&quot;text-align: center; background-color: transparent; color: light-dark(rgb(0, 0, 0), rgb(255, 255, 255));&quot;&gt;Denominacion&lt;/span&gt;&lt;span style=&quot;background-color: transparent; color: light-dark(rgb(0, 0, 0), rgb(255, 255, 255));&quot;&gt;)&lt;/span&gt;&lt;/p&gt;&lt;p&gt;Cama_asignada(&lt;span style=&quot;text-align: center; text-decoration-line: underline; background-color: transparent; color: light-dark(rgb(0, 0, 0), rgb(255, 255, 255));&quot;&gt;Nro_de_Cama,&amp;nbsp;&lt;/span&gt;&lt;span style=&quot;text-align: center; background-color: transparent; color: light-dark(rgb(0, 0, 0), rgb(255, 255, 255));&quot;&gt;Servicio,&lt;/span&gt;&lt;span style=&quot;text-align: center; background-color: transparent; color: light-dark(rgb(0, 0, 0), rgb(255, 255, 255));&quot;&gt;Piso&lt;/span&gt;&lt;span style=&quot;background-color: transparent; color: light-dark(rgb(0, 0, 0), rgb(255, 255, 255)); text-align: center;&quot;&gt;&amp;nbsp;&lt;/span&gt;&lt;span style=&quot;background-color: transparent; color: light-dark(rgb(0, 0, 0), rgb(255, 255, 255));&quot;&gt;)&lt;/span&gt;&lt;/p&gt;&lt;p&gt;Medico(&lt;span style=&quot;text-align: center; text-decoration-line: underline; background-color: transparent; color: light-dark(rgb(0, 0, 0), rgb(255, 255, 255));&quot;&gt;Matricula&lt;/span&gt;&lt;span style=&quot;background-color: transparent; color: light-dark(rgb(0, 0, 0), rgb(255, 255, 255));&quot;&gt;,&amp;nbsp;&lt;/span&gt;&lt;span style=&quot;background-color: transparent; color: light-dark(rgb(0, 0, 0), rgb(255, 255, 255)); text-align: center;&quot;&gt;Responsabilidad,&amp;nbsp;&lt;/span&gt;&lt;span style=&quot;text-align: center; background-color: transparent; color: light-dark(rgb(0, 0, 0), rgb(255, 255, 255));&quot;&gt;Nombre_y_apellido_med)&lt;/span&gt;&lt;/p&gt;&lt;p&gt;Especialidad(&lt;span style=&quot;text-align: center; text-decoration-line: underline; background-color: transparent; color: light-dark(rgb(0, 0, 0), rgb(255, 255, 255));&quot;&gt;ID_especialidad,&amp;nbsp;&lt;/span&gt;&lt;span style=&quot;text-align: center; background-color: transparent; color: light-dark(rgb(0, 0, 0), rgb(255, 255, 255));&quot;&gt;Desc_especialidad&lt;/span&gt;&lt;span style=&quot;background-color: transparent; color: light-dark(rgb(0, 0, 0), rgb(255, 255, 255));&quot;&gt;)&lt;/span&gt;&lt;/p&gt;&lt;p&gt;Paciente_internado(&lt;span style=&quot;text-align: center; text-decoration-line: underline; background-color: transparent; color: light-dark(rgb(0, 0, 0), rgb(255, 255, 255));&quot;&gt;Nro_hist_clinica,&amp;nbsp;&lt;/span&gt;&lt;span style=&quot;text-align: center; background-color: transparent; color: light-dark(rgb(0, 0, 0), rgb(255, 255, 255));&quot;&gt;Fecha_nac,&amp;nbsp;&lt;/span&gt;&lt;span style=&quot;text-align: center; background-color: transparent; color: light-dark(rgb(0, 0, 0), rgb(255, 255, 255));&quot;&gt;DNI,&amp;nbsp;&lt;/span&gt;&lt;span style=&quot;text-align: center; background-color: transparent; color: light-dark(rgb(0, 0, 0), rgb(255, 255, 255));&quot;&gt;Nombre_y_apellido,&amp;nbsp;&lt;/span&gt;&lt;span style=&quot;text-align: center; background-color: transparent; color: light-dark(rgb(0, 0, 0), rgb(255, 255, 255));&quot;&gt;Fecha_ingreso,&amp;nbsp;&lt;/span&gt;&lt;span style=&quot;text-align: center; background-color: transparent; color: light-dark(rgb(0, 0, 0), rgb(255, 255, 255));&quot;&gt;Fecha_alta&lt;/span&gt;&lt;span style=&quot;background-color: transparent; color: light-dark(rgb(0, 0, 0), rgb(255, 255, 255));&quot;&gt;)&lt;/span&gt;&lt;/p&gt;&lt;p&gt;Medicamento_suministrado(&lt;span style=&quot;text-align: center; text-decoration-line: underline; background-color: transparent; color: light-dark(rgb(0, 0, 0), rgb(255, 255, 255));&quot;&gt;ID_medicamento,&amp;nbsp;&lt;/span&gt;&lt;span style=&quot;text-align: center; background-color: transparent; color: light-dark(rgb(0, 0, 0), rgb(255, 255, 255));&quot;&gt;Lab_prov,&amp;nbsp;&lt;/span&gt;&lt;span style=&quot;text-align: center; background-color: transparent; color: light-dark(rgb(0, 0, 0), rgb(255, 255, 255));&quot;&gt;Denominacion,&amp;nbsp;&lt;/span&gt;&lt;span style=&quot;text-align: center; background-color: transparent; color: light-dark(rgb(0, 0, 0), rgb(255, 255, 255));&quot;&gt;Presentacion&lt;/span&gt;&lt;span style=&quot;background-color: transparent; color: light-dark(rgb(0, 0, 0), rgb(255, 255, 255));&quot;&gt;)&lt;/span&gt;&lt;/p&gt;&lt;p&gt;Se_le_suministra(&lt;span style=&quot;text-align: center; text-decoration-line: underline; background-color: transparent; color: light-dark(rgb(0, 0, 0), rgb(255, 255, 255));&quot;&gt;ID_medicamento&lt;/span&gt;&lt;span style=&quot;background-color: transparent; color: light-dark(rgb(0, 0, 0), rgb(255, 255, 255));&quot;&gt;,&amp;nbsp;&lt;/span&gt;&lt;span style=&quot;text-align: center; text-decoration-line: underline; background-color: transparent; color: light-dark(rgb(0, 0, 0), rgb(255, 255, 255));&quot;&gt;Nro_hist_clinica&lt;/span&gt;&lt;span style=&quot;background-color: transparent; color: light-dark(rgb(0, 0, 0), rgb(255, 255, 255));&quot;&gt;,&lt;/span&gt;&lt;span style=&quot;background-color: transparent; color: light-dark(rgb(0, 0, 0), rgb(255, 255, 255)); text-align: center;&quot;&gt;Cantidad&lt;/span&gt;&lt;span style=&quot;background-color: transparent; color: light-dark(rgb(0, 0, 0), rgb(255, 255, 255));&quot;&gt;)&lt;/span&gt;&lt;/p&gt;&lt;p&gt;Trabaja(&amp;nbsp;&lt;span style=&quot;text-align: center; text-decoration-line: underline; background-color: transparent; color: light-dark(rgb(0, 0, 0), rgb(255, 255, 255));&quot;&gt;ID_servicio&lt;/span&gt;&lt;span style=&quot;background-color: transparent; color: light-dark(rgb(0, 0, 0), rgb(255, 255, 255));&quot;&gt;,&amp;nbsp;&lt;/span&gt;&lt;span style=&quot;text-align: center; text-decoration-line: underline; background-color: transparent; color: light-dark(rgb(0, 0, 0), rgb(255, 255, 255));&quot;&gt;Matricula&lt;/span&gt;&lt;span style=&quot;background-color: transparent; color: light-dark(rgb(0, 0, 0), rgb(255, 255, 255));&quot;&gt;,&amp;nbsp;&lt;/span&gt;&lt;span style=&quot;background-color: transparent; color: light-dark(rgb(0, 0, 0), rgb(255, 255, 255)); text-align: center;&quot;&gt;Fecha_inicio, Fecha_fin&lt;/span&gt;&lt;span style=&quot;background-color: transparent; color: light-dark(rgb(0, 0, 0), rgb(255, 255, 255));&quot;&gt;)&lt;/span&gt;&lt;/p&gt;&lt;p&gt;Internacion(&lt;span style=&quot;text-align: center; text-decoration-line: underline; background-color: transparent; color: light-dark(rgb(0, 0, 0), rgb(255, 255, 255));&quot;&gt;Nro_de_Cama&lt;/span&gt;&lt;span style=&quot;background-color: transparent; color: light-dark(rgb(0, 0, 0), rgb(255, 255, 255));&quot;&gt;,&amp;nbsp;&lt;/span&gt;&lt;span style=&quot;text-align: center; text-decoration-line: underline; background-color: transparent; color: light-dark(rgb(0, 0, 0), rgb(255, 255, 255));&quot;&gt;Nro_hist_clinica&lt;/span&gt;&lt;span style=&quot;background-color: transparent; color: light-dark(rgb(0, 0, 0), rgb(255, 255, 255));&quot;&gt;&amp;nbsp;,&lt;/span&gt;&lt;span style=&quot;background-color: transparent; color: light-dark(rgb(0, 0, 0), rgb(255, 255, 255)); text-align: center;&quot;&gt;Cant_de_dias&lt;/span&gt;&lt;span style=&quot;background-color: transparent; color: light-dark(rgb(0, 0, 0), rgb(255, 255, 255));&quot;&gt;)&lt;/span&gt;&lt;/p&gt;&lt;p&gt;Tiene()&lt;/p&gt;&lt;p&gt;Conjunto_de()&lt;/p&gt;" style="text;html=1;whiteSpace=wrap;overflow=hidden;rounded=0;" vertex="1" parent="1">
          <mxGeometry x="290" y="830" width="730" height="330" as="geometry" />
        </mxCell>
      </root>
    </mxGraphModel>
  </diagram>
</mxfile>
